<?xml version="1.0" standalone="no"?>
<!DOCTYPE svg PUBLIC "-//W3C//DTD SVG 20010904//EN"
 "http://www.w3.org/TR/2001/REC-SVG-20010904/DTD/svg10.dtd">
<svg version="1.0" xmlns="http://www.w3.org/2000/svg"
 width="512.000000pt" height="512.000000pt" viewBox="0 0 512.000000 512.000000"
 preserveAspectRatio="xMidYMid meet">
<metadata>
Created by potrace 1.16, written by Peter Selinger 2001-2019
</metadata>
<g transform="translate(0.000000,512.000000) scale(0.100000,-0.100000)"
fill="white" stroke="none">
<path d="M1193 4186 l-28 -24 -3 -154 -3 -155 -38 -16 c-21 -10 -43 -28 -49
-42 -9 -19 -12 -307 -12 -1103 l0 -1078 -30 -11 c-55 -21 -70 -63 -70 -196 0
-134 13 -178 61 -202 24 -13 244 -15 1606 -15 1565 0 1578 0 1611 20 49 30 62
72 62 200 0 121 -10 155 -54 184 l-26 16 3 812 2 812 35 7 c40 8 70 41 70 75
0 20 -5 24 -30 24 l-30 0 0 66 c0 59 -3 68 -29 95 l-29 29 -211 0 c-207 0
-210 0 -238 -24 l-28 -24 -3 -176 c-2 -100 -7 -176 -13 -176 -5 0 -9 169 -9
429 0 418 0 429 -21 455 l-20 26 -234 0 c-128 0 -240 3 -249 6 -11 4 -16 19
-16 44 0 44 -35 80 -77 80 -14 0 -36 9 -50 20 -25 20 -41 20 -924 20 l-898 0
-28 -24z m1814 -35 c10 -1 13 -70 15 -293 3 -270 4 -293 21 -296 14 -3 17 4
17 48 0 36 -4 52 -15 56 -21 9 -19 24 4 24 28 0 31 -18 31 -164 0 -133 0 -133
-30 -171 -16 -21 -30 -42 -30 -48 0 -10 9 -4 74 50 22 18 44 33 50 33 14 0
106 -91 106 -106 0 -43 -143 -176 -194 -180 -19 -2 -88 -38 -176 -93 -80 -50
-148 -91 -152 -91 -5 0 -8 163 -8 363 0 199 -4 367 -8 374 -4 6 -19 16 -32 21
-15 6 -244 8 -560 6 -294 -1 -543 -1 -552 2 -13 4 -18 16 -18 45 0 45 -21 94
-45 103 -9 3 -79 6 -156 6 l-139 0 0 154 c0 95 4 156 10 158 9 3 1755 2 1787
-1z m123 -96 l0 -55 246 0 c150 0 253 -4 265 -10 18 -10 19 -26 19 -435 l0
-425 -198 0 -198 0 -42 -42 -41 -43 107 0 107 0 5 -370 c4 -305 8 -374 20
-395 14 -23 15 13 20 370 l5 395 148 3 147 3 -2 -723 -3 -723 -145 0 -145 0
-3 165 -3 165 -20 -49 c-44 -110 -166 -253 -284 -333 -94 -64 -278 -134 -345
-132 -14 0 15 11 64 24 384 100 655 455 570 746 -39 132 -137 256 -258 328
-89 53 -237 109 -349 132 -140 29 -345 23 -492 -15 -292 -75 -517 -281 -556
-508 -13 -78 0 -186 31 -256 11 -25 20 -48 20 -53 0 -14 -77 -49 -106 -49 -26
0 -26 -1 14 -29 55 -41 111 -117 118 -162 l6 -38 35 14 c35 15 35 15 86 -30
69 -60 232 -139 354 -172 87 -23 116 -26 268 -26 150 0 181 3 266 25 107 29
227 86 308 147 l55 41 486 0 c365 0 489 -3 498 -12 19 -19 16 -222 -4 -242
-14 -14 -151 -16 -1355 -16 -736 0 -1339 2 -1339 5 0 2 35 25 77 50 l78 45
232 0 c127 0 234 4 237 8 3 5 -14 19 -37 32 -23 13 -70 43 -105 66 -34 23 -76
46 -94 49 -27 6 -35 3 -57 -22 -14 -16 -35 -36 -46 -44 -11 -8 -5 3 13 24 17
21 32 48 32 60 0 34 -54 121 -100 160 -87 74 -186 72 -429 -12 l-171 -58 0
1066 c0 616 4 1072 9 1080 8 12 39 14 163 12 179 -2 178 -2 178 -97 0 -44 5
-67 16 -78 14 -14 79 -16 565 -16 l549 0 0 -377 0 -378 -98 -63 c-54 -35 -112
-75 -128 -88 l-29 -25 29 6 c52 11 189 25 249 25 l58 0 197 154 c343 268 432
359 432 437 0 36 -7 46 -72 110 -56 54 -72 76 -70 94 2 17 -6 30 -27 46 -29
21 -31 27 -31 90 0 68 -7 83 -40 84 -13 0 -15 30 -18 198 l-2 197 30 0 c30 0
30 0 30 -55z m1074 -591 c11 -10 16 -34 16 -75 0 -58 0 -59 -29 -59 -20 0 -30
6 -34 20 -5 20 -12 20 -159 18 l-153 -3 -3 -882 c-1 -486 -4 -883 -6 -883 -3
0 -11 3 -20 6 -14 6 -16 97 -16 928 0 704 3 925 12 934 8 8 66 12 194 12 153
0 185 -3 198 -16z m-56 -996 l-3 -863 -130 0 -130 0 -3 863 -2 862 135 0 135
0 -2 -862z m-1358 356 c-34 -25 -64 -44 -66 -41 -5 5 107 86 120 87 4 0 -20
-21 -54 -46z m45 -274 c195 -49 364 -168 430 -303 91 -188 56 -368 -105 -528
-63 -63 -94 -85 -181 -128 -148 -73 -205 -86 -374 -86 -165 0 -246 19 -391 91
-148 73 -250 177 -298 306 -76 202 -12 395 177 539 39 30 39 29 -9 -17 -97
-95 -158 -189 -178 -276 -9 -41 8 -34 23 10 32 86 123 202 216 270 102 76 232
128 365 145 70 10 246 -3 325 -23z m-665 -54 c0 -2 -8 -10 -17 -17 -16 -13
-17 -12 -4 4 13 16 21 21 21 13z m1245 -698 c-4 -13 -10 -61 -14 -108 l-6 -85
-57 -3 -58 -3 55 76 c29 41 60 91 66 110 14 38 26 49 14 13z m-1397 -188 c92
-82 222 -138 421 -181 79 -17 81 -18 26 -12 -191 17 -350 82 -492 199 -32 25
-34 26 -59 10 -14 -10 -31 -15 -37 -13 -11 4 58 46 76 47 5 0 34 -22 65 -50z
m-294 -11 c37 -43 34 -82 -6 -112 -18 -13 -107 -66 -197 -118 -147 -83 -170
-93 -215 -94 -47 0 -51 2 -80 42 -17 23 -36 42 -43 42 -16 1 -33 -31 -33 -63
0 -24 -4 -26 -43 -26 -24 0 -48 5 -55 12 -8 8 -12 51 -12 130 0 107 2 118 20
128 12 6 77 9 167 8 l148 -3 -82 -42 c-64 -34 -92 -43 -132 -43 l-51 0 0 -35
c0 -34 1 -35 40 -35 23 0 52 7 65 16 15 10 25 12 25 5 0 -6 5 -11 11 -11 6 0
101 52 212 115 110 63 208 115 218 115 9 0 29 -14 43 -31z m1029 -186 c-7 -2
-21 -2 -30 0 -10 3 -4 5 12 5 17 0 24 -2 18 -5z"/>
<path d="M1405 3340 c-4 -6 -5 -13 -4 -15 2 -2 119 -5 259 -6 217 -2 255 -1
255 12 0 12 -41 14 -252 17 -173 2 -254 -1 -258 -8z"/>
<path d="M1407 3243 c-4 -3 -7 -10 -7 -15 0 -4 243 -8 540 -8 473 0 540 2 540
15 0 13 -66 15 -533 15 -294 0 -537 -3 -540 -7z"/>
<path d="M1400 3095 c0 -12 30 -15 178 -17 97 -2 179 -2 181 -1 2 1 1 9 -2 18
-9 22 -357 23 -357 0z"/>
<path d="M1407 3003 c-4 -3 -7 -10 -7 -15 0 -4 234 -8 520 -8 456 0 520 2 520
15 0 13 -64 15 -513 15 -283 0 -517 -3 -520 -7z"/>
<path d="M3037 2936 c-27 -22 -28 -25 -26 -113 1 -50 -2 -96 -5 -102 -4 -7
-42 -11 -94 -12 -80 0 -205 -15 -156 -18 37 -2 177 -41 243 -67 35 -13 65 -23
67 -21 3 2 3 83 2 180 l-3 175 -28 -22z"/>
<path d="M1598 2842 c-121 -1 -198 -6 -198 -12 0 -6 139 -10 381 -10 300 0
380 3 377 13 -5 13 -142 15 -560 9z"/>
<path d="M1400 2695 l0 -35 423 0 424 0 20 23 c45 49 64 47 -416 47 l-451 0 0
-35z"/>
<path d="M1402 2538 l3 -33 289 -3 289 -2 34 25 c18 15 31 31 28 36 -4 5 -139
9 -326 9 l-320 0 3 -32z"/>
<path d="M1410 2450 c0 -15 491 -18 510 -2 11 10 -37 12 -248 12 -162 0 -262
-4 -262 -10z"/>
<path d="M1400 2340 l0 -40 203 0 202 1 27 39 28 40 -230 0 -230 0 0 -40z"/>
<path d="M1515 2180 c-172 -7 -120 -21 70 -18 116 2 159 6 163 16 4 13 -5 13
-233 2z"/>
<path d="M1402 2088 c4 -10 49 -14 171 -16 144 -2 167 0 167 13 0 13 -24 15
-171 15 -132 0 -170 -3 -167 -12z"/>
<path d="M1410 1890 c0 -6 65 -10 175 -10 110 0 175 4 175 10 0 6 -65 10 -175
10 -110 0 -175 -4 -175 -10z"/>
<path d="M1402 1819 c5 -15 357 -14 371 0 8 8 -45 11 -182 11 -133 0 -192 -3
-189 -11z"/>
<path d="M3640 1473 c0 -10 54 -13 235 -13 150 0 235 4 235 10 0 12 -51 15
-287 15 -140 0 -183 -3 -183 -12z"/>
<path d="M3350 1470 c0 -6 35 -10 85 -10 50 0 85 4 85 10 0 6 -35 10 -85 10
-50 0 -85 -4 -85 -10z"/>
<path d="M2465 2536 c-80 -16 -164 -46 -215 -77 -49 -31 -24 -34 41 -5 30 13
88 31 129 40 41 9 89 22 105 29 42 16 167 13 254 -6 183 -41 318 -117 425
-239 51 -58 62 -53 18 8 -74 102 -220 193 -377 235 -101 27 -281 34 -380 15z"/>
<path d="M2710 2468 c0 -9 21 -21 58 -31 68 -19 163 -78 221 -138 122 -127
135 -321 31 -460 -38 -51 -44 -74 -16 -63 19 7 73 85 97 138 13 31 20 71 22
133 2 81 -1 93 -30 156 -45 94 -134 183 -233 230 -89 42 -150 57 -150 35z"/>
<path d="M2588 2463 c-16 -4 -18 -22 -18 -204 l0 -199 -32 -1 c-18 -1 -36 -1
-40 0 -5 0 -8 -6 -8 -14 0 -25 49 -48 117 -57 74 -9 96 -18 67 -29 -27 -11
-73 -10 -115 1 -94 26 -119 109 -54 175 20 19 40 35 45 35 6 0 10 9 10 20 0
63 -123 -23 -150 -105 l-12 -35 -119 0 c-99 0 -119 -3 -119 -15 0 -13 20 -15
124 -15 115 0 125 -1 131 -20 11 -34 84 -88 137 -100 145 -35 292 39 305 153
11 95 -67 178 -182 193 l-44 7 -3 105 c-3 105 -6 114 -40 105z m118 -289 c73
-35 97 -112 53 -168 l-22 -27 -31 29 c-17 16 -38 32 -48 35 -13 4 -17 21 -20
76 -3 80 3 86 68 55z"/>
<path d="M2395 2436 c-68 -22 -145 -63 -145 -78 0 -13 19 -9 68 16 60 30 146
56 189 56 23 0 33 5 33 15 0 22 -62 18 -145 -9z"/>
<path d="M2151 2254 c-42 -64 -75 -154 -61 -168 14 -14 24 0 38 51 7 23 28 65
47 93 32 48 37 70 15 70 -4 0 -22 -21 -39 -46z"/>
<path d="M2367 1825 c-64 -81 -77 -105 -58 -105 13 0 151 173 145 182 -10 17
-23 6 -87 -77z"/>
<path d="M2130 1824 c0 -24 109 -129 122 -116 7 7 -5 26 -41 62 -28 28 -51 55
-51 60 0 6 -7 10 -15 10 -8 0 -15 -7 -15 -16z"/>
</g>
</svg>