<?xml version="1.0" standalone="no"?>
<!DOCTYPE svg PUBLIC "-//W3C//DTD SVG 20010904//EN"
 "http://www.w3.org/TR/2001/REC-SVG-20010904/DTD/svg10.dtd">
<svg version="1.0" xmlns="http://www.w3.org/2000/svg"
 width="512.000000pt" height="512.000000pt" viewBox="0 0 512.000000 512.000000"
 preserveAspectRatio="xMidYMid meet">
<metadata>
Created by potrace 1.16, written by Peter Selinger 2001-2019
</metadata>
<g transform="translate(0.000000,512.000000) scale(0.100000,-0.100000)"
fill="white" stroke="none">
<path d="M2700 4690 c288 -15 502 -70 759 -197 116 -58 288 -167 351 -223 42
-37 41 -37 -80 22 -472 230 -742 307 -1076 308 -482 1 -922 -151 -1304 -449
-357 -279 -591 -631 -700 -1055 -48 -185 -55 -252 -54 -511 1 -215 4 -254 27
-375 64 -328 174 -588 360 -850 102 -144 198 -252 301 -339 l87 -74 39 12 c22
6 40 15 40 19 0 4 -41 41 -91 82 -296 242 -537 621 -634 995 -119 462 -82 972
99 1360 118 251 365 567 576 738 504 407 1213 543 1801 346 360 -120 698 -351
927 -631 161 -198 307 -466 391 -723 112 -341 137 -669 77 -1015 -70 -396
-294 -796 -628 -1116 -384 -369 -866 -563 -1398 -564 -170 0 -277 12 -415 45
-160 39 -154 38 -120 22 60 -28 233 -66 350 -77 348 -34 624 0 940 115 343
125 624 321 880 615 53 60 211 292 257 375 116 210 174 403 228 760 13 80 12
328 0 440 -41 362 -197 777 -387 1027 -24 31 -43 61 -43 67 0 5 -6 14 -13 18
-7 4 -45 46 -84 93 -232 278 -569 527 -858 632 -92 33 -276 87 -320 94 -115
16 -216 24 -315 22 l-115 -1 145 -7z"/>
<path d="M2510 4474 c-406 -38 -732 -164 -1041 -400 -116 -89 -309 -286 -402
-409 -119 -159 -226 -396 -276 -615 -64 -276 -59 -701 9 -876 24 -62 24 -60
-1 110 -40 262 -14 568 71 859 35 120 124 317 187 415 20 31 44 76 55 101 38
90 312 325 537 460 143 87 314 166 456 211 156 50 175 55 335 86 74 14 138 31
143 37 4 7 7 -14 5 -46 -2 -38 1 -57 9 -57 7 0 9 9 5 22 -4 17 -2 20 11 15 45
-18 50 -17 23 6 -16 14 -27 30 -25 36 6 17 78 -40 79 -61 0 -14 8 -18 38 -17
30 2 32 3 10 6 -17 3 -28 11 -28 19 0 12 7 14 30 9 25 -5 29 -4 24 9 -3 9 -17
16 -30 16 -17 0 -24 6 -24 20 0 15 7 20 25 20 14 0 25 -6 26 -12 0 -7 4 -3 10
10 5 14 13 20 20 16 8 -4 9 -3 5 4 -4 7 -24 11 -44 11 -42 -2 -107 -16 -79
-18 11 -1 17 -9 17 -27 l0 -25 -44 35 c-43 36 -50 38 -136 30z"/>
<path d="M2848 4463 c6 -2 18 -2 25 0 6 3 1 5 -13 5 -14 0 -19 -2 -12 -5z"/>
<path d="M2890 4360 c322 -58 560 -171 817 -387 50 -42 73 -53 73 -34 0 26
-323 240 -446 296 -144 66 -363 128 -489 139 -40 4 -25 -1 45 -14z"/>
<path d="M2385 4255 c-183 -34 -399 -113 -575 -210 -91 -51 -217 -136 -263
-179 -15 -14 -38 -26 -51 -26 -25 0 -56 -28 -56 -51 0 -8 -22 -37 -50 -64
l-50 -49 -25 24 c-32 30 -32 47 0 80 23 24 24 28 10 40 -13 10 -22 6 -58 -27
-24 -22 -41 -45 -39 -52 2 -7 -20 -37 -49 -67 -38 -39 -50 -57 -42 -65 13 -13
110 94 105 117 -2 8 1 14 6 14 14 0 85 -77 74 -81 -17 -7 -107 -122 -155 -199
-127 -207 -224 -487 -240 -698 -2 -29 -7 -55 -10 -58 -3 -4 -26 1 -51 9 -24 8
-47 13 -50 9 -12 -11 -6 -22 13 -22 10 0 34 -7 52 -15 l34 -16 -35 4 c-19 2
-43 7 -52 12 -13 5 -18 3 -18 -8 0 -8 12 -20 28 -25 l27 -10 -32 -7 -33 -7 0
-68 0 -68 41 5 42 6 -7 -36 c-6 -30 -4 -37 9 -37 11 0 15 11 15 40 0 73 16 41
28 -56 23 -182 89 -399 174 -569 43 -85 133 -228 179 -284 l28 -35 -39 -34
c-54 -46 -51 -61 5 -21 51 37 47 39 127 -53 48 -56 50 -59 33 -78 -9 -10 -14
-23 -11 -29 11 -17 226 -174 291 -213 274 -163 551 -240 860 -240 159 0 266
12 404 48 262 68 558 243 765 453 l80 80 42 -34 c24 -20 45 -32 47 -28 3 5
-15 24 -39 43 -43 34 -43 35 -25 55 73 79 206 333 266 505 41 117 97 322 90
328 -2 3 -12 1 -22 -2 -11 -5 -14 -10 -6 -14 27 -17 -103 -401 -195 -572 -52
-98 -150 -250 -160 -250 -4 0 -20 12 -36 26 l-29 25 24 32 c103 138 179 279
232 434 36 101 77 272 77 317 0 32 6 35 74 37 l56 2 -1 71 c-2 68 -2 69 -8 21
-9 -68 -15 -75 -67 -75 l-44 0 0 53 c0 28 4 69 9 90 7 27 6 37 -4 37 -8 0 -14
-34 -19 -117 -16 -270 -110 -549 -262 -779 -73 -110 -78 -114 -113 -80 l-29
28 53 70 c137 182 254 481 284 728 13 102 13 110 2 110 -4 0 -11 -37 -14 -82
-13 -162 -76 -368 -168 -553 -50 -100 -152 -255 -168 -255 -8 0 -152 160 -249
279 -48 58 -52 65 -39 85 119 185 187 381 187 537 l0 49 -269 0 -269 0 -11 63
c-20 115 -9 141 22 52 16 -45 15 -45 187 -69 142 -20 379 -34 714 -41 l279 -6
-6 133 c-11 246 -66 450 -184 679 -35 70 -96 168 -135 220 l-71 93 35 30 c19
17 43 36 54 43 18 11 14 17 -52 82 -40 39 -78 71 -85 71 -7 0 19 -33 60 -74
51 -51 69 -76 60 -81 -8 -5 -10 -4 -5 3 15 24 -16 11 -37 -15 -12 -15 -48 -54
-80 -86 l-58 -59 -77 74 c-143 136 -356 261 -561 328 -100 32 -239 60 -302 60
l-39 0 0 45 0 45 43 -6 c304 -42 531 -130 760 -295 54 -39 101 -68 105 -65 7
8 -8 19 -137 107 -221 149 -476 246 -701 265 -35 3 -67 7 -71 10 -7 4 -19 -46
-19 -82 0 -19 -6 -24 -27 -25 -24 -2 -25 -2 -5 -6 l22 -4 0 -563 0 -562 47
-12 46 -13 41 47 c37 42 44 46 62 34 18 -11 32 -4 135 71 62 45 159 115 214
155 55 40 171 132 259 206 87 73 169 141 181 151 23 17 23 17 74 -48 188 -238
284 -484 311 -789 10 -110 14 -136 23 -125 8 9 -13 219 -28 292 -53 255 -137
437 -291 628 l-53 66 35 34 c44 43 50 40 137 -87 77 -110 172 -298 212 -417
45 -135 85 -363 85 -489 l0 -48 -142 0 c-111 0 -171 6 -268 25 -69 14 -126 25
-127 25 -2 0 -3 -7 -3 -17 0 -14 -12 -15 -117 -10 -195 11 -367 29 -380 39 -7
6 -13 22 -13 37 0 14 -11 57 -25 95 l-24 70 83 110 c101 135 247 315 330 406
34 37 19 24 -32 -29 -149 -153 -380 -437 -459 -564 l-29 -47 -31 43 -30 44
160 182 c88 100 158 184 156 186 -3 2 -63 -48 -134 -111 -72 -63 -158 -133
-192 -156 l-61 -41 40 -51 c55 -68 88 -142 88 -193 0 -34 -4 -43 -17 -43 -28
0 -41 13 -49 45 -12 51 -45 109 -82 142 -20 18 -33 36 -29 39 11 11 76 -45 97
-84 10 -20 19 -33 20 -29 2 36 -120 163 -180 187 -19 7 -37 15 -40 18 -3 2 -7
124 -10 270 l-6 267 -2 -307 -2 -308 -32 -1 c-31 -2 -31 -2 7 -8 l40 -7 -50
-8 c-234 -38 -287 -323 -78 -418 57 -25 64 -40 10 -22 -99 34 -157 115 -157
222 0 33 4 72 10 87 5 14 6 24 1 21 -4 -3 -14 -26 -21 -51 -14 -50 -8 -120 14
-163 33 -63 136 -141 189 -142 11 0 17 -8 17 -24 0 -23 -2 -24 -37 -14 -91 25
-184 104 -222 188 -32 70 -29 173 7 241 32 62 126 133 191 144 38 6 40 9 45
48 3 23 8 116 11 207 3 91 13 253 20 360 27 360 27 366 16 350 -7 -11 -11 9
-13 74 -2 61 -7 91 -16 94 -7 2 -11 -4 -10 -15 4 -29 -12 -494 -18 -529 l-6
-31 -81 -6 c-72 -5 -225 -42 -215 -52 2 -2 35 5 73 16 38 10 105 22 149 26
l79 6 -7 -79 c-3 -43 -11 -129 -17 -190 -12 -109 -12 -111 -36 -106 -55 10
-253 -124 -208 -142 9 -3 14 -2 10 3 -14 23 149 131 198 131 19 0 22 -25 11
-92 -5 -27 -12 -38 -29 -42 -12 -3 -49 -26 -82 -50 l-60 -44 -79 49 c-44 27
-152 106 -240 175 -87 68 -228 177 -311 241 -151 115 -186 145 -118 103 19
-12 35 -20 35 -17 0 7 -51 39 -66 41 -7 1 -34 18 -60 37 -88 63 -80 52 69 -98
l148 -149 -46 -69 c-72 -111 -135 -303 -135 -415 l0 -37 -97 -6 c-54 -4 -146
-7 -205 -7 l-108 0 -1 28 -1 27 -7 -30 c-6 -27 -10 -30 -51 -33 l-45 -3 30 20
c39 27 38 45 -2 49 -36 4 -37 7 -33 97 5 121 96 385 176 516 41 66 173 238
184 238 3 0 16 -9 29 -20 l24 -20 -30 -32 c-93 -99 -182 -258 -232 -414 -33
-102 -63 -253 -51 -253 4 0 13 33 20 73 31 178 115 374 222 519 76 101 77 102
119 74 50 -34 82 -25 154 44 87 83 210 171 309 221 47 24 86 49 86 55 0 14 59
43 180 89 77 30 238 65 297 65 15 0 23 6 23 16 0 15 -9 16 -68 11 -99 -10
-204 -39 -346 -98 -99 -40 -126 -55 -126 -70 0 -14 -16 -27 -57 -44 -83 -37
-207 -124 -300 -209 -45 -42 -89 -76 -98 -76 -20 0 -75 28 -75 38 0 4 13 16
29 27 16 11 64 51 107 88 103 90 222 169 359 239 192 98 305 135 492 163 71
10 79 13 42 14 -60 1 -190 -23 -293 -56 -185 -58 -480 -230 -639 -371 -79 -71
-117 -88 -151 -70 -18 10 -12 18 65 92 200 193 423 329 689 420 108 36 252 66
324 66 22 0 48 5 56 10 43 27 -211 -7 -339 -46 -190 -58 -398 -162 -556 -279
-81 -60 -198 -163 -236 -208 l-26 -31 -42 34 -42 33 52 53 c44 44 55 51 71 43
25 -13 75 -2 87 19 5 10 5 25 -2 39 -9 21 -6 27 24 54 64 55 242 169 344 219
135 66 321 126 469 152 102 17 148 19 291 15 251 -8 437 -54 647 -160 108 -55
308 -183 308 -198 0 -4 -6 -6 -14 -3 -24 9 -27 -13 -5 -40 l21 -27 23 33 23
33 -26 23 c-104 89 -340 225 -482 277 -170 61 -267 77 -500 81 -159 2 -236 -1
-295 -11z m483 -221 c260 -38 570 -190 765 -374 l69 -65 -35 -30 c-19 -17 -90
-68 -158 -114 -68 -47 -184 -129 -257 -183 -73 -54 -134 -98 -136 -98 -3 0
-39 24 -80 54 -41 30 -104 64 -139 77 l-65 23 -17 128 c-10 71 -16 130 -14
133 3 2 32 -2 64 -10 69 -16 88 -12 24 5 -103 26 -91 6 -116 201 -12 96 -24
195 -28 222 -4 32 -2 47 6 47 6 0 59 -7 117 -16z m-1340 -235 c5 -25 -27 -52
-44 -38 -17 14 -18 31 -2 47 16 16 42 11 46 -9z m-122 -234 c-12 -32 -81 -112
-93 -108 -20 8 -16 26 18 72 17 24 28 45 25 48 -11 12 -37 -8 -70 -54 -35 -48
-35 -48 -15 -69 25 -26 25 -27 -12 -81 -45 -65 -122 -233 -157 -343 -33 -104
-57 -242 -50 -291 5 -29 3 -31 -24 -27 -24 4 -28 1 -28 -19 0 -17 9 -28 33
-38 l32 -14 -32 -1 c-23 0 -33 -5 -33 -15 0 -17 45 -21 55 -5 3 6 30 10 59 10
l53 0 6 -147 c8 -214 53 -395 141 -564 l44 -87 -30 -22 c-16 -12 -27 -24 -24
-27 3 -3 17 4 32 16 15 11 30 21 34 21 5 0 24 -21 43 -47 l35 -47 -26 -38
c-15 -21 -30 -38 -34 -38 -23 0 -136 194 -195 333 -61 145 -108 353 -115 507
-3 73 -2 74 21 75 13 0 26 5 28 11 2 7 -20 12 -62 13 -40 1 -65 -2 -65 -8 0
-9 26 -16 51 -13 3 1 9 -45 12 -101 15 -256 110 -541 250 -750 61 -91 63 -98
28 -131 l-29 -28 -56 79 c-66 91 -183 323 -221 438 -39 116 -74 278 -82 378
-6 85 -17 115 -29 83 -4 -12 -20 -16 -55 -16 -46 0 -49 2 -49 25 0 24 3 25 60
25 47 0 60 3 60 15 0 12 -14 15 -62 16 l-63 0 55 20 c30 10 61 21 69 24 10 4
11 8 2 19 -9 11 -9 16 -1 21 7 4 10 20 8 36 -3 16 1 30 7 33 6 2 19 53 29 112
40 249 170 543 323 732 l36 43 34 -32 c18 -19 32 -38 29 -44z m1516 -289 c29
-13 82 -44 116 -70 l64 -47 -73 -54 -72 -55 -36 22 c-54 32 -57 37 -70 115
-20 127 -18 129 71 89z m-902 -386 c-22 -44 -50 -147 -50 -187 l0 -30 -112 -6
c-62 -4 -146 -7 -187 -7 l-74 0 7 63 c16 144 64 281 138 395 l41 63 128 -127
128 -127 -19 -37z m910 158 c0 -12 -24 -10 -38 4 -20 20 -13 28 13 16 14 -6
25 -15 25 -20z m-766 -245 l107 -103 -6 -55 c-7 -54 -8 -55 -113 -147 -58 -51
-107 -93 -111 -93 -3 0 -14 23 -25 50 -31 78 -30 284 3 383 13 40 27 71 31 70
4 -2 56 -49 114 -105z m152 1 c35 -25 64 -46 64 -47 0 -1 -9 -26 -20 -55 -24
-62 -26 -149 -6 -216 l14 -47 -36 -23 c-21 -12 -102 -63 -182 -113 -166 -103
-271 -171 -279 -179 -3 -3 52 24 123 62 124 65 130 67 142 48 39 -58 37 -58
64 -27 19 21 20 24 4 10 -21 -18 -22 -18 -38 5 -9 12 -16 27 -16 33 0 6 54 38
120 69 l120 59 39 -36 c48 -43 87 -64 138 -75 l38 -8 7 -84 c4 -47 20 -197 34
-335 23 -217 26 -275 20 -440 -3 -104 -9 -227 -12 -272 -5 -60 -4 -83 5 -83 6
0 11 14 11 30 0 27 3 30 33 30 62 0 213 31 315 66 170 56 365 165 491 273 29
25 66 56 82 69 l29 23 37 -25 c20 -14 39 -23 41 -21 19 19 -129 145 -556 474
-150 115 -280 219 -290 230 -14 18 -22 20 -48 12 -29 -8 -30 -8 -26 20 2 16 1
40 -2 54 -6 22 -9 23 -32 15 -14 -6 -40 -10 -57 -9 -24 0 -15 5 34 17 94 25
175 92 193 162 15 53 27 67 52 62 29 -5 30 -21 5 -95 l-20 -57 69 -87 c106
-137 551 -625 648 -713 l67 -60 -65 -61 c-137 -129 -334 -261 -513 -344 -94
-43 -225 -81 -365 -106 l-107 -18 80 4 c91 6 250 42 344 79 181 72 410 220
568 369 l52 49 35 -25 36 -24 -88 -84 c-237 -231 -533 -391 -829 -449 -409
-81 -842 9 -1183 246 -75 52 -121 94 -104 94 6 0 15 -5 22 -12 6 -6 15 -8 19
-4 5 4 -8 22 -27 39 l-34 30 -11 -26 -11 -27 -46 39 c-40 32 -45 40 -33 52 12
12 4 25 -56 92 -38 43 -69 81 -69 85 0 4 16 18 35 31 l35 23 89 -93 c49 -52
92 -91 97 -86 4 4 -32 46 -79 93 -48 48 -87 90 -87 94 0 8 64 60 74 60 3 0 36
-30 73 -67 68 -67 223 -187 239 -185 24 2 9 23 -43 62 -32 24 -71 55 -86 69
-16 14 -36 26 -46 26 -10 0 -41 25 -69 56 l-52 57 287 233 c250 204 376 310
324 273 -9 -6 -119 -94 -246 -195 -126 -102 -262 -210 -301 -241 l-71 -57 -27
28 -26 27 31 43 c31 41 32 41 46 21 8 -11 19 -20 25 -20 6 0 1 11 -12 25 -13
14 -27 25 -31 25 -4 0 -20 -18 -36 -40 -15 -22 -31 -40 -34 -40 -5 0 -69 87
-69 94 0 1 20 17 44 34 l43 31 12 -26 c6 -14 14 -23 17 -20 3 3 0 15 -6 27 -6
12 -9 28 -6 36 3 7 0 13 -6 11 -16 -3 -83 132 -118 238 -41 124 -61 222 -68
339 -5 66 -11 101 -19 104 -18 5 -17 -89 2 -208 20 -122 73 -278 134 -396 l48
-94 -46 -34 -46 -34 -17 26 c-34 51 -98 209 -123 303 -31 118 -55 280 -55 382
0 73 1 77 23 77 12 -1 106 -16 210 -34 l187 -33 0 39 c0 33 3 39 18 34 9 -2
87 -10 172 -16 85 -7 161 -14 168 -16 7 -2 12 -19 12 -39 0 -20 11 -70 25
-111 l25 -75 -77 -73 c-134 -124 -175 -160 -288 -251 -118 -95 -151 -124 -125
-109 8 4 76 49 150 99 74 51 180 118 235 150 55 32 171 105 257 163 l157 105
-5 66 c-7 84 -10 92 -29 85 -12 -5 -15 2 -15 37 0 33 3 40 12 31 16 -16 25
-15 32 3 3 9 -8 31 -29 54 -52 58 -75 111 -48 111 3 0 34 -20 69 -46z m810
-89 c20 -73 19 -77 -22 -73 -33 3 -38 7 -55 52 -10 27 -16 54 -12 60 3 6 15
26 27 44 l21 32 14 -32 c7 -18 20 -55 27 -83z m-255 -42 c31 -65 30 -156 -2
-220 -25 -49 -104 -114 -138 -112 -13 0 -12 2 4 12 46 28 124 116 134 154 21
74 9 143 -35 209 -22 32 -23 36 -6 20 12 -10 31 -39 43 -63z m-181 60 c-1 -27
-31 -216 -35 -224 -11 -17 50 -9 88 11 42 23 45 18 17 -27 -55 -91 -190 -81
-240 18 -40 77 -11 163 69 206 42 22 101 31 101 16z m-1600 -57 c-14 -8 -38
-12 -53 -9 -46 9 -30 23 26 23 50 -1 51 -1 27 -14z m1774 -68 c11 -82 -16
-146 -84 -196 l-35 -26 36 39 c54 59 63 82 63 162 -1 78 10 89 20 21z m696
-82 c0 -121 -57 -321 -127 -443 -64 -113 -65 -114 -103 -59 l-32 47 45 87 c54
105 84 198 91 284 l5 63 -14 -70 c-8 -38 -19 -88 -25 -110 -13 -47 -101 -235
-109 -234 -3 0 -37 48 -76 107 -38 59 -89 131 -113 160 l-43 53 12 58 12 59
151 9 c83 5 190 10 239 11 86 2 87 2 87 -22z m-490 -2 c0 -16 -24 -100 -31
-108 -14 -16 -32 40 -25 78 6 30 11 36 31 36 14 0 25 -3 25 -6z m-222 -431
c43 -32 94 -69 115 -83 20 -14 37 -28 37 -31 0 -23 -247 -115 -264 -98 -5 5
26 269 31 269 2 0 38 -26 81 -57z m330 -236 c86 -62 216 -155 289 -207 73 -52
132 -98 132 -101 1 -12 -154 -130 -244 -186 -208 -130 -473 -223 -636 -223
-58 0 -54 -30 -34 261 17 228 40 447 48 455 3 3 31 11 63 19 64 15 157 54 189
79 11 8 24 16 28 16 4 0 78 -51 165 -113z m-1696 -164 c26 -23 23 -37 -17 -68
-29 -21 -39 -24 -50 -15 -21 17 -19 28 13 65 32 40 31 39 54 18z m-82 -97 c0
-16 -65 -68 -73 -59 -3 3 8 23 25 44 30 37 48 43 48 15z m2391 -122 c13 -16
12 -16 -7 -6 -11 6 -27 19 -35 28 -13 16 -12 16 7 6 11 -6 27 -19 35 -28z"/>
<path d="M2825 3973 c11 -3 24 -11 30 -18 5 -6 47 -22 93 -33 46 -12 116 -35
155 -51 65 -26 111 -31 90 -10 -25 24 -337 122 -377 118 -6 -1 -2 -4 9 -6z"/>
<path d="M3200 3830 c0 -5 27 -23 60 -41 58 -31 60 -33 45 -53 -8 -12 -19 -30
-24 -41 -5 -11 -25 -40 -45 -64 -20 -23 -36 -49 -36 -56 0 -16 52 -61 81 -70
12 -4 26 -2 32 4 8 8 3 11 -19 11 -20 0 -39 10 -58 29 l-28 29 38 51 c36 48
54 62 54 42 0 -4 -9 -21 -21 -37 -18 -25 -17 -24 11 4 25 27 29 36 19 48 -13
15 -3 34 35 65 19 16 19 17 -5 24 -13 4 -50 20 -81 36 -32 15 -58 23 -58 19z"/>
<path d="M3350 3726 c0 -3 27 -24 60 -47 33 -23 60 -44 60 -47 0 -7 -90 -85
-114 -99 -16 -9 -17 -12 -5 -13 9 0 42 23 73 50 31 28 59 50 62 50 3 0 30 -23
60 -51 30 -29 54 -47 54 -41 0 13 -90 95 -170 156 -56 41 -80 54 -80 42z"/>
<path d="M1601 2528 c-3 -68 44 -230 98 -337 47 -93 48 -68 1 30 -36 76 -62
161 -88 289 -7 32 -10 37 -11 18z"/>
<path d="M2359 2227 c-149 -126 -173 -147 -163 -147 5 1 33 20 63 44 l54 44
64 -34 c36 -19 71 -34 79 -34 8 0 14 -4 14 -10 0 -19 -194 -360 -204 -360 -21
0 -120 51 -178 91 l-59 40 -62 -54 c-34 -29 -79 -66 -99 -81 l-37 -28 -22 21
c-51 48 -129 7 -129 -67 0 -103 140 -113 156 -11 4 21 8 39 11 39 2 0 27 -17
56 -38 193 -141 403 -220 607 -227 l105 -4 -89 9 c-231 22 -455 109 -633 245
l-43 33 24 15 c13 9 53 41 90 72 l66 57 68 -43 c37 -23 90 -52 119 -64 31 -12
50 -25 45 -31 -5 -5 -19 -27 -31 -49 -21 -37 -21 -38 -2 -17 11 13 29 35 39
49 l18 25 65 -20 c36 -11 92 -23 124 -26 66 -6 52 -2 -87 29 -43 9 -81 21 -84
26 -11 18 249 314 267 303 5 -3 9 1 9 8 -1 23 -30 221 -33 225 -2 2 -16 -29
-32 -68 -15 -39 -33 -73 -41 -76 -7 -2 -43 10 -80 28 l-67 33 68 63 c94 86 70
79 -36 -10z m-550 -526 c23 -23 22 -76 0 -76 -15 0 -16 18 -4 47 10 26 -27 41
-60 24 l-26 -14 43 -40 43 -41 -25 -9 c-47 -17 -88 20 -81 73 7 52 73 73 110
36z m-19 -27 c0 -8 -9 -14 -20 -14 -22 0 -28 26 -7 33 16 6 27 -1 27 -19z"/>
<path d="M1730 1625 c0 -8 7 -15 16 -15 14 0 14 3 4 15 -7 8 -14 15 -16 15 -2
0 -4 -7 -4 -15z"/>
<path d="M2868 2272 l-27 -18 151 -129 c187 -160 328 -275 336 -275 3 0 -14
16 -39 36 -57 47 -298 294 -347 356 -20 26 -39 47 -42 48 -3 0 -17 -8 -32 -18z"/>
<path d="M2582 1980 c0 -14 2 -19 5 -12 2 6 2 18 0 25 -3 6 -5 1 -5 -13z"/>
<path d="M2592 1920 c0 -14 2 -19 5 -12 2 6 2 18 0 25 -3 6 -5 1 -5 -13z"/>
<path d="M2601 1844 c0 -11 3 -14 6 -6 3 7 2 16 -1 19 -3 4 -6 -2 -5 -13z"/>
<path d="M2611 1774 c0 -11 3 -14 6 -6 3 7 2 16 -1 19 -3 4 -6 -2 -5 -13z"/>
<path d="M2622 1695 c0 -16 2 -22 5 -12 2 9 2 23 0 30 -3 6 -5 -1 -5 -18z"/>
<path d="M2633 1605 c0 -22 2 -30 4 -17 2 12 2 30 0 40 -3 9 -5 -1 -4 -23z"/>
<path d="M2642 1505 c0 -16 2 -22 5 -12 2 9 2 23 0 30 -3 6 -5 -1 -5 -18z"/>
<path d="M1629 1443 l-24 -28 28 24 c25 23 32 31 24 31 -2 0 -14 -12 -28 -27z"/>
<path d="M2652 1430 c0 -14 2 -19 5 -12 2 6 2 18 0 25 -3 6 -5 1 -5 -13z"/>
<path d="M1545 1340 c-16 -16 -26 -32 -24 -35 3 -3 18 9 34 25 16 16 26 32 24
35 -3 3 -18 -9 -34 -25z"/>
<path d="M1590 1363 c0 -27 175 -145 330 -223 193 -97 372 -148 545 -155 94
-4 96 -4 35 5 -271 40 -384 72 -552 154 -94 46 -294 170 -335 209 -13 11 -23
16 -23 10z"/>
<path d="M1827 1350 c-3 -12 0 -20 7 -20 7 0 48 -20 92 -45 107 -61 209 -103
323 -131 117 -29 300 -51 327 -39 15 7 7 10 -36 17 -30 4 -102 15 -159 24
-165 25 -355 97 -503 190 -45 29 -44 29 -51 4z"/>
<path d="M2598 1238 c2 -62 8 -120 14 -128 6 -10 7 12 4 64 -3 43 -6 101 -6
128 0 26 -3 48 -8 48 -4 0 -6 -51 -4 -112z"/>
<path d="M2140 1132 c0 -19 36 -41 58 -35 26 6 29 28 6 37 -23 9 -64 7 -64 -2z"/>
<path d="M2587 1063 c-21 -3 -27 -9 -23 -20 3 -8 6 -39 6 -69 l0 -54 39 0 c62
0 69 59 7 61 l-31 1 30 8 30 7 -27 7 c-36 10 -45 46 -12 46 13 0 24 5 24 10 0
6 -3 9 -7 9 -5 -1 -21 -4 -36 -6z m53 -113 c0 -5 -11 -10 -25 -10 -14 0 -25 5
-25 10 0 6 11 10 25 10 14 0 25 -4 25 -10z"/>
<path d="M3200 1668 c-56 -41 -184 -108 -207 -108 -7 0 -13 -5 -13 -11 0 -21
123 36 220 101 l56 38 59 -69 c33 -38 75 -86 92 -107 18 -20 33 -32 33 -27 0
6 -38 55 -85 109 -47 55 -85 103 -85 108 0 14 -13 7 -70 -34z"/>
<path d="M2936 1574 c-22 -8 -68 -19 -103 -26 -35 -6 -63 -15 -63 -20 0 -9 16
-6 133 24 42 11 80 24 83 29 7 12 -3 10 -50 -7z"/>
<path d="M2602 4228 c-28 -28 2 -78 46 -78 30 0 27 12 -8 33 -41 23 -41 31 -2
35 18 2 30 8 27 13 -9 13 -49 11 -63 -3z"/>
<path d="M2702 4180 c0 -19 2 -27 5 -17 2 9 2 25 0 35 -3 9 -5 1 -5 -18z"/>
<path d="M2591 4106 c-16 -19 -3 -45 25 -52 13 -3 24 -11 24 -16 0 -6 -9 -8
-20 -5 -11 3 -20 1 -20 -5 0 -5 12 -8 27 -6 39 4 41 32 3 48 -31 13 -40 30
-15 30 7 0 18 -7 23 -16 7 -13 11 -14 17 -4 5 8 1 18 -10 27 -24 17 -40 17
-54 -1z"/>
<path d="M2589 3879 c0 -13 -4 -57 -8 -97 -4 -40 -4 -75 0 -78 9 -5 24 185 15
193 -3 4 -6 -5 -7 -18z"/>
<path d="M3700 3797 c0 -23 29 -54 55 -59 34 -7 31 4 -10 41 -40 35 -45 37
-45 18z"/>
<path d="M3950 3743 c0 -14 103 -163 112 -163 11 0 -18 51 -70 123 -33 46 -42
54 -42 40z"/>
<path d="M3751 3706 c-9 -10 -9 -16 -1 -21 12 -7 40 11 40 26 0 14 -26 10 -39
-5z"/>
<path d="M1182 3568 c5 -15 28 -18 29 -3 0 6 -7 12 -17 13 -10 3 -15 -1 -12
-10z"/>
<path d="M2380 3565 c-126 -26 -224 -67 -343 -144 -72 -47 -187 -152 -187
-170 0 -5 26 16 58 48 144 144 366 248 577 270 78 8 79 8 20 9 -33 0 -89 -6
-125 -13z"/>
<path d="M4080 3530 c6 -11 15 -20 21 -20 6 0 6 7 -1 20 -6 11 -15 20 -21 20
-6 0 -6 -7 1 -20z"/>
<path d="M3712 3478 c52 -68 120 -173 144 -220 14 -28 28 -48 30 -45 16 16
-163 297 -189 297 -5 0 2 -15 15 -32z"/>
<path d="M3640 3414 c0 -3 20 -33 44 -67 58 -82 149 -247 148 -270 -1 -22 22
-17 26 6 4 21 -76 159 -150 258 -53 73 -68 88 -68 73z"/>
<path d="M1440 3280 c-17 -28 -27 -36 -36 -29 -8 6 -14 6 -18 1 -3 -6 1 -15 9
-22 10 -9 11 -18 4 -37 -17 -46 13 -20 53 46 34 57 40 81 20 81 -4 0 -18 -18
-32 -40z"/>
<path d="M1780 3286 c0 -2 8 -10 18 -17 15 -13 16 -12 3 4 -13 16 -21 21 -21
13z"/>
<path d="M2455 3185 c-76 -24 -163 -74 -223 -129 l-59 -55 -44 27 c-66 42 -69
44 -69 39 0 -5 214 -143 250 -162 35 -19 -6 12 -67 51 l-66 41 67 56 c81 66
171 112 257 131 48 11 55 14 29 14 -19 0 -53 -6 -75 -13z"/>
<path d="M1342 3093 c-33 -78 -62 -181 -77 -277 -18 -112 -19 -126 -1 -126 9
0 15 21 20 69 8 79 46 230 78 309 28 71 10 94 -20 25z"/>
<path d="M3412 3095 c2 -5 17 -37 34 -70 42 -81 70 -171 90 -285 18 -110 30
-134 20 -42 -14 128 -79 324 -127 382 -11 14 -19 21 -17 15z"/>
<path d="M3857 3052 c-14 -15 -14 -24 -1 -87 8 -38 20 -74 25 -80 8 -7 9 -4 5
10 -7 25 -26 124 -26 138 0 21 17 -8 42 -73 21 -54 52 -165 74 -267 2 -13 11
-23 19 -23 18 0 18 -6 0 78 -16 80 -71 254 -91 295 -17 32 -25 33 -47 9z"/>
<path d="M4264 3008 c17 -85 36 -234 42 -338 4 -65 12 -118 18 -122 6 -4 37
-8 68 -8 42 0 56 3 53 13 -4 8 -22 11 -56 8 -28 -2 -49 1 -46 5 14 23 -62 474
-80 474 -3 0 -3 -15 1 -32z"/>
<path d="M3893 2855 c13 -45 27 -141 27 -181 0 -24 5 -46 10 -49 6 -4 10 6 10
23 0 49 -30 206 -42 217 -7 7 -9 4 -5 -10z"/>
<path d="M2598 2803 c7 -3 16 -2 19 1 4 3 -2 6 -13 5 -11 0 -14 -3 -6 -6z"/>
<path d="M4531 2774 c0 -11 3 -14 6 -6 3 7 2 16 -1 19 -3 4 -6 -2 -5 -13z"/>
<path d="M4548 2565 c15 -554 -198 -1069 -616 -1491 -321 -324 -719 -507
-1190 -545 -299 -25 -640 39 -922 173 -116 55 -150 69 -150 63 0 -17 293 -141
423 -179 522 -151 1087 -69 1536 224 130 84 218 158 342 287 327 339 517 720
574 1151 15 114 20 412 7 445 -4 9 -6 -48 -4 -128z"/>
<path d="M2942 2625 c0 -16 2 -22 5 -12 2 9 2 23 0 30 -3 6 -5 -1 -5 -18z"/>
<path d="M4242 2505 c0 -41 4 -75 8 -75 12 0 16 35 12 98 -6 79 -20 62 -20
-23z"/>
<path d="M3908 2539 c-12 -7 -18 -30 -23 -87 -18 -198 -113 -472 -217 -625
-48 -71 -44 -87 5 -20 119 164 237 498 237 672 0 20 5 42 12 49 16 16 7 23
-14 11z"/>
<path d="M4000 2524 c0 -8 5 -12 10 -9 6 3 10 10 10 16 0 5 -4 9 -10 9 -5 0
-10 -7 -10 -16z"/>
<path d="M4038 2515 c5 -28 22 -24 22 6 0 10 -6 19 -14 19 -9 0 -12 -8 -8 -25z"/>
<path d="M4130 2520 c0 -11 7 -20 15 -20 8 0 12 6 9 14 -4 10 2 12 20 9 16 -3
26 -1 26 6 0 6 -16 11 -35 11 -28 0 -35 -4 -35 -20z"/>
<path d="M4309 2488 c-1 -24 -1 -47 1 -53 1 -5 -4 -48 -10 -95 -24 -167 -82
-328 -229 -634 -44 -93 -81 -170 -81 -172 0 -5 62 -36 64 -32 2 2 37 75 79
163 154 324 195 461 204 685 3 80 9 152 14 160 6 11 8 5 9 -17 0 -18 5 -33 11
-33 7 0 10 12 7 30 -3 20 0 30 9 30 7 0 13 -8 13 -17 0 -15 2 -16 10 -3 17 26
11 30 -45 30 l-55 0 -1 -42z"/>
<path d="M4428 2492 c-2 -24 -1 -45 3 -48 12 -7 19 43 10 68 -7 20 -9 17 -13
-20z"/>
<path d="M822 2105 c0 -11 3 -29 8 -40 11 -25 11 1 0 35 -6 20 -8 21 -8 5z"/>
<path d="M841 2024 c0 -11 3 -14 6 -6 3 7 2 16 -1 19 -3 4 -6 -2 -5 -13z"/>
<path d="M990 1837 c0 -40 171 -331 216 -368 22 -18 19 -12 -48 89 -27 40 -76
121 -109 180 -32 58 -59 103 -59 99z"/>
<path d="M1270 1450 c-19 -16 -29 -29 -23 -30 7 0 27 13 45 30 43 38 23 39
-22 0z"/>
<path d="M4040 1431 c0 -5 -43 -54 -96 -110 l-96 -101 25 -29 c18 -22 27 -27
36 -18 8 8 6 15 -5 28 -15 17 -10 25 75 120 49 56 88 106 85 111 -7 11 -24 10
-24 -1z"/>
<path d="M1412 1194 c-27 -19 -23 -26 43 -73 l45 -32 0 30 c0 27 -41 91 -59
91 -3 0 -17 -7 -29 -16z"/>
<path d="M3750 1124 c-100 -82 -263 -186 -385 -245 -66 -32 -125 -62 -130 -67
-6 -5 -16 -7 -23 -4 -6 2 -12 -2 -12 -9 0 -7 -3 -10 -6 -7 -3 3 -44 -7 -91
-23 -81 -28 -230 -60 -336 -74 -30 -4 -45 -10 -41 -17 5 -7 -4 -9 -24 -6 -18
2 -33 0 -35 -6 -2 -7 -60 -11 -168 -11 -217 1 -335 26 -651 139 -71 24 -128
43 -128 41 0 -12 212 -109 314 -144 215 -74 290 -86 551 -86 261 0 345 13 570
86 199 65 502 228 489 263 -3 8 21 41 55 77 34 35 61 66 61 70 0 4 12 21 26
38 14 17 24 31 22 31 -1 -1 -28 -21 -58 -46z"/>
<path d="M2602 798 c-20 -20 -14 -42 20 -70 30 -24 31 -27 14 -34 -10 -4 -27
-2 -37 5 -15 9 -19 8 -19 -4 0 -8 8 -15 18 -16 14 0 14 -2 -3 -9 -11 -5 -14
-9 -7 -9 7 -1 28 6 47 13 45 19 47 50 5 74 -34 19 -34 37 -1 36 12 0 20 4 18
10 -5 16 -40 19 -55 4z"/>
</g>
</svg>