<?xml version="1.0" standalone="no"?>
<!DOCTYPE svg PUBLIC "-//W3C//DTD SVG 20010904//EN"
 "http://www.w3.org/TR/2001/REC-SVG-20010904/DTD/svg10.dtd">
<svg version="1.0" xmlns="http://www.w3.org/2000/svg"
 width="512.000000pt" height="512.000000pt" viewBox="0 0 512.000000 512.000000"
 preserveAspectRatio="xMidYMid meet">
<metadata>
Created by potrace 1.16, written by Peter Selinger 2001-2019
</metadata>
<g transform="translate(0.000000,512.000000) scale(0.100000,-0.100000)"
fill="#000000" stroke="none">
<path d="M2386 4451 c-102 -5 -120 -9 -130 -25 -22 -37 -58 -76 -71 -76 -7 0
-15 9 -18 21 -5 18 -10 20 -39 14 -36 -8 -48 -20 -48 -48 0 -11 -8 -29 -18
-42 l-18 -23 -25 44 c-13 25 -31 44 -41 44 -22 0 -138 -49 -160 -68 -10 -8
-18 -27 -18 -42 0 -34 -51 -61 -79 -42 -32 24 -40 23 -100 -15 -50 -31 -61
-43 -61 -65 0 -63 -45 -101 -85 -72 -20 15 -55 2 -55 -19 0 -7 -24 -31 -54
-55 -29 -23 -62 -60 -72 -82 -16 -34 -24 -40 -50 -40 -42 0 -139 -99 -129
-131 9 -28 -22 -62 -51 -55 -25 7 -31 0 -104 -107 -37 -55 -50 -81 -43 -88 12
-12 0 -68 -16 -79 -6 -3 -26 -41 -46 -84 -26 -58 -34 -87 -30 -108 11 -47 -3
-85 -35 -96 -26 -9 -30 -18 -50 -107 -22 -96 -22 -109 1 -218 11 -53 11 -59
-8 -80 -16 -17 -22 -42 -27 -110 -6 -78 -5 -93 14 -132 24 -50 30 -165 8 -165
-12 0 -10 -51 7 -130 15 -69 33 -107 68 -142 9 -10 17 -30 18 -45 4 -120 6
-130 52 -220 25 -50 54 -94 64 -97 28 -10 50 -47 55 -94 3 -23 10 -47 15 -54
5 -7 27 -37 48 -65 22 -29 45 -53 52 -53 18 0 106 -86 100 -97 -8 -13 79 -95
135 -127 26 -15 57 -40 70 -56 13 -17 27 -30 31 -30 4 0 24 -16 44 -35 20 -19
40 -32 44 -29 5 3 9 0 9 -7 0 -7 3 -10 6 -7 3 3 22 -9 42 -28 20 -19 43 -34
50 -34 6 0 12 -4 12 -10 0 -5 7 -10 15 -10 8 0 15 -5 15 -11 0 -5 4 -8 9 -5 5
3 14 -1 21 -9 6 -8 27 -19 46 -25 30 -10 38 -9 55 6 18 17 20 17 34 -2 8 -10
15 -26 15 -35 0 -24 19 -37 98 -63 l71 -25 26 20 c21 17 25 18 25 5 0 -15 53
-34 135 -50 17 -4 41 -9 55 -12 14 -3 90 -7 169 -10 135 -4 146 -3 163 16 21
22 38 19 38 -7 0 -14 11 -15 83 -9 92 8 157 20 166 33 3 4 35 9 71 9 36 1 87
10 115 21 46 17 50 22 56 58 3 22 7 32 8 21 1 -12 6 -16 16 -12 9 3 18 -1 21
-9 10 -24 44 -17 123 25 57 30 78 37 88 28 10 -8 26 -4 66 17 80 43 79 41 67
125 -6 41 -12 75 -14 77 -2 2 -36 -15 -75 -39 l-71 -43 0 -51 c0 -52 0 -52
-45 -73 -25 -12 -49 -21 -53 -21 -5 0 -18 18 -31 40 -12 22 -26 42 -32 45 -5
4 -30 -1 -54 -11 l-45 -17 0 -63 0 -63 -37 -10 c-53 -15 -50 -16 -78 39 -26
50 -36 56 -82 44 -20 -6 -23 -13 -23 -59 0 -58 1 -57 -72 -70 -37 -6 -38 -5
-63 45 l-25 50 -95 0 -95 0 -25 -50 c-24 -48 -27 -50 -68 -50 -56 0 -63 7 -77
63 -17 64 -40 63 -76 -3 -19 -35 -32 -49 -43 -46 -9 3 -33 8 -53 12 -36 6 -38
8 -39 48 -1 22 -2 50 -3 61 -1 10 -12 25 -26 32 -23 11 -28 9 -70 -32 -51 -50
-58 -52 -101 -29 -30 15 -30 16 -24 70 l7 54 -53 25 -54 24 -42 -41 -41 -41
-37 23 c-35 21 -36 24 -30 64 4 22 9 48 11 57 3 11 -8 24 -31 39 l-36 23 -33
-32 c-38 -37 -39 -37 -78 -10 -31 23 -31 19 -12 110 5 22 0 31 -28 53 -19 14
-38 26 -42 26 -4 0 -22 -12 -41 -26 -38 -29 -58 -24 -93 21 l-20 25 26 49 26
48 -42 51 -43 51 -47 -14 c-62 -19 -58 -20 -87 22 l-25 37 40 41 c22 22 40 44
40 48 0 4 -14 29 -31 57 l-31 50 -64 0 c-60 0 -64 2 -79 30 -22 43 -19 57 20
91 l34 30 -20 52 c-12 29 -30 82 -41 118 -22 71 -32 79 -108 79 -24 0 -28 5
-34 38 -9 57 -9 58 35 72 23 8 43 19 46 26 2 6 -2 63 -9 125 l-13 113 -48 14
-47 13 0 50 c0 32 4 49 13 49 6 0 29 5 49 11 40 11 51 29 18 29 -17 0 -20 7
-20 40 0 38 2 40 24 34 23 -5 24 -3 31 55 4 33 4 65 0 71 -3 5 -24 19 -46 31
-38 19 -39 21 -33 57 10 54 11 55 73 48 49 -5 53 -5 32 6 -32 17 -44 51 -26
75 13 17 14 17 37 -4 l24 -23 17 53 17 52 -42 36 -42 36 13 42 c12 41 13 42
49 35 20 -3 45 -8 54 -10 13 -4 24 9 45 50 l27 55 -38 46 c-40 48 -42 69 -12
108 14 18 16 18 61 -2 26 -12 53 -21 61 -21 12 0 74 68 74 82 0 4 -14 29 -30
55 l-30 47 29 30 30 29 42 -27 42 -28 34 34 34 34 -23 42 -23 41 32 32 32 32
35 -26 c19 -15 40 -27 47 -27 6 0 40 23 76 52 50 41 63 57 59 73 -21 73 -19
89 12 108 38 22 35 22 76 -13 l34 -31 67 33 66 33 -3 50 c-3 48 -2 50 32 67
l35 17 33 -38 33 -39 107 35 c59 19 118 37 132 41 21 6 26 16 34 60 8 45 12
52 32 52 16 0 24 -7 26 -22 4 -32 58 -39 58 -9 0 18 6 21 40 21 34 0 40 -3 40
-21 0 -28 34 -21 38 9 3 20 9 22 62 22 l59 0 13 -47 c13 -45 16 -48 51 -51 35
-3 38 -1 59 42 32 67 85 62 97 -9 4 -27 13 -40 29 -46 19 -7 25 -4 39 26 9 19
21 35 27 35 22 0 86 -21 86 -28 0 -4 -16 -72 -35 -152 -42 -174 -43 -197 -12
-210 12 -5 60 -25 107 -45 122 -53 113 -53 146 -1 16 25 31 46 34 46 15 0 70
-42 70 -54 0 -7 -9 -35 -21 -61 -15 -34 -18 -50 -10 -58 6 -6 11 -7 11 -2 0 6
4 16 9 23 10 16 48 -11 192 -133 100 -85 156 -154 227 -280 27 -50 56 -90 64
-89 19 1 98 52 98 63 0 18 -100 160 -160 226 -35 39 -98 100 -139 138 l-76 67
-50 -6 c-83 -9 -121 45 -43 61 18 4 57 22 85 41 60 39 69 40 94 18 17 -15 20
-15 49 10 37 31 48 32 57 9 3 -10 24 -35 47 -55 l41 -37 -18 -31 c-17 -29 -18
-33 -3 -55 20 -30 26 -31 77 -5 43 23 69 17 89 -21 9 -17 7 -26 -14 -54 -31
-40 -32 -55 -7 -86 l19 -24 53 18 54 17 22 -25 c30 -34 29 -46 -7 -80 -37 -36
-37 -46 -1 -115 l29 -55 60 3 60 4 12 -38 c12 -36 12 -37 -25 -69 l-38 -31 30
-90 30 -89 50 -3 c55 -3 68 -12 78 -53 6 -24 2 -30 -45 -55 -42 -23 -50 -32
-46 -48 3 -12 11 -70 18 -130 l12 -109 48 -20 c50 -20 56 -32 42 -85 -6 -22
-9 -23 -113 -20 l-106 3 -7 120 c-12 184 -11 181 -69 211 -36 18 -54 35 -65
59 -22 54 -18 72 16 80 21 5 30 13 30 26 0 20 -60 179 -92 242 -20 41 -16 41
-110 -3 l-26 -12 28 -64 c43 -94 88 -242 107 -349 l17 -95 45 -17 c25 -9 52
-21 59 -26 24 -18 11 -53 -42 -114 -47 -54 -55 -69 -66 -130 -6 -37 -21 -108
-32 -158 l-21 -89 34 -29 c19 -16 51 -37 71 -48 l37 -19 21 68 c18 56 60 271
60 303 0 6 26 9 58 7 l57 -3 -2 -61 -2 -60 45 -29 c62 -39 58 -66 -11 -80 -55
-12 -50 -3 -95 -153 l-22 -74 21 -22 c12 -12 18 -25 14 -29 -3 -4 1 -15 11
-25 15 -18 15 -22 -5 -70 -23 -55 -21 -54 -90 -36 -12 3 -31 -20 -68 -83 l-52
-88 19 -65 19 -65 -26 -37 -26 -37 -50 29 c-59 34 -56 30 -97 145 -22 63 -43
102 -71 132 l-40 43 -33 -37 c-25 -28 -32 -44 -28 -62 4 -18 -4 -33 -33 -63
l-37 -38 20 -21 21 -20 36 40 36 40 20 -28 21 -29 -22 -28 c-34 -46 -121 -134
-133 -134 -5 0 -27 32 -48 70 l-38 70 -45 -32 c-48 -34 -52 -45 -29 -86 31
-58 31 -57 66 -28 l33 28 17 -24 c17 -22 17 -24 -7 -49 -13 -14 -24 -31 -24
-38 0 -9 80 -158 96 -180 2 -2 36 24 75 57 61 52 76 60 104 57 26 -4 38 2 70
35 30 31 36 43 27 52 -7 7 -12 15 -12 18 0 9 93 6 108 -4 13 -8 63 41 109 107
l27 38 -22 61 -22 61 28 51 c26 45 34 51 65 54 19 2 42 11 50 20 15 17 77 161
77 179 0 5 -11 20 -25 33 -30 29 -31 39 -4 118 21 63 24 65 84 74 16 3 22 15
29 66 9 63 9 63 -22 90 -28 24 -31 31 -24 62 6 27 16 39 45 53 l37 17 0 85 0
84 -60 27 c-84 37 -94 52 -30 46 l50 -5 0 36 c0 26 -7 41 -25 55 -36 28 -32
56 11 81 25 15 34 26 30 39 -3 9 -10 44 -16 78 -15 79 -19 84 -66 91 -49 7
-61 17 -69 55 -5 22 -2 37 13 57 l20 27 -28 73 c-37 95 -56 123 -83 121 -38
-3 -46 -1 -57 20 -9 16 -7 26 8 48 28 40 18 96 -25 150 -25 30 -40 41 -52 37
-9 -4 -29 -9 -45 -12 l-30 -6 22 34 21 35 -46 53 c-33 38 -51 51 -65 48 -25
-7 -58 11 -103 55 -35 34 -36 37 -26 74 11 39 11 39 -37 84 -26 25 -73 62
-104 83 l-56 39 -40 -21 c-45 -23 -51 -20 -61 32 -5 22 -18 37 -52 55 l-45 26
-36 -27 c-41 -32 -50 -33 -89 -10 -25 15 -29 23 -29 61 0 43 0 43 -56 68 -53
24 -57 24 -75 8 -16 -15 -23 -15 -43 -4 -13 7 -26 21 -29 31 -3 12 -24 23 -62
34 -52 15 -58 15 -74 1 -23 -21 -28 -20 -34 3 -5 20 -60 41 -109 41 -22 0 -32
-8 -48 -41 -23 -45 -29 -44 -45 4 -15 47 -38 50 -289 38z m842 -215 l3 -65
-42 14 c-23 9 -44 13 -46 11 -4 -4 36 -20 138 -56 35 -13 37 -12 72 26 l35 39
37 -18 37 -18 -6 -52 c-6 -49 -5 -54 18 -66 22 -12 30 -11 72 13 51 29 49 29
112 -22 l24 -19 -24 -27 c-23 -27 -24 -27 -53 -11 -30 17 -31 17 -77 -14 -88
-59 -96 -59 -190 -3 -107 64 -168 94 -248 122 -36 13 -69 27 -74 31 -9 8 20
147 34 162 4 5 17 4 28 -2 18 -9 22 -8 28 12 13 44 22 47 72 28 l47 -19 3 -66z
m747 -1046 c21 -24 32 -104 15 -115 -27 -17 -94 95 -75 125 10 16 41 11 60
-10z m145 -689 c0 -52 -3 -61 -21 -66 -14 -5 -27 -1 -37 9 -15 14 -15 17 1 28
9 7 23 30 32 51 8 20 17 37 20 37 3 0 5 -27 5 -59z m-250 -965 c0 -7 14 -25
30 -41 35 -34 40 -53 8 -31 -29 21 -35 20 -48 -5 -9 -16 -8 -26 4 -44 22 -33
20 -48 -8 -75 l-25 -23 -46 27 -46 28 -32 -26 c-18 -14 -46 -36 -63 -50 l-31
-25 -17 36 c-21 45 -21 46 120 186 l109 108 23 -26 c12 -14 22 -32 22 -39z"/>
<path d="M2264 4283 c-48 -6 -63 -31 -75 -124 -15 -108 -15 -109 -37 -109 -14
0 -21 9 -26 31 -5 28 -9 31 -35 26 -45 -9 -204 -81 -282 -127 -158 -94 -336
-259 -466 -430 -100 -134 -97 -150 5 -22 84 105 206 223 285 275 31 21 103 60
160 87 84 41 103 47 105 33 6 -26 -30 -64 -81 -83 -147 -56 -384 -295 -504
-507 -19 -35 -36 -63 -39 -63 -12 0 -74 35 -74 42 0 5 7 23 16 40 9 16 11 27
5 24 -29 -19 -155 -291 -149 -323 2 -9 23 -23 48 -33 44 -18 45 -19 43 -61 -1
-23 -6 -46 -11 -51 -6 -6 -31 -5 -63 1 -30 5 -58 6 -62 1 -5 -4 -14 -40 -20
-80 -15 -96 -10 -100 134 -100 l106 0 7 83 c26 297 155 581 366 801 90 95 213
192 292 232 l48 24 -30 60 c-16 33 -30 64 -30 70 0 6 25 22 55 36 l55 25 55
-46 c59 -51 73 -53 147 -22 26 11 37 25 50 64 18 51 33 63 85 63 32 0 36 14
28 96 l-7 74 -36 -2 c-21 0 -51 -3 -68 -5z m-1037 -1490 c-3 -10 -5 -4 -5 12
0 17 2 24 5 18 2 -7 2 -21 0 -30z"/>
<path d="M2520 4280 c0 -5 5 -31 11 -58 l10 -49 122 -12 c67 -6 131 -14 142
-17 16 -4 24 2 38 31 21 44 21 59 2 75 -32 26 -325 54 -325 30z"/>
<path d="M2551 3954 c-24 -30 -26 -52 -10 -87 11 -25 47 -47 75 -47 24 0 74
56 74 83 0 42 -36 77 -80 77 -30 0 -43 -6 -59 -26z m94 -43 c0 -47 -27 -63
-57 -34 -19 19 -20 26 -10 48 10 21 18 26 40 23 23 -3 27 -7 27 -37z"/>
<path d="M2356 3765 c-121 -25 -259 -81 -349 -143 l-28 -19 22 -14 c21 -14 19
-17 -78 -102 -89 -78 -180 -173 -223 -232 -7 -11 9 2 38 29 28 28 54 47 58 44
3 -4 -19 -45 -50 -92 -65 -97 -113 -202 -152 -331 -21 -73 -27 -117 -31 -231
-8 -225 24 -342 143 -521 57 -86 229 -267 278 -293 31 -16 40 -12 110 44 l36
28 62 -34 c34 -19 63 -39 65 -45 2 -6 -10 -27 -26 -46 l-31 -35 64 -18 c47
-13 68 -25 75 -41 13 -29 61 -31 85 -5 24 28 102 14 128 -22 16 -21 28 -26 64
-26 38 0 45 4 59 30 9 16 17 30 18 30 146 26 146 26 162 11 35 -35 125 -17
139 27 8 24 79 47 103 33 14 -7 -7 -20 -98 -65 -240 -116 -476 -134 -716 -54
-226 75 -440 245 -588 468 -38 58 -70 106 -70 106 0 1 -10 5 -22 8 -22 7 -22
7 6 -57 88 -196 304 -412 524 -523 170 -86 334 -120 541 -111 184 8 343 54
487 140 30 19 72 37 92 41 56 11 151 72 209 135 110 120 192 273 240 449 32
117 32 370 -1 502 -111 450 -446 805 -869 921 -101 28 -371 36 -476 14z m289
-164 c15 -47 18 -49 56 -53 39 -4 42 -2 66 40 23 38 29 43 52 37 42 -11 51
-24 51 -76 0 -44 3 -50 30 -64 40 -21 43 -20 88 26 33 35 44 41 66 35 31 -8
33 -24 6 -77 -34 -65 -7 -80 47 -27 27 26 37 30 50 22 33 -21 38 -40 18 -83
-14 -33 -15 -43 -5 -55 10 -13 15 -13 37 1 21 14 28 15 46 3 12 -7 35 -16 52
-20 19 -3 36 -17 48 -38 18 -31 18 -31 -9 -80 l-27 -48 44 -80 45 -79 53 0
c41 0 56 -4 67 -19 26 -36 17 -60 -36 -99 l-50 -38 4 -122 c3 -67 5 -127 5
-134 1 -6 30 -21 65 -33 78 -25 91 -39 79 -77 -8 -24 -17 -29 -62 -36 -54 -9
-73 -26 -86 -78 -6 -23 0 -32 39 -64 37 -30 45 -42 40 -59 -13 -44 -26 -49
-90 -32 l-59 16 -37 -43 c-52 -59 -55 -72 -21 -114 15 -19 38 -49 51 -67 l23
-31 -35 -32 c-20 -18 -40 -33 -45 -33 -5 0 -34 21 -65 46 l-56 46 -47 -35
c-27 -19 -74 -49 -105 -67 -56 -31 -58 -33 -58 -74 0 -74 -52 -93 -86 -31 -10
20 -24 33 -30 31 -7 -3 -49 -12 -94 -22 -78 -17 -82 -19 -101 -56 -12 -24 -29
-40 -45 -44 -30 -8 -38 -1 -53 47 -12 39 -30 49 -86 49 -23 0 -35 -8 -54 -35
-19 -28 -28 -34 -45 -29 -29 9 -36 22 -36 71 0 33 -4 43 -20 48 -11 3 -27 14
-37 23 -9 9 -53 38 -97 64 l-81 47 -40 -39 c-45 -44 -60 -48 -87 -23 -23 21
-23 42 2 73 28 36 25 72 -12 119 -30 38 -36 41 -68 36 -114 -19 -107 -19 -123
11 -15 28 -15 30 26 72 l41 42 -56 0 c-65 0 -91 18 -86 58 2 18 16 33 48 52
36 22 44 31 42 51 -7 49 -27 66 -88 72 -61 6 -74 16 -74 58 0 20 9 29 46 47
26 13 43 26 39 30 -3 4 -25 14 -48 23 -38 15 -42 20 -42 50 0 33 2 35 73 59
69 24 73 27 83 63 14 51 5 73 -42 104 -43 28 -46 40 -23 84 15 30 16 30 84 25
l68 -4 36 58 c65 104 232 242 377 310 66 30 159 57 219 62 l35 3 2 -90 c3
-103 10 -138 23 -130 12 8 13 215 1 234 -8 12 -23 11 -102 -3 -158 -29 -346
-132 -460 -253 l-53 -56 -58 63 c-49 53 -58 69 -58 100 0 32 8 44 59 93 63 60
82 67 119 41 28 -19 28 -38 1 -55 -20 -14 -20 -15 21 -47 45 -37 42 -37 110
17 23 18 24 22 12 53 -20 56 -16 87 14 100 24 11 29 9 61 -26 35 -38 35 -38
72 -24 35 14 36 16 33 63 -3 56 10 75 49 75 23 0 32 -7 49 -40 19 -36 23 -39
53 -34 52 9 54 11 62 51 9 50 11 53 45 53 25 0 30 -6 45 -49z m911 -825 c1 0
5 -11 8 -23 6 -19 2 -25 -19 -33 -46 -18 -74 -13 -81 15 -11 43 0 54 48 48 24
-3 44 -6 44 -7z m-1 -126 c7 -22 -3 -80 -13 -80 -21 0 -72 42 -72 59 0 39 74
57 85 21z m-45 -330 c-12 -23 -21 -25 -38 -8 -20 20 -14 28 18 28 28 0 30 -2
20 -20z m-125 -220 c28 -29 28 -30 10 -50 -17 -19 -19 -19 -38 -3 -31 28 -40
52 -26 69 16 20 21 18 54 -16z m-197 -220 l23 -35 -28 -22 c-15 -13 -31 -23
-35 -23 -4 0 -20 19 -35 41 l-27 41 24 20 c31 25 49 20 78 -22z"/>
<path d="M2675 3447 c-4 -23 -5 -69 -3 -102 l3 -60 65 -17 c36 -10 96 -33 133
-53 37 -19 79 -35 93 -35 17 0 28 -7 31 -20 9 -36 29 -21 55 40 l26 59 -32 29
c-67 58 -248 142 -307 142 -18 0 -35 17 -27 26 10 10 163 -38 230 -72 77 -38
181 -108 211 -142 17 -19 17 -20 -12 -45 -16 -13 -69 -48 -116 -77 -87 -54
-102 -66 -91 -77 6 -6 127 72 212 136 l41 30 26 -27 c42 -44 94 -139 122 -222
27 -82 50 -247 40 -288 -6 -24 -6 -24 -93 -17 -82 7 -112 16 -112 36 0 5 32 9
70 9 l70 0 0 38 c0 113 -56 279 -110 330 -22 21 -24 21 -52 4 -16 -9 -41 -29
-55 -44 l-26 -27 44 -58 c45 -60 78 -138 79 -185 0 -24 -4 -28 -29 -28 -17 0
-31 -6 -35 -16 -10 -25 -7 -72 5 -79 13 -9 238 -65 257 -65 13 0 14 17 8 108
-17 281 -62 404 -205 556 -114 120 -307 221 -478 250 -31 5 -32 4 -38 -37z"/>
<path d="M2423 3414 c-78 -16 -210 -84 -270 -139 l-46 -41 72 -62 c39 -34 94
-78 121 -99 l49 -36 -46 -51 c-43 -47 -103 -155 -103 -183 0 -24 18 -13 31 20
27 66 64 118 81 114 9 -3 24 7 37 23 27 37 114 79 179 87 40 4 52 10 52 23 0
22 34 32 66 20 20 -8 24 -16 24 -52 0 -42 1 -44 56 -72 33 -18 75 -52 106 -87
46 -53 52 -57 76 -48 21 8 29 7 39 -7 15 -21 26 -87 21 -138 -3 -35 -7 -41
-38 -51 -27 -9 -36 -18 -38 -38 -2 -15 2 -27 7 -27 16 0 -13 -64 -49 -109
l-29 -38 24 -23 c13 -12 25 -32 27 -44 3 -19 8 -16 50 26 102 101 150 274 117
417 -49 212 -261 372 -477 359 -44 -3 -103 -15 -137 -27 -91 -34 -92 -34 -114
-12 -31 31 -29 84 4 99 14 7 33 12 42 12 14 0 14 -2 -3 -15 -17 -15 -16 -15
11 -2 17 8 54 22 83 31 l52 18 0 78 c0 43 -3 81 -7 83 -5 2 -36 -2 -70 -9z
m477 -459 c26 -31 -13 -82 -44 -56 -16 14 -22 52 -9 64 11 12 40 8 53 -8z"/>
<path d="M2000 3080 c-87 -128 -131 -268 -131 -421 0 -86 4 -126 17 -167 2 -9
15 -6 48 10 l44 21 -5 88 c-9 138 19 248 94 368 33 51 35 52 53 36 18 -16 17
-19 -20 -92 -22 -42 -44 -101 -51 -132 -11 -54 -7 -216 7 -288 6 -31 5 -32
-75 -73 l-82 -41 -14 35 c-24 57 -36 125 -45 246 l-8 115 3 -135 c2 -106 8
-151 26 -208 12 -40 25 -71 28 -69 72 39 169 80 200 84 33 5 41 2 50 -16 9
-16 9 -21 -1 -21 -7 0 -61 -23 -120 -52 -92 -44 -108 -55 -108 -75 0 -22 3
-23 40 -17 28 5 40 3 40 -5 0 -10 38 -72 66 -109 3 -4 172 126 180 139 3 6
-15 41 -40 78 -69 99 -88 157 -93 281 -6 118 12 192 69 284 24 40 27 51 16 61
-7 6 -43 40 -80 74 l-66 62 -42 -61z m210 -773 c0 -7 -5 -19 -10 -27 -8 -13
-13 -13 -37 0 -34 19 -42 58 -16 77 16 12 21 11 41 -12 12 -14 22 -31 22 -38z"/>
<path d="M2483 2889 c-84 -41 -127 -118 -121 -214 3 -48 10 -70 33 -102 88
-123 232 -135 341 -29 81 79 93 159 38 253 -59 103 -188 143 -291 92z m145
-24 c92 -39 155 -148 131 -225 -41 -128 -189 -182 -286 -104 -77 62 -99 123
-78 208 27 107 133 162 233 121z"/>
<path d="M1841 2814 c0 -11 3 -14 6 -6 3 7 2 16 -1 19 -3 4 -6 -2 -5 -13z"/>
<path d="M2199 2684 c-11 -37 8 -131 42 -200 40 -86 119 -166 196 -201 103
-48 275 -41 347 13 19 14 19 15 -10 56 -38 55 -57 61 -52 17 3 -33 2 -33 -52
-46 -68 -17 -135 -10 -222 20 -75 26 -93 39 -113 78 -10 19 -20 26 -34 22 -15
-4 -24 6 -44 49 -27 58 -45 121 -49 178 -2 27 -4 30 -9 14z"/>
<path d="M3104 2515 c-50 -162 -176 -275 -359 -324 l-60 -16 -3 -179 -2 -179
50 7 c66 9 181 44 199 61 12 12 12 17 1 30 -7 9 -18 14 -24 12 -23 -9 -53 12
-59 41 -10 47 -30 62 -74 51 -62 -14 -63 -14 -63 46 0 51 2 55 28 61 15 3 40
10 56 15 36 11 38 9 66 -66 27 -76 33 -83 68 -77 17 2 33 -2 41 -12 12 -14 17
-13 54 5 23 12 57 33 76 47 29 22 36 23 55 12 19 -12 25 -8 77 49 31 35 76 96
99 137 48 84 106 242 93 255 -8 8 -201 62 -264 74 l-37 7 -18 -57z m171 -74
c-26 -74 -90 -185 -130 -225 -14 -13 -11 -18 26 -48 l41 -33 -27 -22 c-34 -30
-46 -29 -81 8 -38 40 -91 72 -104 64 -19 -12 -80 5 -80 21 0 8 28 41 63 74
l62 59 38 -37 38 -37 25 30 c14 17 43 67 64 112 33 67 43 80 59 76 18 -5 18
-8 6 -42z m-205 -369 c0 -13 -3 -12 -20 3 -11 10 -17 22 -14 27 8 12 34 -11
34 -30z"/>
<path d="M3090 2246 c0 -2 8 -10 18 -17 15 -13 16 -12 3 4 -13 16 -21 21 -21
13z"/>
<path d="M2310 2188 c38 -32 122 -68 190 -80 53 -10 60 -14 60 -35 0 -19 -5
-23 -32 -23 -60 1 -186 53 -269 112 -13 9 -31 0 -97 -47 -45 -32 -83 -64 -86
-71 -7 -18 -1 -18 27 1 20 13 27 11 100 -36 84 -54 162 -87 275 -114 39 -9 72
-21 72 -27 0 -5 -8 -7 -17 -5 -10 3 -36 8 -58 11 -31 4 -35 3 -18 -4 13 -5 45
-12 73 -16 l50 -7 0 130 0 130 -86 21 c-47 11 -107 35 -135 52 -56 34 -86 40
-49 8z"/>
<path d="M3520 3648 c41 -45 50 -53 50 -45 0 2 -21 23 -47 47 l-48 45 45 -47z"/>
<path d="M1116 2560 c-16 -5 -45 -24 -64 -42 l-34 -33 6 -72 c12 -148 55 -307
121 -451 l35 -75 47 6 c27 3 73 9 103 13 l55 6 17 -35 17 -36 -49 -41 c-28
-23 -50 -48 -50 -56 0 -14 56 -104 101 -162 l17 -23 33 46 c36 50 48 54 74 25
14 -16 17 -36 16 -112 l-2 -93 38 -36 c85 -81 295 -220 310 -205 4 3 4 7 2 9
-2 2 -42 27 -89 57 -99 64 -195 142 -210 170 -25 46 6 36 83 -27 87 -71 215
-158 247 -168 19 -6 160 69 160 85 0 4 -12 10 -27 13 -33 7 -184 100 -267 164
-53 42 -60 45 -80 33 -74 -47 -73 -47 -100 -20 -22 20 -25 29 -20 59 4 20 13
51 21 70 13 33 12 36 -17 70 -63 75 -173 248 -220 345 -72 150 -109 282 -135
479 l-6 47 -52 -1 c-29 0 -65 -5 -81 -9z m33 -233 c7 -34 22 -95 33 -136 21
-72 21 -74 3 -87 -10 -8 -22 -14 -27 -14 -14 0 -67 213 -68 270 0 20 5 26 24
28 21 1 25 -4 35 -61z m68 -366 l23 -52 -22 3 c-16 2 -27 15 -39 48 -30 81 3
82 38 1z"/>
<path d="M3860 1981 l-40 -80 33 -20 c18 -11 43 -31 56 -45 14 -14 30 -26 38
-26 7 0 31 35 52 79 l40 78 -22 20 c-12 11 -43 32 -69 47 l-48 27 -40 -80z"/>
<path d="M2600 1440 c-41 -41 -12 -120 45 -120 31 0 75 41 75 70 0 29 -44 70
-75 70 -14 0 -34 -9 -45 -20z m64 -16 c20 -8 21 -48 2 -63 -11 -9 -20 -10 -35
-1 -24 12 -26 23 -11 51 11 20 19 23 44 13z"/>
<path d="M3211 1364 c-104 -53 -216 -88 -345 -110 -161 -27 -402 -14 -578 31
-23 6 -28 3 -34 -19 -3 -14 -10 -23 -16 -20 -5 3 -48 -20 -96 -51 -80 -54 -84
-58 -66 -72 22 -16 190 -70 247 -79 20 -4 37 -3 37 2 -2 40 -32 142 -49 165
-21 28 -21 29 -3 29 11 0 44 -5 73 -10 183 -36 387 -32 551 10 43 11 79 20 81
20 3 0 -2 -26 -9 -57 -14 -59 -18 -125 -9 -135 18 -17 353 131 390 172 17 19
17 22 1 65 -17 42 -69 107 -84 103 -4 -1 -45 -20 -91 -44z m108 -114 l10 -30
-87 -44 c-81 -40 -199 -86 -222 -86 -14 0 -12 56 3 68 6 6 47 24 90 41 43 17
100 42 125 56 61 31 68 31 81 -5z"/>
<path d="M2542 1048 c3 -20 10 -23 53 -26 28 -2 92 -1 143 3 81 6 92 9 92 26
0 18 -9 19 -146 19 -145 0 -145 0 -142 -22z"/>
</g>
</svg>