<?xml version="1.0" standalone="no"?>
<!DOCTYPE svg PUBLIC "-//W3C//DTD SVG 20010904//EN"
 "http://www.w3.org/TR/2001/REC-SVG-20010904/DTD/svg10.dtd">
<svg version="1.0" xmlns="http://www.w3.org/2000/svg"
 width="512.000000pt" height="512.000000pt" viewBox="0 0 512.000000 512.000000"
 preserveAspectRatio="xMidYMid meet">
<metadata>
Created by potrace 1.16, written by Peter Selinger 2001-2019
</metadata>
<g transform="translate(0.000000,512.000000) scale(0.100000,-0.100000)"
fill="white" stroke="none">
<path d="M2706 4573 c-17 -36 -17 -38 0 -50 11 -8 25 -10 34 -6 41 20 258 -20
341 -63 20 -11 92 -48 159 -82 168 -87 255 -140 389 -240 306 -226 568 -572
701 -924 19 -49 37 -88 42 -88 5 0 26 9 48 20 l38 20 -28 73 c-212 550 -742
1075 -1255 1242 -43 14 -89 34 -100 45 -20 18 -170 59 -275 75 -25 3 -52 8
-61 11 -10 3 -21 -8 -33 -33z"/>
<path d="M2375 4568 c-277 -31 -618 -155 -865 -315 -109 -71 -210 -151 -210
-167 0 -7 10 -22 23 -34 l23 -22 75 56 c98 74 263 173 373 223 185 86 454 161
579 161 34 0 46 7 95 55 l56 55 -34 -1 c-19 -1 -71 -6 -115 -11z"/>
<path d="M2493 4406 c-37 -29 -52 -34 -120 -40 -130 -10 -191 -26 -358 -93
-193 -77 -271 -118 -435 -228 -206 -138 -430 -353 -537 -517 -68 -103 -146
-260 -184 -368 l-22 -65 25 -40 c14 -22 28 -53 33 -70 7 -27 10 -22 31 57 50
187 168 433 275 574 51 68 58 80 37 68 -7 -4 25 32 72 80 179 184 405 333 620
410 104 38 76 17 -45 -33 -185 -77 -380 -207 -546 -366 -52 -49 -76 -75 -54
-57 370 301 625 440 930 509 135 30 400 42 547 24 277 -32 533 -136 761 -307
119 -90 327 -292 402 -392 74 -99 215 -370 219 -422 2 -19 9 -52 16 -74 7 -21
10 -53 7 -72 -3 -19 -2 -34 1 -34 15 0 41 -58 57 -125 39 -168 28 -416 -25
-555 -16 -41 -43 -121 -60 -178 -120 -398 -467 -790 -875 -988 -55 -27 -101
-52 -103 -56 -2 -4 -11 -4 -20 -1 -12 3 -14 2 -4 -4 30 -22 -6 -51 -96 -78
-51 -16 -82 -41 -82 -65 0 -29 -21 -38 -130 -54 -244 -36 -422 -31 -675 18
-66 13 -122 22 -124 21 -2 -2 19 -10 45 -19 27 -8 42 -15 33 -15 -9 -1 -42 9
-75 20 -32 12 -79 23 -104 25 -100 7 -425 198 -569 334 l-54 51 27 27 c14 16
26 35 26 43 0 20 -83 123 -137 172 -86 79 -215 302 -268 466 -17 52 -32 81
-41 81 -8 0 -19 12 -25 27 -8 22 -7 30 5 38 13 10 12 25 -6 126 -27 145 -29
456 -5 589 l15 85 -26 54 c-15 30 -32 56 -39 58 -19 6 -55 -122 -60 -214 -5
-81 -5 -83 26 -118 29 -33 31 -41 31 -111 l0 -76 -35 22 -34 21 -7 -26 c-4
-15 -3 -66 0 -113 23 -281 103 -520 266 -792 39 -64 70 -121 70 -126 0 -5 -18
-25 -40 -44 l-40 -35 28 -33 28 -34 43 36 c24 20 47 36 51 36 9 0 130 -131
130 -140 0 -4 -15 -21 -33 -38 l-34 -33 -62 66 -61 66 -44 -35 c-56 -47 -87
-47 -134 0 l-35 35 46 47 46 47 -51 80 c-85 136 -170 332 -208 482 -7 29 -19
47 -39 59 -24 14 -28 23 -28 63 0 25 -4 121 -8 214 l-8 167 41 0 c44 0 75 22
70 49 -3 16 -66 53 -109 64 -20 5 -21 10 -16 56 3 28 2 51 -3 51 -23 0 -100
58 -111 84 -12 27 -13 28 -20 8 -4 -12 -13 -88 -20 -169 -78 -991 506 -1875
1459 -2207 57 -20 106 -36 108 -36 11 0 2 75 -16 133 -23 76 -49 101 -149 151
-83 42 -114 49 -145 35 -33 -16 -56 -8 -161 52 -122 70 -374 262 -323 245 10
-3 31 2 46 11 l29 17 144 -96 c163 -109 334 -204 396 -220 38 -11 47 -9 112
21 l70 32 108 -21 c372 -72 784 -35 1096 99 48 21 54 29 37 49 -6 6 -7 10 -4
7 8 -5 143 63 232 116 108 67 242 171 351 275 112 106 128 128 112 148 -8 10
-39 -15 -134 -108 -139 -137 -308 -262 -461 -342 l-102 -53 -28 18 -28 19 98
51 c190 97 356 222 508 381 58 61 75 84 67 94 -8 9 -2 21 24 46 l34 33 50 -38
51 -37 -20 -25 c-12 -15 -18 -34 -14 -47 4 -17 -18 -44 -113 -137 -65 -63
-138 -131 -163 -151 -44 -36 -44 -37 -32 -70 6 -19 12 -42 12 -50 0 -53 -334
-243 -559 -318 -284 -95 -629 -122 -933 -75 -123 20 -158 16 -158 -18 0 -27
75 -205 95 -226 11 -12 15 -8 23 25 6 22 12 48 14 59 4 23 3 23 146 7 282 -32
611 2 861 90 192 67 418 189 451 244 12 19 68 74 124 121 169 146 299 269 372
354 226 264 353 577 380 937 l7 90 -32 7 c-18 4 -34 5 -35 3 -1 -1 -8 -52 -14
-113 -7 -60 -21 -145 -31 -188 l-18 -78 28 -15 28 -14 -25 -73 c-28 -80 -163
-359 -192 -396 -18 -23 -20 -23 -45 -6 -15 9 -27 21 -27 26 0 5 15 32 34 61
37 58 116 212 116 227 0 4 -21 18 -47 29 l-48 21 -16 -27 c-9 -15 -38 -66 -65
-114 -26 -48 -61 -102 -76 -120 l-27 -33 -35 34 c-20 19 -36 38 -36 42 0 4 21
43 47 86 26 43 61 115 78 161 18 45 34 85 38 88 3 4 26 -1 51 -9 l46 -16 21
70 c22 71 20 99 -5 99 -9 0 -21 -23 -33 -62 -10 -34 -24 -63 -32 -66 -10 -3
-12 1 -8 19 4 13 12 51 19 84 6 33 13 61 13 63 1 1 18 -4 38 -13 l35 -15 12
53 c6 28 14 89 17 135 3 47 11 86 19 92 14 12 176 -5 208 -22 17 -9 18 -18 12
-100 -29 -389 -171 -722 -430 -1010 -78 -87 -96 -112 -96 -138 0 -40 -23 -84
-72 -138 -22 -24 -37 -46 -34 -49 15 -15 165 111 276 234 176 192 314 447 395
728 54 188 81 441 70 653 l-7 132 -64 -6 c-74 -8 -67 -17 -85 111 -8 62 -14
82 -19 65 -5 -20 -8 -14 -19 35 -19 82 -25 54 -12 -52 16 -125 14 -333 -1
-338 -7 -2 -34 -6 -59 -10 l-46 -6 -6 158 c-4 87 -13 192 -22 233 -19 98 -57
220 -68 220 -5 0 -22 -13 -39 -30 -36 -36 -38 -37 -38 -5 0 16 11 32 30 47 17
12 30 27 30 33 0 19 -70 187 -113 269 -26 51 -60 97 -95 130 -29 28 -77 80
-105 116 -53 68 -330 346 -401 404 -66 54 -185 131 -264 170 -142 72 -414 146
-532 146 -28 0 -43 8 -70 35 -29 30 -40 35 -79 35 -37 0 -54 -7 -88 -34z m372
-121 c291 -50 582 -198 792 -401 l78 -75 -85 72 c-311 262 -638 394 -1007 407
-94 3 -153 9 -153 15 0 14 262 2 375 -18z m-2285 -1945 c12 -196 44 -364 92
-483 19 -47 31 -84 27 -82 -12 8 -67 147 -88 226 -29 107 -51 293 -50 422 2
141 5 124 19 -83z"/>
<path d="M3020 4424 c19 -8 73 -32 119 -51 231 -99 449 -245 651 -437 111
-106 135 -126 122 -101 -16 31 -198 204 -292 276 -162 126 -345 230 -502 287
-99 35 -148 48 -98 26z"/>
<path d="M2070 4391 c-312 -92 -641 -290 -875 -528 -47 -48 -75 -70 -75 -59 0
9 43 61 95 115 l94 97 -19 29 c-10 16 -27 29 -37 30 -10 1 -28 5 -39 9 -18 5
-35 -7 -98 -76 -77 -83 -77 -83 -71 -129 5 -44 3 -47 -63 -131 -80 -98 -173
-245 -214 -337 -16 -35 -28 -64 -26 -66 2 -1 21 -12 43 -23 l39 -20 56 112
c53 105 134 235 188 301 35 43 224 217 312 288 198 159 434 288 656 358 71 23
138 45 149 49 l20 9 -20 0 c-11 0 -63 -13 -115 -28z"/>
<path d="M2375 4169 c-409 -43 -833 -277 -1079 -598 -261 -340 -371 -865 -275
-1309 25 -113 35 -135 84 -182 l36 -35 -14 35 c-47 111 -82 377 -74 554 10
226 56 410 151 611 115 244 325 502 509 629 52 36 59 38 82 26 22 -12 33 -9
114 28 140 66 283 109 419 128 l123 18 24 -25 24 -24 -30 -205 c-25 -170 -48
-447 -49 -586 l0 -31 43 8 c104 20 237 5 316 -35 l34 -18 108 113 109 114 -28
64 c-30 70 -51 85 -171 116 -95 24 -103 22 -99 -27 l3 -41 67 -18 c76 -21 172
-62 182 -77 4 -6 -26 2 -65 19 -73 30 -180 61 -187 55 -2 -2 -6 -64 -10 -138
l-7 -133 -7 195 c-3 107 -17 290 -31 405 -15 132 -21 216 -15 227 5 10 21 21
36 25 36 9 171 -12 279 -43 91 -25 329 -137 373 -174 19 -17 15 -16 -20 5
-142 83 -278 140 -418 175 -116 29 -179 31 -198 6 -8 -11 -12 -27 -10 -35 3
-9 8 -49 12 -89 8 -83 11 -86 94 -97 109 -14 314 -94 385 -149 32 -25 8 -18
-36 10 -89 56 -218 102 -356 128 l-73 14 0 -37 c0 -20 4 -42 9 -50 5 -8 51
-24 102 -37 98 -25 222 -79 275 -119 l32 -24 79 87 c43 48 105 117 137 154
l58 68 45 -33 c70 -50 231 -222 305 -327 77 -108 166 -280 203 -389 14 -41 25
-80 25 -87 0 -6 -22 -26 -50 -44 -55 -36 -56 -39 -38 -137 17 -92 8 -99 -124
-95 -88 3 -105 6 -139 29 -27 18 -59 28 -106 33 -63 6 -259 -2 -364 -16 -26
-3 -49 -2 -52 3 -3 5 2 9 11 9 9 -1 79 5 155 13 l138 14 -6 31 c-12 58 -53
165 -79 211 l-27 45 -49 -39 c-76 -60 -198 -133 -210 -126 -20 13 -8 31 56 80
61 47 76 65 54 65 -6 0 -46 -18 -90 -40 l-80 -40 45 -61 c25 -33 50 -78 56
-98 13 -45 1 -74 -59 -144 -34 -39 -39 -51 -41 -100 -3 -100 -47 -193 -129
-269 -27 -25 -64 -53 -83 -62 -33 -16 -33 -16 -9 1 155 107 236 328 184 504
-47 162 -198 283 -368 296 -178 14 -318 -60 -442 -233 -55 -77 -82 -89 -160
-75 -32 6 -96 11 -143 11 -47 0 -135 5 -195 11 -108 10 -113 10 -191 -16 -44
-14 -102 -29 -128 -32 -45 -6 -51 -4 -85 30 -31 30 -46 36 -98 42 l-62 7 -7
-53 c-13 -91 -7 -329 9 -434 37 -228 97 -385 219 -570 45 -68 236 -267 249
-259 5 3 -31 49 -78 102 -48 53 -106 124 -129 157 -45 62 -118 194 -129 232
-7 23 -1 26 99 38 l50 6 44 -77 c53 -92 143 -213 204 -272 40 -39 47 -43 67
-32 18 9 25 8 41 -6 10 -9 20 -15 22 -13 1 2 26 32 55 66 55 65 61 80 37 89
-17 7 -20 30 -6 39 5 3 22 0 38 -7 38 -16 37 -16 25 -31 -9 -11 2 -23 51 -59
117 -86 282 -157 425 -182 l32 -5 0 47 0 47 -87 23 c-110 28 -229 84 -314 149
-60 45 -67 48 -87 35 -18 -12 -24 -11 -52 9 -21 16 -30 30 -28 45 2 13 -11 36
-32 60 -19 22 -47 54 -61 72 l-26 34 -90 -51 c-89 -50 -127 -65 -88 -35 11 9
52 32 90 51 39 19 71 37 73 38 7 6 -33 75 -42 75 -6 0 -42 -20 -79 -45 -138
-90 -98 -49 54 57 l106 74 -18 36 c-23 44 -69 201 -69 234 0 22 4 24 49 24
l48 0 13 -77 c14 -91 17 -100 35 -107 12 -4 202 48 213 59 3 2 -2 7 -10 10 -9
4 -55 -10 -104 -29 -48 -20 -90 -36 -93 -35 -14 1 186 98 203 98 14 1 17 6 12
24 -3 12 -9 39 -12 60 l-7 37 37 0 c34 0 36 2 36 34 0 21 20 74 52 138 132
264 369 368 595 261 99 -46 179 -147 208 -261 21 -79 15 -98 -33 -106 -71 -11
-72 -11 -72 47 -1 91 -67 195 -154 239 -49 25 -138 34 -193 19 -54 -15 -130
-67 -162 -111 -23 -32 -20 -31 25 11 73 70 125 93 209 93 107 1 194 -53 240
-149 21 -44 31 -135 21 -188 -7 -38 -60 -105 -109 -138 -19 -13 -14 -5 15 20
83 74 109 169 69 257 -102 225 -401 203 -452 -34 -7 -31 -14 -59 -15 -61 -2
-2 -15 6 -30 18 -15 12 -28 20 -30 19 -9 -10 22 -131 44 -172 27 -49 102 -118
143 -131 11 -4 18 -9 16 -12 -9 -8 -101 44 -129 74 -34 36 -78 129 -79 168 0
17 -4 39 -9 50 -18 41 -10 -37 11 -122 17 -65 19 -91 11 -127 -9 -43 -8 -46
22 -75 17 -16 58 -46 91 -67 33 -20 51 -33 40 -29 -11 4 -40 11 -64 16 -79 16
-155 80 -206 174 -35 65 -53 83 -93 91 -32 6 -32 6 -26 -27 6 -29 23 -82 59
-184 5 -17 -16 14 -53 74 -7 12 -25 9 -108 -18 -127 -41 -133 -44 -116 -72 7
-11 12 -22 10 -23 -2 -2 -30 -22 -63 -46 -33 -24 -62 -45 -64 -47 -3 -2 0 -8
7 -15 8 -8 23 -3 59 20 l48 31 33 -54 c19 -30 37 -55 41 -55 3 0 49 31 101 70
52 38 99 70 105 70 6 0 6 -3 0 -9 -10 -10 -162 -119 -190 -136 -14 -9 -11 -15
24 -49 l39 -39 93 92 c107 105 136 108 58 5 l-53 -69 53 45 c29 25 62 52 73
61 l21 16 -21 15 c-24 16 -82 87 -82 99 0 16 33 39 57 39 14 0 76 -25 138 -55
128 -62 173 -74 265 -75 157 0 299 76 382 204 22 34 44 80 50 103 11 37 14 40
34 33 37 -14 77 3 96 41 l18 34 0 -30 c0 -16 -5 -47 -9 -69 l-9 -38 111 -53
112 -54 7 42 c3 23 7 70 7 105 l1 62 33 0 c17 0 128 7 246 16 209 15 214 15
240 -4 24 -18 26 -24 23 -86 -4 -61 -2 -67 23 -88 15 -13 40 -34 56 -48 l30
-25 -24 -95 c-31 -120 -85 -251 -147 -358 -54 -90 -144 -213 -184 -251 -28
-27 -34 -51 -12 -51 29 0 166 168 242 297 89 150 148 312 179 488 24 133 25
374 2 515 -9 58 -19 121 -21 140 -32 241 -184 526 -396 739 -313 315 -793 471
-1285 420z m492 -65 c-3 -3 -12 -4 -19 -1 -8 3 -5 6 6 6 11 1 17 -2 13 -5z
m60 -10 c-3 -3 -12 -4 -19 -1 -8 3 -5 6 6 6 11 1 17 -2 13 -5z m124 -28 c186
-54 362 -145 493 -255 97 -81 229 -229 300 -336 50 -75 156 -275 156 -292 -1
-5 -26 42 -58 102 -75 145 -132 229 -234 345 -193 219 -397 349 -677 431 -53
15 -89 28 -80 28 9 1 54 -10 100 -23z m-457 -483 l7 -353 -39 0 -40 0 4 43 c2
23 11 114 19 202 8 88 18 236 21 330 4 93 10 160 14 150 4 -11 10 -179 14
-372z m-1041 209 c-145 -133 -275 -313 -375 -517 -27 -55 -46 -89 -42 -75 22
81 133 278 222 394 48 63 237 256 250 256 4 -1 -21 -26 -55 -58z m1054 -109
c-2 -16 -4 -3 -4 27 0 30 2 43 4 28 2 -16 2 -40 0 -55z m31 -828 c98 -41 148
-155 109 -248 -35 -81 -105 -129 -191 -129 -42 0 -47 -2 -27 -10 62 -23 177
32 222 106 10 17 19 25 19 18 0 -25 -91 -111 -136 -128 -92 -35 -202 5 -252
91 -19 34 -22 52 -20 112 3 61 8 78 33 114 56 79 157 109 243 74z m-1105 -162
c-13 -2 -35 -2 -50 0 -16 2 -5 4 22 4 28 0 40 -2 28 -4z m426 -13 c31 0 33 -2
21 -14 -30 -29 -82 -33 -250 -20 -91 7 -168 13 -172 14 -5 0 -8 4 -8 10 0 10
183 19 299 13 41 -1 90 -3 110 -3z m1616 -12 c-38 -4 -133 -14 -211 -21 -118
-10 -146 -10 -177 2 -20 7 -37 18 -37 22 0 5 111 8 248 8 195 -1 232 -3 177
-11z m-798 -50 c-3 -8 -6 -5 -6 6 -1 11 2 17 5 13 3 -3 4 -12 1 -19z m-1303
-43 c76 -8 139 -15 141 -17 1 -2 8 -32 14 -68 7 -36 26 -105 43 -154 l30 -89
-25 -25 -25 -25 -17 39 c-24 55 -65 220 -65 260 0 18 -5 36 -11 39 -10 7 -222
36 -226 31 -1 -1 0 -12 4 -24 6 -25 16 -28 127 -41 79 -9 96 -19 96 -55 0 -18
-6 -18 -82 -12 -182 14 -175 12 -194 70 -9 28 -23 59 -32 69 -14 16 -12 17 34
17 27 0 111 -7 188 -15z m1033 -221 c-3 -3 -12 -4 -19 -1 -8 3 -5 6 6 6 11 1
17 -2 13 -5z m46 -51 c-7 -2 -21 -2 -30 0 -10 3 -4 5 12 5 17 0 24 -2 18 -5z"/>
<path d="M2345 4048 c-198 -24 -477 -130 -552 -210 l-23 -24 71 -103 c61 -88
133 -161 160 -161 4 0 32 14 61 32 29 17 63 37 75 44 l21 13 -43 98 c-23 54
-45 109 -49 123 l-7 25 20 -23 c11 -12 30 -53 42 -90 12 -37 28 -81 35 -99
l14 -32 59 24 c33 14 89 30 124 37 l64 12 17 136 c26 215 27 212 -89 198z
m-290 -331 c-33 -23 -161 -91 -152 -82 12 13 151 95 162 95 5 0 1 -6 -10 -13z"/>
<path d="M2370 3693 c-81 -13 -289 -102 -332 -140 -14 -12 -15 -19 -7 -30 16
-18 39 -17 39 3 0 23 24 11 28 -14 l3 -22 47 24 c59 30 175 71 225 80 32 6 37
11 37 34 0 15 3 37 6 50 7 23 5 24 -46 15z"/>
<path d="M3373 3574 l-92 -129 43 -45 c24 -25 55 -62 71 -82 15 -21 33 -38 40
-38 17 0 173 106 214 146 34 32 34 33 17 58 -9 15 -58 69 -109 122 l-92 96
-92 -128z"/>
<path d="M2740 3679 c0 -8 8 -29 18 -47 15 -30 28 -37 113 -65 l96 -32 -13 49
c-15 56 -20 60 -89 80 -88 26 -125 30 -125 15z"/>
<path d="M1506 3535 c-31 -37 -56 -71 -56 -76 0 -5 68 -49 152 -99 l152 -90
62 64 c86 87 161 148 168 137 3 -5 -6 -17 -21 -26 -15 -10 -66 -56 -115 -103
l-88 -85 -50 27 c-47 26 -50 26 -50 7 0 -10 -5 -21 -12 -23 -6 -2 24 -28 67
-56 75 -50 105 -58 105 -30 0 7 52 63 115 125 63 62 115 117 115 122 0 17 -46
65 -103 107 -32 24 -62 44 -66 44 -3 0 -6 -20 -6 -44 0 -34 -7 -52 -25 -71
-51 -55 -102 -67 -166 -40 -41 17 -79 88 -69 128 5 18 2 26 -12 31 -10 3 -23
8 -29 11 -6 3 -36 -24 -68 -60z m300 -306 c8 -14 -11 -33 -25 -25 -11 7 -4 36
9 36 5 0 12 -5 16 -11z"/>
<path d="M3120 3495 c-10 -12 7 -34 107 -132 165 -163 245 -294 288 -470 l18
-73 44 0 c50 0 49 -11 12 130 -24 89 -113 276 -138 290 -10 5 -51 48 -90 95
-69 82 -94 98 -118 74 -8 -8 -22 4 -52 45 -45 60 -52 64 -71 41z"/>
<path d="M2321 3464 c-73 -25 -161 -70 -161 -82 0 -4 23 -38 50 -77 28 -38 61
-85 73 -102 25 -37 39 -40 91 -18 l36 15 -1 123 c-1 67 -4 132 -7 144 l-7 22
-74 -25z"/>
<path d="M1399 3398 c-79 -109 -136 -226 -183 -376 -36 -114 -35 -129 11 -149
21 -8 48 -24 62 -34 18 -14 40 -19 90 -19 l67 0 27 95 c14 52 40 128 57 168
33 80 88 173 96 164 3 -3 -6 -23 -20 -44 -47 -70 -112 -241 -140 -366 -7 -28
-6 -28 35 -25 49 4 49 4 84 123 15 50 46 129 70 177 l43 86 -52 44 c-28 24
-68 57 -89 72 -26 20 -36 34 -32 46 4 13 -7 26 -40 49 -25 17 -48 31 -50 31
-3 0 -19 -19 -36 -42z"/>
<path d="M3550 3334 c-76 -56 -93 -74 -68 -74 16 0 161 105 166 120 8 22 -27
5 -98 -46z"/>
<path d="M3580 3300 c-47 -33 -91 -60 -98 -60 -8 0 -3 -14 13 -38 39 -59 91
-190 116 -291 l22 -90 96 6 c53 3 102 11 109 17 33 32 -61 334 -147 473 l-27
42 -84 -59z"/>
<path d="M2055 3302 c-33 -27 -77 -70 -98 -95 l-37 -46 62 -44 c83 -58 133
-87 148 -87 7 0 21 11 32 25 11 14 39 39 64 56 24 16 44 34 44 38 0 11 -90
148 -90 137 0 -5 14 -33 31 -63 17 -30 29 -56 27 -59 -3 -2 -27 39 -54 91 -27
52 -54 95 -59 95 -6 0 -37 -22 -70 -48z"/>
<path d="M3004 3308 c-22 -24 -58 -65 -80 -93 -21 -27 -46 -57 -54 -65 -13
-13 -8 -22 49 -75 35 -33 56 -48 47 -33 -10 15 -29 34 -43 43 -13 9 -22 19
-19 23 4 3 27 -14 51 -38 l45 -44 37 18 c21 10 80 43 131 73 l93 54 -24 32
c-13 18 -55 58 -93 90 l-68 58 -21 -28 c-11 -15 -47 -62 -81 -103 -33 -41 -65
-83 -71 -94 -6 -10 -13 -14 -16 -9 -3 5 24 47 60 93 115 149 129 174 57 98z"/>
<path d="M687 3171 c-41 -127 -68 -252 -66 -309 l1 -37 8 35 c4 19 13 61 20
92 10 51 14 57 38 60 16 2 31 12 37 26 8 17 18 22 47 22 44 0 50 16 17 46 -21
19 -21 43 -4 109 4 14 -4 27 -27 46 l-33 26 -38 -116z"/>
<path d="M1674 3118 c-21 -40 -50 -111 -65 -158 l-27 -84 28 -17 c15 -10 30
-23 33 -31 8 -21 23 2 36 55 9 39 37 107 97 242 2 6 -12 22 -31 38 l-35 27
-36 -72z"/>
<path d="M2233 3092 c-51 -41 -79 -70 -72 -76 2 -2 33 23 69 55 73 67 75 78 3
21z"/>
<path d="M1838 3023 c-34 -63 -78 -181 -78 -208 0 -8 41 -15 130 -21 l131 -9
10 40 c6 22 18 53 26 69 l15 28 -89 84 c-48 45 -93 83 -98 84 -6 0 -27 -30
-47 -67z"/>
<path d="M1976 3082 c5 -5 35 -32 66 -62 48 -44 60 -51 73 -40 8 7 15 16 15
20 0 9 -138 90 -153 90 -7 0 -7 -3 -1 -8z"/>
<path d="M4111 2934 c0 -11 3 -14 6 -6 3 7 2 16 -1 19 -3 4 -6 -2 -5 -13z"/>
<path d="M4482 2900 c0 -14 2 -19 5 -12 2 6 2 18 0 25 -3 6 -5 1 -5 -13z"/>
<path d="M4122 2865 c0 -16 2 -22 5 -12 2 9 2 23 0 30 -3 6 -5 -1 -5 -18z"/>
<path d="M1577 2843 c-15 -14 -6 -23 24 -23 27 0 30 2 19 15 -13 16 -32 19
-43 8z"/>
<path d="M4133 2760 c0 -25 2 -35 4 -22 2 12 2 32 0 45 -2 12 -4 2 -4 -23z"/>
<path d="M902 2770 c0 -14 2 -19 5 -12 2 6 2 18 0 25 -3 6 -5 1 -5 -13z"/>
<path d="M4204 2610 c0 -85 2 -120 3 -77 2 42 2 112 0 155 -1 42 -3 7 -3 -78z"/>
<path d="M894 2570 c0 -74 1 -105 3 -67 2 37 2 97 0 135 -2 37 -3 6 -3 -68z"/>
<path d="M4143 2600 c0 -25 2 -35 4 -22 2 12 2 32 0 45 -2 12 -4 2 -4 -23z"/>
<path d="M3678 2553 c-40 -3 -48 -8 -48 -24 0 -25 -16 -25 -23 1 -3 11 -12 20
-20 20 -12 0 -17 -17 -23 -67 -4 -38 -15 -97 -25 -133 l-18 -65 25 -22 c14
-13 33 -23 42 -23 19 0 92 -56 92 -71 0 -16 -48 -10 -94 13 -35 17 -43 25 -35
35 9 10 6 18 -12 33 -13 10 -28 19 -34 19 -5 1 -21 -25 -34 -55 -14 -31 -42
-83 -62 -115 l-38 -59 60 -50 c74 -62 65 -66 -13 -5 -66 52 -84 46 -73 -27 6
-41 4 -45 -34 -82 l-41 -40 -22 21 -23 21 -65 -49 c-113 -85 -280 -161 -387
-176 -25 -3 -46 -11 -48 -17 -25 -85 -17 -92 89 -67 119 28 221 73 324 141
109 71 122 85 96 105 -10 8 -14 15 -7 15 6 0 15 -5 18 -10 4 -6 10 -8 14 -6 4
3 41 -26 82 -64 88 -83 84 -93 -6 -14 l-64 55 -48 -38 c-27 -21 -81 -58 -121
-82 -39 -24 -72 -45 -72 -47 0 -3 21 -46 46 -97 25 -50 41 -87 36 -82 -6 6
-29 47 -52 93 -22 45 -43 82 -45 82 -2 0 -28 -9 -57 -21 -29 -12 -93 -31 -143
-43 l-90 -23 -8 -74 c-4 -41 -6 -101 -5 -134 l3 -60 55 3 c77 4 211 37 305 75
66 27 79 36 77 52 -15 89 -18 81 35 110 131 75 187 118 298 230 129 131 200
232 261 374 46 105 83 255 91 363 l6 88 -59 -2 c-32 -1 -80 -3 -106 -5z"/>
<path d="M4133 2470 c0 -25 2 -35 4 -22 2 12 2 32 0 45 -2 12 -4 2 -4 -23z"/>
<path d="M3126 2443 c-3 -4 -6 -14 -6 -22 0 -12 34 -28 127 -58 129 -43 152
-44 53 -3 -30 12 -80 37 -112 55 -31 19 -59 31 -62 28z"/>
<path d="M4192 2395 c0 -16 2 -22 5 -12 2 9 2 23 0 30 -3 6 -5 -1 -5 -18z"/>
<path d="M903 2375 c0 -22 2 -30 4 -17 2 12 2 30 0 40 -3 9 -5 -1 -4 -23z"/>
<path d="M4122 2380 c0 -14 2 -19 5 -12 2 6 2 18 0 25 -3 6 -5 1 -5 -13z"/>
<path d="M3072 2323 c-22 -38 -53 -81 -70 -96 l-29 -28 101 -99 100 -100 34
33 c54 51 152 204 152 237 0 5 -7 10 -16 10 -10 0 -14 6 -11 14 5 11 -21 25
-99 55 -58 23 -109 41 -113 41 -5 0 -27 -30 -49 -67z m63 -173 c39 -40 61 -68
50 -62 -11 6 -51 43 -90 82 -38 40 -61 68 -50 62 11 -6 52 -43 90 -82z"/>
<path d="M911 2317 c-2 -31 48 -246 75 -325 65 -192 168 -364 322 -537 49 -55
87 -105 85 -112 -7 -17 161 -163 312 -272 97 -69 124 -84 70 -39 -192 160
-401 373 -515 526 -159 214 -277 463 -330 697 -10 44 -19 72 -19 62z"/>
<path d="M4111 2314 c0 -11 3 -14 6 -6 3 7 2 16 -1 19 -3 4 -6 -2 -5 -13z"/>
<path d="M4091 2224 c0 -11 3 -14 6 -6 3 7 2 16 -1 19 -3 4 -6 -2 -5 -13z"/>
<path d="M3585 2210 c-7 -12 60 -43 78 -37 7 2 -4 14 -23 25 -40 25 -46 26
-55 12z"/>
<path d="M2915 2148 c-60 -46 -151 -86 -236 -104 l-76 -17 -7 -211 c-16 -519
-28 -577 -40 -191 -4 116 -9 254 -13 307 l-6 97 -41 6 c-91 15 -214 63 -258
102 -16 14 -24 9 -98 -57 -44 -40 -80 -78 -80 -85 0 -34 203 -154 288 -171 17
-4 32 -10 32 -15 0 -34 -190 44 -285 116 -31 24 -51 33 -57 27 -14 -14 82 -84
173 -126 67 -31 100 -42 182 -60 l28 -7 -7 104 c-5 70 -3 110 4 123 9 15 11 3
12 -57 0 -89 23 -329 49 -514 13 -91 29 -160 55 -230 21 -55 41 -103 45 -108
7 -7 52 229 72 377 6 43 14 89 19 101 7 18 4 25 -13 34 l-22 12 22 -5 c12 -2
24 2 27 10 3 8 -1 14 -11 14 -13 0 -15 8 -9 46 3 26 6 57 6 70 0 17 6 24 20
24 21 0 23 16 21 180 -1 47 1 51 10 30 6 -15 8 -58 3 -112 l-7 -88 26 0 c43 0
159 40 237 82 62 33 111 67 172 118 4 3 -38 51 -95 107 l-102 102 -40 -31z
m-63 -175 c37 -83 49 -113 43 -113 -6 0 -41 69 -65 130 -29 73 -14 61 22 -17z
m-518 -47 c-10 -42 -19 -74 -22 -72 -2 3 4 39 14 80 10 42 19 74 22 72 2 -3
-4 -39 -14 -80z"/>
<path d="M1852 1809 c2 -7 10 -15 17 -17 8 -3 12 1 9 9 -2 7 -10 15 -17 17 -8
3 -12 -1 -9 -9z"/>
<path d="M1821 1703 l-61 -68 44 -41 c49 -45 181 -118 234 -129 43 -9 48 -25
23 -66 -12 -19 -21 -39 -21 -46 0 -30 321 -104 360 -83 22 12 25 43 14 186
l-7 82 -41 6 c-143 23 -293 92 -462 212 -21 14 -24 12 -83 -53z"/>
<path d="M1379 1643 c31 -45 151 -175 151 -164 0 13 -87 117 -135 161 l-38 35
22 -32z"/>
<path d="M1660 1535 c-40 -42 -70 -79 -66 -82 7 -7 156 136 156 149 0 19 -21
3 -90 -67z"/>
<path d="M3545 1514 c-33 -30 -101 -84 -152 -121 -51 -37 -90 -69 -88 -71 11
-12 314 199 322 224 10 31 -28 16 -82 -32z"/>
<path d="M3605 1470 c-364 -291 -666 -410 -1038 -410 -278 0 -515 74 -762 238
-49 32 -108 73 -129 91 -22 17 -41 29 -44 26 -11 -11 66 -79 165 -145 177
-119 359 -193 552 -225 135 -23 401 -16 536 13 249 54 497 183 705 364 69 60
133 130 118 128 -2 -1 -48 -37 -103 -80z"/>
<path d="M1545 1440 c10 -11 20 -20 23 -20 3 0 -3 9 -13 20 -10 11 -20 20 -23
20 -3 0 3 -9 13 -20z"/>
<path d="M1513 1408 c3 -9 11 -34 16 -55 15 -54 37 -84 114 -151 120 -106 391
-230 607 -277 85 -19 365 -31 464 -21 51 6 73 14 103 37 l37 30 -79 -8 c-44
-4 -150 -8 -235 -7 -247 2 -383 35 -625 154 -208 102 -318 178 -367 254 -22
33 -38 53 -35 44z"/>
<path d="M2998 1003 c7 -3 16 -2 19 1 4 3 -2 6 -13 5 -11 0 -14 -3 -6 -6z"/>
<path d="M1820 995 c0 -7 81 -47 86 -43 2 3 -17 14 -41 26 -25 12 -45 20 -45
17z"/>
<path d="M2958 993 c7 -3 16 -2 19 1 4 3 -2 6 -13 5 -11 0 -14 -3 -6 -6z"/>
<path d="M2908 983 c6 -2 18 -2 25 0 6 3 1 5 -13 5 -14 0 -19 -2 -12 -5z"/>
<path d="M2868 973 c7 -3 16 -2 19 1 4 3 -2 6 -13 5 -11 0 -14 -3 -6 -6z"/>
</g>
</svg>