<?xml version="1.0" standalone="no"?>
<!DOCTYPE svg PUBLIC "-//W3C//DTD SVG 20010904//EN"
 "http://www.w3.org/TR/2001/REC-SVG-20010904/DTD/svg10.dtd">
<svg version="1.0" xmlns="http://www.w3.org/2000/svg"
 width="512.000000pt" height="512.000000pt" viewBox="0 0 512.000000 512.000000"
 preserveAspectRatio="xMidYMid meet">
<metadata>
Created by potrace 1.16, written by Peter Selinger 2001-2019
</metadata>
<g transform="translate(0.000000,512.000000) scale(0.100000,-0.100000)"
fill="#000000" stroke="none">
<path d="M2212 4173 c-51 -73 -129 -251 -179 -413 -2 -8 -21 26 -42 75 -30 71
-42 91 -60 93 -35 5 -48 -13 -80 -111 -62 -189 -61 -164 -61 -862 l0 -640 -45
-80 c-25 -44 -115 -174 -199 -288 -85 -115 -159 -221 -165 -235 -15 -39 -33
-334 -21 -346 7 -7 46 -1 115 15 l104 26 -20 -38 c-23 -47 -23 -44 0 -66 17
-16 18 -23 9 -63 -6 -25 -15 -55 -21 -67 -6 -13 -8 -26 -4 -29 3 -4 -3 -24
-13 -45 -22 -42 -26 -75 -10 -81 6 -2 -6 -43 -29 -94 -80 -186 -102 -239 -93
-229 14 15 182 334 182 345 0 5 -6 7 -14 4 -26 -10 -24 11 9 95 18 46 31 89
28 97 -2 7 1 22 7 34 7 13 8 25 4 29 -25 18 -30 45 -15 88 15 40 20 44 71 59
86 25 122 28 145 9 19 -15 17 -15 -26 -9 -34 4 -48 2 -58 -10 -17 -21 -8 -33
34 -40 41 -8 46 -31 16 -88 -18 -36 -18 -37 2 -42 19 -5 20 -15 2 -58 -5 -13
-2 -18 9 -18 20 0 24 -39 13 -118 -6 -36 -6 -36 8 7 13 40 23 143 24 259 1 34
5 42 19 42 30 0 42 22 42 77 0 58 14 71 24 23 4 -21 11 -30 26 -30 24 0 24 3
5 -49 -8 -23 -14 -54 -13 -69 0 -15 -18 -74 -41 -132 -40 -100 -103 -301 -97
-307 1 -2 31 69 66 157 62 156 78 188 66 133 -7 -35 39 57 55 109 10 31 16 37
48 41 20 2 37 3 39 2 2 -2 -11 -36 -27 -75 -24 -56 -29 -76 -20 -86 9 -11 8
-18 0 -28 -10 -11 -9 -16 3 -23 13 -7 14 -15 4 -46 -9 -28 -9 -42 1 -60 9 -18
6 -45 -18 -152 -17 -71 -29 -131 -26 -133 4 -4 78 223 90 277 5 23 4 31 -4 27
-14 -9 -14 14 3 92 10 51 10 62 -1 62 -18 0 -16 16 8 88 17 52 25 63 47 68 15
3 33 8 41 10 7 2 41 -1 75 -7 l63 -10 16 -53 c19 -58 21 -86 8 -86 -4 0 -11
-27 -14 -60 -4 -33 -12 -68 -18 -77 -8 -14 -1 -51 31 -163 38 -132 59 -192 59
-165 0 6 -15 74 -33 152 -26 113 -30 143 -19 147 7 3 13 19 13 36 0 16 5 30
11 30 7 0 8 11 4 31 -4 19 -2 41 6 55 10 20 10 33 -4 78 -9 29 -17 56 -17 59
0 4 26 6 58 5 l57 -3 -1 87 c-2 66 1 88 12 92 10 4 14 23 14 66 0 33 4 60 9
60 10 0 21 -58 21 -113 0 -30 4 -40 20 -44 18 -5 20 -15 22 -87 1 -44 1 -94 0
-110 -1 -16 2 -34 8 -41 7 -9 9 -35 5 -72 -6 -46 -4 -62 8 -71 8 -7 12 -22 10
-36 -6 -29 22 -86 42 -86 20 0 19 39 -1 47 -13 5 -15 15 -10 49 3 23 1 56 -5
72 -8 24 -7 37 5 61 10 19 12 32 6 36 -6 3 -10 19 -10 34 0 15 -4 31 -9 37 -5
5 -11 50 -15 100 -7 105 -9 104 91 104 l51 0 28 -71 c21 -53 25 -75 17 -87 -7
-13 -6 -23 5 -40 11 -18 12 -25 2 -37 -10 -12 -8 -16 12 -24 20 -7 26 -19 31
-52 3 -24 2 -49 -2 -57 -7 -12 148 -417 156 -408 1 1 -27 90 -62 197 -56 165
-64 198 -54 220 13 33 3 92 -23 140 -11 20 -18 45 -16 56 3 22 133 -123 391
-442 222 -272 210 -242 -32 80 -174 232 -272 353 -356 439 -59 60 -66 72 -56
88 6 10 9 29 5 43 -8 32 -13 32 204 0 212 -31 210 -31 218 -1 10 42 -14 233
-35 274 -11 20 -101 134 -200 252 -100 118 -188 230 -196 248 -14 28 -16 111
-14 680 l2 647 -31 92 c-47 140 -77 193 -108 193 -22 0 -30 -10 -59 -73 -48
-105 -75 -208 -82 -317 -8 -116 -17 -93 -33 85 -12 138 -26 198 -70 313 -41
107 -128 252 -151 252 -4 0 -16 -12 -27 -27z m57 -43 c20 -31 20 -32 2 -11
-16 18 -21 20 -21 7 0 -9 -8 -16 -20 -16 -11 0 -20 3 -20 8 0 9 31 55 34 50 1
-2 13 -19 25 -38z m-5 -76 c9 -3 14 -10 11 -14 -3 -5 1 -37 9 -72 8 -34 17
-87 20 -115 l7 -53 -80 0 c-44 0 -92 -5 -107 -10 -15 -6 -29 -9 -31 -6 -16 16
81 263 105 269 27 7 49 7 66 1z m43 -116 c-3 -8 -6 -5 -6 6 -1 11 2 17 5 13 3
-3 4 -12 1 -19z m10 -50 c-3 -8 -6 -5 -6 6 -1 11 2 17 5 13 3 -3 4 -12 1 -19z
m366 -65 c14 -43 31 -95 36 -116 9 -35 8 -38 -7 -32 -38 15 -79 16 -119 1 -51
-18 -51 -20 -22 89 42 162 71 177 112 58z m-723 -1 c11 -36 23 -82 26 -103 l7
-39 -49 2 c-27 1 -59 -2 -71 -6 -31 -10 -30 10 3 116 31 99 29 95 49 95 10 0
22 -22 35 -65z m367 -19 c-3 -10 -5 -4 -5 12 0 17 2 24 5 18 2 -7 2 -21 0 -30z
m-7 -124 c0 -5 3 -8 8 -6 4 3 8 -23 9 -57 2 -33 5 -71 8 -83 5 -20 1 -22 -37
-25 -24 -2 -41 -6 -38 -9 3 -3 -8 -18 -25 -32 l-30 -27 37 15 c21 8 48 15 61
15 40 0 110 -29 139 -57 41 -39 36 -58 -8 -28 -44 30 -80 37 -159 33 l-59 -3
-46 49 c-54 59 -92 77 -133 65 -28 -8 -29 -7 -24 21 22 108 69 139 210 140 55
0 87 -4 87 -11z m-361 -25 c29 -6 31 -9 31 -50 0 -45 -26 -124 -41 -124 -4 0
-11 17 -14 38 -12 72 -16 83 -32 89 -9 3 -29 1 -44 -4 -36 -14 -40 6 -9 37 21
21 54 25 109 14z m470 -63 c20 -82 21 -100 5 -94 -10 4 -14 13 -10 29 3 12 1
26 -5 29 -6 4 -8 14 -5 22 4 9 2 11 -6 7 -7 -5 -9 0 -6 14 4 14 1 22 -6 22 -6
0 -12 9 -12 20 0 18 2 18 18 3 10 -9 22 -32 27 -52z m292 -42 c18 -7 28 -20
31 -38 4 -27 4 -27 -32 -15 -42 16 -91 17 -145 4 -22 -5 -41 -7 -43 -6 -2 2 0
15 4 30 10 43 106 56 185 25z m-601 -67 c26 -27 39 -64 55 -167 l6 -40 -22 40
c-30 56 -49 76 -87 92 -29 12 -37 12 -68 -3 -20 -10 -45 -34 -59 -59 -35 -58
-31 -69 9 -29 37 37 69 43 104 18 34 -23 27 -29 -37 -29 -44 0 -64 -5 -80 -19
-66 -60 -4 109 68 184 45 48 72 50 111 12z m548 -24 c2 -16 8 -28 13 -28 5 0
8 -3 8 -7 -1 -5 -1 -19 0 -33 1 -20 3 -22 11 -10 7 11 10 5 10 -22 0 -39 -6
-43 -47 -32 -14 4 -23 16 -26 33 -4 23 -4 22 -6 -6 -1 -27 -5 -33 -23 -33 -13
0 -33 -3 -45 -6 -22 -6 -23 -4 -23 75 l0 80 33 10 c17 5 46 9 62 8 25 -2 31
-7 33 -29z m42 18 c0 -3 -4 -8 -10 -11 -5 -3 -10 -1 -10 4 0 6 5 11 10 11 6 0
10 -2 10 -4z m-772 -24 c-42 -103 -63 -141 -79 -145 -17 -5 -19 1 -19 64 0 63
2 71 23 79 28 11 80 13 75 2z m412 -121 l0 -68 45 -13 c25 -7 48 -17 51 -21
14 -23 23 -3 27 59 l3 67 2 -81 2 -81 -57 29 c-51 26 -65 29 -115 24 -65 -6
-62 -9 -73 86 -8 63 -6 65 73 67 l42 1 0 -69z m-274 -60 c20 -12 43 -42 60
-78 l29 -58 0 -395 c-1 -383 -2 -398 -25 -491 l-24 -96 -75 1 c-53 1 -86 -4
-108 -16 l-33 -16 0 144 c0 89 -4 144 -10 144 -6 0 -10 -56 -10 -147 -1 -121
-3 -144 -13 -128 -17 28 -24 1113 -7 1129 9 8 11 -16 8 -97 -2 -74 0 -107 8
-107 6 0 14 29 18 67 4 37 14 82 23 100 28 61 100 80 159 44z m554 -37 c5 -43
7 -45 12 -19 5 28 5 27 5 -7 -1 -20 -5 -34 -10 -31 -5 3 -7 -13 -6 -35 2 -23
0 -44 -4 -48 -4 -4 -7 -198 -7 -431 0 -408 -1 -423 -18 -414 -10 6 -28 7 -40
4 l-22 -5 0 509 0 510 33 10 c46 15 51 12 57 -43z m90 -560 c0 -455 -2 -594
-11 -588 -9 5 -10 84 -6 318 3 171 3 425 -1 564 -4 140 -4 256 0 258 3 2 4 13
1 24 -3 11 -1 20 5 20 7 0 11 -189 12 -596z m-361 -41 l-1 -588 -42 126 -43
125 -6 435 c-4 238 -9 446 -13 462 l-6 27 56 0 56 0 -1 -587z m121 114 c0
-276 -4 -417 -10 -407 -13 21 -13 843 0 835 6 -4 10 -157 10 -428z m-103 -224
c-1 -81 -3 -17 -3 142 0 160 2 226 3 148 2 -78 2 -208 0 -290z m100 -225 c-3
-8 -6 -5 -6 6 -1 11 2 17 5 13 3 -3 4 -12 1 -19z m10 -40 c-3 -8 -6 -5 -6 6
-1 11 2 17 5 13 3 -3 4 -12 1 -19z m-199 -169 c63 -166 72 -196 102 -336 30
-145 25 -180 -8 -55 -12 42 -35 129 -51 192 -51 195 -95 310 -117 310 -8 0
-16 -12 -20 -27 -42 -188 -86 -336 -106 -358 -11 -12 -6 14 28 136 13 48 33
126 44 173 11 48 28 98 38 111 l17 23 17 -32 c9 -18 35 -80 56 -137z m519 109
c26 -35 108 -135 181 -222 74 -88 138 -169 143 -180 8 -20 31 -158 26 -162 -3
-2 -263 61 -333 81 l-52 15 -6 117 c-14 271 -18 413 -13 413 3 0 27 -28 54
-62z m-1060 -40 c-25 -40 -64 -93 -87 -118 -38 -42 -38 -41 8 21 27 36 64 91
83 121 19 31 36 54 38 52 2 -2 -17 -36 -42 -76z m95 -43 c3 -44 1 -47 -55
-103 -32 -31 -91 -93 -130 -137 l-71 -80 105 100 c183 177 179 165 -11 -30
-102 -104 -203 -214 -225 -242 -21 -29 -40 -51 -42 -49 -6 6 27 90 53 134 31
53 26 64 -10 22 -45 -54 -28 -18 25 52 55 74 336 378 349 378 4 0 10 -20 12
-45z m268 13 c0 -2 -13 -70 -28 -153 l-29 -150 -54 -6 c-30 -3 -64 -9 -75 -13
-21 -6 -22 -3 -29 123 -4 71 -4 139 0 149 9 29 71 51 148 51 37 1 67 0 67 -1z
m489 -167 c83 -130 121 -205 121 -238 0 -13 -1 -23 -3 -23 -8 0 -200 49 -203
52 -2 2 -6 85 -9 183 -5 149 -3 177 7 161 7 -10 46 -71 87 -135z m-329 -44 c9
-122 19 -173 65 -320 40 -124 34 -133 -34 -59 l-58 63 -7 -32 c-3 -17 -6 -58
-6 -89 l0 -58 -72 -12 c-40 -6 -93 -15 -118 -20 -25 -5 -47 -7 -49 -5 -2 2 8
42 22 87 14 46 35 121 48 168 26 100 50 153 81 174 34 24 38 20 38 -35 0 -59
14 -61 45 -8 17 29 20 52 20 166 0 161 14 150 25 -20z m-660 59 c0 -2 -8 -10
-17 -17 -16 -13 -17 -12 -4 4 13 16 21 21 21 13z m250 -199 l0 -122 -137 -57
c-76 -30 -173 -71 -215 -89 -110 -46 -118 -27 -21 51 30 25 123 111 206 192
84 81 155 147 160 148 4 0 7 -55 7 -123z m174 -74 c-8 -57 -9 -59 -52 -68
l-34 -7 7 49 c8 52 25 73 63 73 22 0 23 -2 16 -47z m934 -89 c100 -21 180 -39
178 -42 -8 -7 -376 60 -376 70 0 11 -5 12 198 -28z m-964 -33 c-5 -5 -24 -11
-42 -15 -42 -7 -33 10 11 22 34 10 46 7 31 -7z m-139 -17 c16 -25 16 -25 -4
-15 -32 18 -49 14 -232 -53 -207 -76 -228 -82 -214 -68 14 15 358 144 431 162
1 0 9 -12 19 -26z m855 16 c18 -6 8 -8 -40 -9 -36 -1 -76 -4 -90 -7 -17 -5
-22 -3 -15 4 20 20 98 27 145 12z m-291 -152 c0 -33 -2 -38 -9 -23 -12 28 -12
65 0 65 6 0 10 -19 9 -42z"/>
<path d="M1913 3745 c0 -27 2 -38 4 -22 2 15 2 37 0 50 -2 12 -4 0 -4 -28z"/>
<path d="M1945 3226 c-45 -45 -45 -112 0 -142 34 -22 71 -11 95 29 56 91 -23
185 -95 113z"/>
<path d="M1877 3024 c-4 -4 -7 -137 -7 -296 0 -227 3 -289 13 -286 9 4 13 70
15 275 2 251 -3 325 -21 307z"/>
<path d="M2550 3188 c0 -51 3 -68 10 -58 13 20 13 130 0 130 -6 0 -10 -31 -10
-72z"/>
<path d="M2556 3063 c-10 -65 -7 -763 4 -763 7 0 10 140 10 400 0 220 -2 400
-4 400 -2 0 -6 -17 -10 -37z"/>
<path d="M2450 1260 l-1 -35 -15 28 c-17 30 -34 36 -34 10 0 -21 172 -535 177
-529 2 2 -23 110 -55 239 -32 130 -61 235 -63 232 -3 -2 -3 11 -1 30 2 19 2
40 -1 47 -3 7 -6 -3 -7 -22z"/>
</g>
</svg>