<?xml version="1.0" standalone="no"?>
<!DOCTYPE svg PUBLIC "-//W3C//DTD SVG 20010904//EN"
 "http://www.w3.org/TR/2001/REC-SVG-20010904/DTD/svg10.dtd">
<svg version="1.0" xmlns="http://www.w3.org/2000/svg"
 width="512.000000pt" height="512.000000pt" viewBox="0 0 512.000000 512.000000"
 preserveAspectRatio="xMidYMid meet">
<metadata>
Created by potrace 1.16, written by Peter Selinger 2001-2019
</metadata>
<g transform="translate(0.000000,512.000000) scale(0.100000,-0.100000)"
fill="white" stroke="none">
<path d="M2410 4035 c-698 -112 -1583 -264 -1594 -275 -16 -16 -9 -382 8 -395
16 -12 38 -669 24 -698 -6 -11 -6 -23 1 -30 6 -8 13 -153 17 -361 6 -277 10
-349 21 -353 9 -4 13 -28 13 -88 0 -64 4 -88 18 -104 11 -15 96 -48 267 -105
138 -46 423 -144 635 -216 212 -73 465 -159 562 -191 l178 -60 622 257 c343
141 687 283 766 315 184 76 177 71 197 121 9 24 27 57 40 74 23 31 25 41 35
310 6 154 15 416 20 584 13 453 13 471 22 476 14 9 10 350 -4 362 -17 13
-1308 381 -1498 427 -8 1 -166 -21 -350 -50z m635 -64 c143 -38 424 -115 625
-171 201 -56 410 -114 465 -129 l100 -27 3 -120 c4 -160 -3 -204 -31 -204 -12
0 -28 4 -35 8 -13 9 -32 140 -32 225 0 40 -4 49 -22 57 -13 5 -156 41 -318 79
-162 38 -427 103 -589 145 -309 78 -325 80 -336 33 -3 -12 -5 -93 -3 -180 l3
-158 -25 6 c-77 19 -70 23 -70 -39 0 -31 -4 -56 -10 -56 -6 0 -10 107 -10 300
0 238 3 300 13 300 7 0 130 -31 272 -69z m-337 -144 l2 -197 -32 -20 c-18 -11
-41 -20 -50 -20 -16 0 -18 -10 -18 -77 0 -87 14 -113 61 -113 18 0 32 -7 39
-20 8 -15 9 -191 4 -600 l-7 -579 -29 -6 c-16 -4 -51 -4 -78 0 l-50 7 0 164 0
164 -25 0 -25 0 0 -130 c0 -71 -2 -130 -4 -130 -2 0 -266 65 -587 144 -321 79
-682 168 -801 196 l-218 52 0 59 0 59 40 0 c22 0 40 5 40 10 0 6 10 8 24 4
l24 -6 -5 135 -6 134 244 -3 c286 -3 278 2 -26 19 l-220 12 -3 98 c-2 83 -1
97 13 97 11 0 15 6 11 18 -3 9 -10 82 -16 160 -10 140 -10 145 12 175 l22 30
-25 -6 c-70 -20 -65 -21 -61 17 2 20 8 39 13 41 8 5 537 75 566 75 7 0 13 -6
13 -12 1 -38 13 -40 136 -28 126 13 144 21 144 67 0 13 4 23 8 23 5 0 148 16
318 35 170 20 329 34 353 33 39 -3 46 -7 54 -31 5 -15 6 -39 3 -52 -5 -20 -14
-24 -68 -32 l-63 -8 -3 -84 c-3 -93 3 -104 52 -94 l29 6 -6 -502 c-7 -487 -7
-502 11 -492 16 9 20 28 25 147 4 75 7 296 7 490 0 382 0 384 -55 384 -27 0
-33 13 -28 61 5 35 6 37 55 42 73 9 81 19 76 94 -3 48 -9 69 -26 85 l-22 22
-327 -37 c-304 -35 -487 -59 -1053 -138 -137 -19 -220 -35 -229 -44 -12 -12
-13 -38 -3 -167 5 -84 8 -156 6 -160 -3 -5 -25 -8 -49 -8 -30 0 -45 5 -49 16
-3 9 -6 87 -6 175 0 156 0 159 23 163 35 8 847 140 1202 196 176 27 372 59
435 69 63 11 135 18 160 18 l45 -2 3 -198z m460 -12 c136 -31 373 -85 527
-122 154 -36 312 -73 350 -82 l70 -17 0 -126 c0 -69 -4 -130 -8 -134 -4 -4
-54 -3 -110 4 -508 58 -617 68 -969 88 l-118 6 0 219 c0 121 3 219 6 219 3 0
117 -25 252 -55z m-1368 6 c0 -10 -35 -17 -135 -27 -93 -9 -75 8 23 22 102 15
112 16 112 5z m920 -288 c0 -71 -9 -86 -46 -81 -27 3 -29 7 -32 49 -3 43 -1
48 30 68 18 11 36 21 41 21 4 0 7 -26 7 -57z m118 -29 c21 -6 22 -11 22 -110
l0 -104 -30 0 -30 0 0 110 c0 61 3 110 8 110 4 0 17 -3 30 -6z m365 -129 c276
-25 882 -92 905 -100 13 -5 16 -75 6 -172 l-6 -59 -402 -12 c-497 -15 -819
-30 -871 -42 -46 -10 120 -8 803 10 265 8 457 9 462 4 12 -12 14 -52 12 -260
l-2 -181 -305 -63 c-167 -35 -303 -66 -301 -68 7 -6 314 40 452 69 78 16 144
29 147 29 5 0 -3 -111 -8 -118 -1 -1 -80 -30 -175 -63 -223 -77 -453 -137
-770 -199 -140 -27 -315 -64 -387 -82 -98 -24 -136 -29 -144 -21 -18 18 3 65
38 86 17 10 186 51 374 91 345 74 816 182 919 210 47 12 50 15 22 15 -55 1
-230 -28 -407 -69 -93 -21 -278 -62 -410 -90 -132 -28 -271 -57 -309 -65 -38
-8 -72 -15 -77 -15 -11 0 -11 245 -2 698 l6 332 34 0 33 0 0 -70 0 -70 25 16
c24 16 25 19 25 134 0 126 4 150 26 150 8 0 137 -11 287 -25z m-2249 -52 c3
-16 8 -74 12 -130 l6 -103 -45 0 -45 0 -4 118 c-2 64 -2 123 0 130 2 6 19 12
37 12 28 0 34 -4 39 -27z m3271 -150 c-4 -65 -9 -120 -10 -121 -2 -2 -18 -1
-36 3 l-32 7 7 67 c3 36 6 87 6 114 l0 47 36 0 36 0 -7 -117z m-3255 -238 l0
-125 -34 0 c-19 0 -37 3 -40 8 -2 4 -8 60 -11 125 l-8 117 47 0 46 0 0 -125z
m3245 53 c-1 -21 -2 -116 -3 -210 -1 -95 -6 -178 -10 -185 -4 -6 -20 -15 -36
-19 l-29 -7 6 223 c4 122 10 226 13 232 3 5 18 8 32 6 24 -3 27 -7 27 -40z
m-3057 -429 c330 -78 1335 -330 1342 -336 3 -2 -3 -9 -13 -14 -27 -15 -25
-139 3 -164 19 -17 20 -31 20 -262 0 -133 -3 -243 -6 -243 -4 0 -22 10 -41 21
-19 12 -36 19 -38 17 -3 -3 8 -22 25 -44 16 -21 30 -42 30 -46 0 -7 -70 13
-350 102 -240 76 -912 281 -1015 310 -44 12 -82 24 -83 25 -2 2 4 17 14 34 22
37 9 60 -24 42 -18 -9 -20 -6 -26 36 -3 25 -6 68 -6 95 0 47 1 49 28 46 26 -3
27 -2 30 57 4 84 -3 104 -43 121 -35 14 -35 15 -35 79 0 37 -4 65 -10 65 -6 0
-10 -33 -10 -79 0 -76 1 -79 25 -85 32 -8 32 -34 0 -46 l-25 -10 6 -152 c3
-84 7 -159 10 -165 4 -14 -24 -17 -43 -5 -8 5 -15 42 -18 92 -8 150 -16 570
-9 570 3 0 121 -27 262 -61z m3049 -55 c-5 -50 -11 -58 -45 -69 -22 -6 -23 -5
-20 46 3 54 11 62 62 68 5 1 6 -20 3 -45z m-21 -311 c-4 -119 -8 -218 -9 -219
-1 -1 -15 -6 -30 -9 l-28 -7 6 188 c8 258 8 256 59 263 5 1 6 -88 2 -216z
m-91 10 c-4 -98 -11 -183 -16 -189 -4 -5 -7 -23 -6 -39 2 -28 1 -29 -138 -70
-381 -116 -1079 -329 -1146 -351 -83 -27 -73 -17 -166 -178 -33 -58 -47 -75
-54 -65 -11 17 -12 130 -1 144 10 15 132 92 164 104 l28 10 2 238 3 238 60 13
c33 7 190 40 350 73 353 72 586 132 770 197 77 27 144 50 149 51 4 1 5 -79 1
-176z m-1466 -50 c-37 -32 -52 -73 -41 -114 9 -36 11 -36 80 -25 l42 8 0 -209
c0 -234 5 -215 -78 -272 -31 -22 -34 -22 -57 -7 l-25 16 0 236 0 236 -26 31
c-20 23 -24 38 -20 60 3 16 6 37 6 46 0 13 12 16 73 16 l73 0 -27 -22z m1489
-277 c-20 -43 -23 -45 -147 -91 -69 -27 -405 -160 -746 -296 -341 -136 -621
-244 -623 -239 -4 11 105 215 123 230 8 7 50 23 92 35 101 30 650 200 1013
314 157 49 291 90 297 90 9 1 6 -13 -9 -43z m-3021 -18 c70 -20 73 -22 51 -34
-21 -12 -21 -13 -3 -14 142 -4 392 -71 970 -260 99 -32 232 -75 295 -94 l115
-34 3 -96 3 -97 -28 7 c-15 4 -190 62 -388 128 l-360 121 -7 49 c-9 64 -15 67
-29 12 -6 -25 -14 -46 -18 -46 -8 0 -150 46 -486 156 -143 47 -266 93 -272
102 -7 9 -13 37 -13 63 l0 48 43 4 c23 2 44 4 45 5 2 1 37 -8 79 -20z"/>
<path d="M1610 3414 c-206 -8 -406 -18 -445 -22 l-70 -9 70 -2 c104 -2 1063
29 1185 38 177 14 -310 10 -740 -5z"/>
<path d="M1508 3043 c7 -3 16 -2 19 1 4 3 -2 6 -13 5 -11 0 -14 -3 -6 -6z"/>
<path d="M1415 3009 c392 -42 1130 -87 980 -59 -133 24 -891 81 -1058 79 -91
-1 -90 -2 78 -20z"/>
<path d="M1540 2825 c0 -17 6 -25 18 -25 9 -1 104 -11 210 -24 162 -19 194
-20 204 -9 8 10 8 17 1 24 -8 8 -369 58 -425 59 -5 0 -8 -11 -8 -25z"/>
<path d="M3065 2961 c-73 -9 -75 -16 -75 -267 0 -188 2 -213 18 -227 15 -14
34 -12 212 24 116 24 202 46 212 56 16 14 18 37 18 204 0 103 -3 194 -6 203
-5 14 -29 16 -168 14 -88 0 -183 -4 -211 -7z m325 -105 c0 -22 -5 -25 -55 -31
l-55 -7 0 -57 c0 -31 -3 -80 -6 -109 -6 -43 -11 -53 -28 -56 -153 -30 -176
-33 -176 -20 0 14 15 19 91 29 56 7 59 14 59 131 0 102 -7 109 -90 101 -47 -5
-60 -4 -60 7 0 10 31 16 123 23 203 16 197 17 197 -11z m0 -160 c0 -73 -6 -86
-41 -86 -14 0 -11 147 4 153 33 14 37 7 37 -67z m-240 49 c0 -8 -9 -15 -20
-15 -11 0 -20 7 -20 15 0 8 9 15 20 15 11 0 20 -7 20 -15z"/>
<path d="M1080 2211 c20 -15 45 -22 620 -182 486 -135 690 -189 718 -189 31 0
-3 19 -65 38 -75 23 -460 130 -908 253 -284 78 -397 103 -365 80z"/>
</g>
</svg>