<svg width="243" height="242" viewBox="0 0 243 242" fill="none" xmlns="http://www.w3.org/2000/svg">
<path d="M120.219 241.849V205.969H122.35V241.849H120.219Z" fill="white"/>
<path d="M71.4451 215.939C71.3674 216.69 71.3882 217.403 71.5075 218.078C71.6174 218.756 71.83 219.387 72.1455 219.971C72.4545 220.552 72.8674 221.074 73.3841 221.537C73.9009 222 74.5193 222.392 75.2395 222.713C76.4204 223.239 77.63 223.412 78.8682 223.232C80.1065 223.053 81.2755 222.497 82.3751 221.563C83.4747 220.63 84.4087 219.301 85.1771 217.575C85.9455 215.849 86.3053 214.264 86.2565 212.819C86.2077 211.375 85.826 210.128 85.1113 209.079C84.3966 208.03 83.4229 207.231 82.1901 206.683C81.0482 206.174 79.9342 205.97 78.8481 206.069C77.7527 206.172 76.7623 206.563 75.877 207.242C74.9824 207.924 74.2635 208.875 73.7204 210.095L73.0501 209.61L79.0452 212.279L78.092 214.42L70.5007 211.041L71.454 208.899C72.1848 207.258 73.1707 205.986 74.4117 205.085C75.6461 204.181 77.0252 203.668 78.5491 203.545C80.0635 203.427 81.6123 203.72 83.1954 204.425C84.9602 205.21 86.326 206.316 87.2929 207.742C88.2532 209.164 88.7656 210.807 88.83 212.671C88.8879 214.531 88.4488 216.513 87.5129 218.615C86.8109 220.192 85.9689 221.515 84.9867 222.586C83.9952 223.661 82.9122 224.469 81.7379 225.011C80.5635 225.554 79.3389 225.825 78.0639 225.825C76.789 225.825 75.5124 225.54 74.2342 224.971C73.1831 224.503 72.2742 223.908 71.5074 223.185C70.7312 222.467 70.1148 221.66 69.6582 220.764C69.1922 219.873 68.8968 218.921 68.772 217.909C68.6443 216.904 68.7048 215.877 68.9536 214.83L71.4451 215.939Z" fill="white"/>
<path d="M67.4031 195.155C68.5983 196.023 69.4402 197.069 69.929 198.293C70.4121 199.513 70.5349 200.819 70.2975 202.209C70.0543 203.595 69.4359 204.971 68.4424 206.339C67.4405 207.718 66.3159 208.74 65.0688 209.405C63.8159 210.067 62.5346 210.356 61.225 210.274C59.9096 210.187 58.6543 209.709 57.4592 208.841C56.2641 207.973 55.425 206.929 54.9419 205.709C54.4531 204.484 54.3323 203.176 54.5797 201.785C54.8213 200.389 55.4431 199.001 56.445 197.622C57.4386 196.255 58.5597 195.243 59.8084 194.588C61.0514 193.928 62.3306 193.642 63.646 193.728C64.9556 193.811 66.208 194.286 67.4031 195.155ZM66.0756 196.982C65.1677 196.322 64.2517 196.012 63.3275 196.052C62.4033 196.091 61.5249 196.388 60.6923 196.942C59.8597 197.496 59.1219 198.215 58.479 199.1C57.8361 199.985 57.3779 200.912 57.1042 201.881C56.8305 202.849 56.8156 203.782 57.0593 204.679C57.3031 205.576 57.8789 206.354 58.7867 207.014C59.6946 207.674 60.6127 207.981 61.5411 207.935C62.4695 207.89 63.3521 207.588 64.1888 207.028C65.0256 206.468 65.7654 205.746 66.4083 204.861C67.0512 203.976 67.5074 203.052 67.7769 202.089C68.0464 201.126 68.0572 200.199 67.8093 199.308C67.5613 198.417 66.9834 197.641 66.0756 196.982Z" fill="white"/>
<path d="M45.1605 173.161L26.2654 184.07L22.4515 177.464C21.6915 176.148 21.2923 174.931 21.2539 173.813C21.2093 172.699 21.4476 171.712 21.9688 170.854C22.4838 169.999 23.2027 169.305 24.1253 168.772C24.9372 168.303 25.6911 168.061 26.3869 168.045C27.0793 168.022 27.7141 168.156 28.2916 168.446C28.8654 168.73 29.3824 169.099 29.8425 169.555L30.0271 169.449C29.7302 168.849 29.5976 168.151 29.6292 167.354C29.6609 166.556 29.9076 165.762 30.3692 164.97C30.8308 164.179 31.5598 163.496 32.5562 162.92C33.5035 162.374 34.4796 162.097 35.4847 162.091C36.4899 162.085 37.482 162.418 38.461 163.091C39.4401 163.764 40.3593 164.845 41.2187 166.333L45.1605 173.161ZM41.8097 172.045L39.189 167.505C38.326 166.011 37.4244 165.117 36.484 164.823C35.5339 164.527 34.6437 164.618 33.8133 165.098C33.1737 165.467 32.6773 165.971 32.3242 166.61C31.965 167.252 31.7964 167.968 31.8185 168.759C31.8343 169.554 32.0802 170.363 32.556 171.187L35.2407 175.837L41.8097 172.045ZM33.2479 176.988L30.7976 172.744C30.3999 172.055 29.9059 171.512 29.3156 171.114C28.7218 170.711 28.0848 170.488 27.4045 170.446C26.7207 170.398 26.0467 170.566 25.3824 170.95C24.552 171.429 24.0147 172.125 23.7703 173.037C23.5198 173.952 23.7568 175.037 24.4812 176.292L26.9741 180.61L33.2479 176.988Z" fill="white"/>
<path d="M34.4037 150.106C34.7241 151.092 34.8292 152.047 34.7188 152.972C34.6017 153.899 34.2654 154.714 33.7098 155.417C33.1474 156.122 32.3596 156.64 31.3464 156.969C30.4548 157.259 29.675 157.318 29.007 157.146C28.3322 156.977 27.7407 156.651 27.2322 156.166C26.7238 155.682 26.2767 155.11 25.8909 154.451C25.4962 153.788 25.1341 153.11 24.8047 152.418C24.3758 151.512 24.0356 150.775 23.7838 150.207C23.5231 149.635 23.2712 149.239 23.0281 149.019C22.7827 148.792 22.4676 148.742 22.0825 148.867L22.0015 148.893C21.0018 149.218 20.3139 149.744 19.9378 150.471C19.5595 151.191 19.5492 152.102 19.9069 153.203C20.2779 154.345 20.8186 155.158 21.5291 155.644C22.2397 156.13 22.9214 156.413 23.5744 156.492L23.5013 159.025C22.4239 158.927 21.5121 158.626 20.7658 158.122C20.0105 157.613 19.3976 156.99 18.927 156.255C18.4475 155.514 18.0804 154.752 17.8258 153.969C17.6634 153.469 17.5377 152.875 17.4485 152.187C17.3505 151.495 17.3851 150.785 17.5523 150.059C17.7173 149.326 18.1021 148.637 18.7067 147.992C19.3113 147.348 20.2316 146.825 21.4677 146.423L31.7213 143.091L32.4982 145.483L30.3908 146.167L30.4303 146.289C30.8207 146.341 31.2699 146.494 31.7778 146.747C32.2857 147 32.7768 147.397 33.2511 147.938C33.7254 148.478 34.1096 149.201 34.4037 150.106ZM32.1372 150.439C31.8299 149.493 31.3852 148.757 30.803 148.229C30.2186 147.694 29.5788 147.357 28.8836 147.217C28.1862 147.07 27.5133 147.102 26.8649 147.313L24.6763 148.024C24.8308 148.086 25.0147 148.273 25.228 148.584C25.4323 148.891 25.644 149.255 25.8632 149.677C26.0734 150.094 26.2735 150.503 26.4636 150.905C26.6448 151.301 26.794 151.622 26.9111 151.868C27.1941 152.463 27.5146 153.001 27.8725 153.483C28.2215 153.959 28.6288 154.305 29.0943 154.519C29.5509 154.729 30.0832 154.736 30.6911 154.538C31.5219 154.268 32.0502 153.757 32.2761 153.004C32.4929 152.246 32.4466 151.391 32.1372 150.439Z" fill="white"/>
<path d="M30.0091 129.517C30.1694 131.043 29.9473 132.394 29.3426 133.572C28.738 134.749 27.8347 135.701 26.6327 136.428C25.4307 137.154 24.0174 137.602 22.3929 137.773C20.74 137.947 19.2495 137.796 17.9213 137.322C16.5853 136.841 15.5031 136.09 14.6746 135.071C13.8384 134.044 13.343 132.797 13.1886 131.328C13.0683 130.183 13.1718 129.13 13.4991 128.167C13.8264 127.204 14.3407 126.39 15.0419 125.723C15.7431 125.057 16.5949 124.6 17.5972 124.351L17.86 126.852C17.1384 127.12 16.526 127.613 16.0229 128.33C15.512 129.041 15.3145 129.947 15.4303 131.049C15.5327 132.024 15.8769 132.852 16.4626 133.533C17.0406 134.208 17.8102 134.702 18.7715 135.015C19.725 135.322 20.8163 135.411 22.0453 135.281C23.3026 135.149 24.3766 134.836 25.2674 134.343C26.1574 133.842 26.8221 133.201 27.2612 132.419C27.6996 131.631 27.8669 130.742 27.7629 129.753C27.6946 129.103 27.5196 128.525 27.2379 128.019C26.9562 127.513 26.5842 127.099 26.1218 126.776C25.6593 126.453 25.1233 126.245 24.5137 126.152L24.2509 123.652C25.2263 123.692 26.1283 123.951 26.9569 124.428C27.7776 124.899 28.4619 125.566 29.0097 126.43C29.5498 127.287 29.8829 128.316 30.0091 129.517Z" fill="white"/>
<path d="M23.5336 113.758L20.4354 113.475L20.4888 112.966L13.9901 105.085L14.3153 101.991L21.1888 110.383L21.1665 110.595L23.5336 113.758ZM29.2218 116.712L7.52316 114.431L7.78596 111.931L29.4846 114.212L29.2218 116.712ZM30.3087 106.371L21.5883 111.882L20.0378 109.919L30.6428 103.193L30.3087 106.371Z" fill="white"/>
<path d="M17.1486 59.6584L48.2221 77.5988L47.1568 79.444L16.0832 61.5037L17.1486 59.6584Z" fill="white"/>
<path d="M63.9747 30.374C63.3634 29.9314 62.7357 29.593 62.0914 29.3588C61.4488 29.1146 60.7959 28.9832 60.1327 28.9646C59.4753 28.9419 58.8168 29.0384 58.1572 29.2543C57.4976 29.4701 56.8489 29.8098 56.2111 30.2731C55.1654 31.0329 54.4106 31.9939 53.9469 33.156C53.4832 34.3181 53.3805 35.6086 53.6388 37.0275C53.8971 38.4463 54.5815 39.92 55.692 41.4484C56.8024 42.9768 57.9953 44.0809 59.2706 44.7609C60.546 45.4408 61.8165 45.7336 63.0823 45.6392C64.3481 45.5447 65.5268 45.1009 66.6186 44.3078C67.6298 43.573 68.3639 42.7105 68.8207 41.7202C69.2792 40.7199 69.4358 39.6668 69.2906 38.5607C69.147 37.4448 68.6828 36.3467 67.898 35.2665L68.6532 34.9285L63.3441 38.7858L61.9664 36.8897L68.6891 32.0054L70.0667 33.9015C71.1229 35.3552 71.731 36.8447 71.8911 38.3701C72.057 39.8912 71.8119 41.3422 71.1559 42.7231C70.5015 44.094 69.4733 45.2887 68.0713 46.3073C66.5084 47.4428 64.868 48.0728 63.15 48.1973C61.4378 48.3176 59.7586 47.9398 58.1127 47.0639C56.4724 46.1838 54.976 44.8129 53.6234 42.9512C52.609 41.555 51.8836 40.1638 51.4472 38.7778C51.0124 37.3818 50.8538 36.0398 50.9714 34.7516C51.0889 33.4635 51.4665 32.2674 52.1041 31.1633C52.7417 30.0592 53.6264 29.096 54.7583 28.2736C55.6892 27.5973 56.6591 27.1077 57.6681 26.8048C58.6786 26.492 59.6857 26.3617 60.6893 26.4138C61.6944 26.4561 62.6663 26.6761 63.605 27.0739C64.5395 27.466 65.3982 28.0317 66.1811 28.7709L63.9747 30.374Z" fill="white"/>
<path d="M83.9956 37.2658C82.646 37.8667 81.3189 38.0727 80.0143 37.8839C78.7161 37.6922 77.5245 37.146 76.4393 36.2453C75.3606 35.3417 74.4775 34.1178 73.79 32.5736C73.0967 31.0164 72.7737 29.5315 72.8211 28.1188C72.875 26.7032 73.265 25.4489 73.9912 24.3559C74.7239 23.26 75.765 22.4116 77.1146 21.8108C78.4641 21.2099 79.788 21.0053 81.0861 21.197C82.3908 21.3858 83.5839 21.9353 84.6654 22.8453C85.7535 23.7525 86.6442 24.9847 87.3375 26.5419C88.025 28.0861 88.3404 29.5628 88.2836 30.9719C88.2333 32.3781 87.8418 33.6292 87.1092 34.725C86.383 35.818 85.3451 36.6649 83.9956 37.2658ZM83.0769 35.2025C84.1021 34.7461 84.8286 34.1078 85.2564 33.2876C85.6842 32.4674 85.8664 31.5583 85.803 30.5603C85.7396 29.5623 85.4855 28.5637 85.0406 27.5645C84.5957 26.5653 84.0223 25.705 83.3201 24.9836C82.618 24.2623 81.8176 23.7829 80.9189 23.5455C80.0202 23.3081 79.0583 23.4176 78.0332 23.874C77.008 24.3305 76.283 24.972 75.8581 25.7987C75.4332 26.6254 75.2538 27.541 75.3201 28.5455C75.3864 29.55 75.642 30.5518 76.0868 31.551C76.5317 32.5502 77.1038 33.4072 77.803 34.1221C78.5022 34.837 79.2998 35.3099 80.1955 35.5408C81.0913 35.7717 82.0518 35.659 83.0769 35.2025Z" fill="white"/>
<path d="M114.164 29V7.18182L121.792 7.18182C123.312 7.18182 124.565 7.4446 125.553 7.97017C126.54 8.48864 127.275 9.18821 127.758 10.0689C128.241 10.9425 128.482 11.9119 128.482 12.9773C128.482 13.9148 128.315 14.6889 127.982 15.2997C127.655 15.9105 127.222 16.3935 126.682 16.7486C126.149 17.1037 125.57 17.3665 124.945 17.5369V17.75C125.613 17.7926 126.284 18.027 126.959 18.4531C127.634 18.8793 128.198 19.4901 128.653 20.2855C129.107 21.081 129.335 22.054 129.335 23.2045C129.335 24.2983 129.086 25.282 128.589 26.1555C128.092 27.0291 127.307 27.7216 126.234 28.233C125.162 28.7443 123.766 29 122.048 29L114.164 29ZM116.806 26.6562L122.048 26.6563C123.773 26.6563 124.999 26.3224 125.723 25.6548C126.455 24.9801 126.82 24.1634 126.82 23.2045C126.82 22.4659 126.632 21.7841 126.256 21.1591C125.879 20.527 125.343 20.0227 124.647 19.6463C123.951 19.2628 123.127 19.071 122.175 19.071L116.806 19.071V26.6562ZM116.806 16.7699L121.707 16.7699C122.502 16.7699 123.219 16.6136 123.859 16.3011C124.505 15.9886 125.016 15.5483 125.393 14.9801C125.776 14.4119 125.968 13.7443 125.968 12.9773C125.968 12.0185 125.634 11.2053 124.967 10.5376C124.299 9.86293 123.241 9.52557 121.792 9.52557H116.806V16.7699Z" fill="white"/>
<path d="M139.509 31.2118C138.494 30.9962 137.614 30.6095 136.869 30.0517C136.125 29.487 135.587 28.7882 135.256 27.9554C134.926 27.1156 134.872 26.1747 135.094 25.1327C135.289 24.2156 135.627 23.5107 136.11 23.0178C136.593 22.518 137.172 22.1691 137.846 21.971C138.52 21.773 139.238 21.6716 140.002 21.6669C140.774 21.6566 141.542 21.6819 142.306 21.7427C143.305 21.8243 144.113 21.8982 144.731 21.9641C145.357 22.0246 145.826 22.0045 146.138 21.9037C146.457 21.8045 146.658 21.5569 146.742 21.1609L146.76 21.0775C146.978 20.0494 146.867 19.1907 146.425 18.5014C145.991 17.8136 145.207 17.3493 144.075 17.1087C142.901 16.8591 141.926 16.9205 141.149 17.2928C140.373 17.6651 139.788 18.1143 139.393 18.6402L137.236 17.3104C137.859 16.4265 138.576 15.7874 139.386 15.3932C140.204 14.9935 141.049 14.7738 141.922 14.7342C142.803 14.6891 143.646 14.7522 144.452 14.9235C144.966 15.0327 145.543 15.2208 146.184 15.4876C146.832 15.7489 147.43 16.1336 147.975 16.6416C148.528 17.1511 148.932 17.8288 149.188 18.6746C149.443 19.5205 149.436 20.579 149.166 21.8504L146.924 32.396L144.465 31.8733L144.926 29.7058L144.801 29.6792C144.56 29.9911 144.203 30.3037 143.73 30.617C143.257 30.9303 142.668 31.1572 141.963 31.2978C141.258 31.4383 140.44 31.4097 139.509 31.2118ZM140.353 29.0824C141.326 29.2891 142.186 29.2723 142.934 29.032C143.69 28.7931 144.302 28.4077 144.77 27.8756C145.246 27.3451 145.555 26.7463 145.697 26.0794L146.175 23.8286C146.044 23.9315 145.791 23.9974 145.414 24.0263C145.046 24.0497 144.625 24.0509 144.15 24.0298C143.684 24.0033 143.229 23.9721 142.787 23.9361C142.353 23.8947 142 23.8633 141.729 23.8419C141.072 23.7894 140.446 23.7979 139.85 23.8673C139.263 23.9313 138.76 24.1112 138.341 24.407C137.931 24.6974 137.659 25.1552 137.526 25.7804C137.345 26.6349 137.524 27.3482 138.063 27.9202C138.61 28.4868 139.374 28.8742 140.353 29.0824Z" fill="white"/>
<path d="M159.536 37.7004C158.135 37.0765 157.076 36.2083 156.358 35.0958C155.64 33.9834 155.268 32.7251 155.24 31.3211C155.212 29.917 155.53 28.4688 156.195 26.9765C156.871 25.4583 157.746 24.2427 158.821 23.3297C159.906 22.4132 161.097 21.8511 162.394 21.6435C163.701 21.4324 165.029 21.6272 166.379 22.2281C167.43 22.6961 168.29 23.3125 168.96 24.0773C169.631 24.8422 170.079 25.6948 170.305 26.6353C170.532 27.5758 170.502 28.5421 170.216 29.5342L167.919 28.5116C168.047 27.7523 167.927 26.9756 167.557 26.1814C167.197 25.3836 166.511 24.7593 165.499 24.3087C164.603 23.9101 163.714 23.7941 162.832 23.9608C161.958 24.1239 161.146 24.5435 160.394 25.2194C159.651 25.8917 159.029 26.7924 158.526 27.9213C158.012 29.0762 157.746 30.1628 157.728 31.181C157.716 32.2021 157.939 33.0983 158.397 33.8694C158.861 34.6435 159.547 35.2328 160.455 35.6372C161.052 35.9029 161.64 36.0403 162.219 36.0494C162.798 36.0584 163.343 35.9434 163.854 35.7043C164.364 35.4652 164.812 35.105 165.198 34.6235L167.495 35.6461C166.972 36.4707 166.297 37.1226 165.47 37.6016C164.652 38.077 163.732 38.336 162.71 38.3786C161.697 38.4176 160.639 38.1915 159.536 37.7004Z" fill="white"/>
<path d="M176.422 39.9721L178.216 37.4304L178.63 37.731L188.705 36.0437L191.222 37.8722L180.517 39.6287L180.345 39.5034L176.422 39.9721ZM171.019 43.421L183.844 25.7698L185.878 27.2476L173.053 44.8989L171.019 43.421ZM179.431 49.5327L179.019 39.2252L181.494 38.8638L182.017 51.4112L179.431 49.5327Z" fill="white"/>
<path d="M226.466 61.4921L195.392 79.4325L194.327 77.5872L225.401 59.6469L226.466 61.4921Z" fill="white"/>
<path d="M228.414 116.687C229.103 116.379 229.71 116.004 230.235 115.564C230.768 115.129 231.208 114.629 231.555 114.064C231.904 113.506 232.15 112.888 232.292 112.209C232.435 111.53 232.465 110.798 232.383 110.014C232.248 108.728 231.793 107.594 231.019 106.612C230.244 105.629 229.178 104.895 227.82 104.409C226.462 103.923 224.843 103.779 222.965 103.977C221.086 104.174 219.533 104.655 218.307 105.42C217.08 106.184 216.191 107.138 215.64 108.282C215.089 109.425 214.884 110.668 215.025 112.01C215.156 113.253 215.536 114.32 216.165 115.211C216.802 116.108 217.636 116.77 218.666 117.197C219.704 117.631 220.887 117.778 222.215 117.638L222.13 118.461L221.444 111.935L223.775 111.69L224.644 119.954L222.313 120.199C220.526 120.387 218.932 120.169 217.531 119.545C216.131 118.928 214.997 117.99 214.129 116.732C213.269 115.479 212.748 113.992 212.567 112.268C212.365 110.347 212.64 108.611 213.391 107.061C214.143 105.518 215.31 104.253 216.891 103.265C218.473 102.285 220.409 101.674 222.697 101.434C224.414 101.254 225.981 101.321 227.4 101.636C228.826 101.957 230.068 102.491 231.124 103.237C232.181 103.983 233.028 104.908 233.666 106.012C234.303 107.116 234.695 108.364 234.841 109.756C234.961 110.9 234.9 111.985 234.658 113.01C234.424 114.041 234.033 114.979 233.486 115.822C232.947 116.671 232.271 117.403 231.457 118.017C230.65 118.63 229.731 119.091 228.699 119.399L228.414 116.687Z" fill="white"/>
<path d="M212.435 130.58C212.589 129.11 213.075 127.858 213.89 126.823C214.705 125.794 215.774 125.035 217.097 124.546C218.419 124.064 219.92 123.911 221.601 124.087C223.297 124.266 224.744 124.728 225.944 125.476C227.143 126.23 228.034 127.195 228.617 128.371C229.2 129.553 229.414 130.879 229.26 132.348C229.106 133.817 228.621 135.066 227.806 136.094C226.99 137.13 225.917 137.888 224.589 138.37C223.259 138.859 221.746 139.014 220.051 138.836C218.37 138.659 216.934 138.194 215.742 137.44C214.549 136.694 213.661 135.729 213.079 134.547C212.495 133.371 212.281 132.049 212.435 130.58ZM214.681 130.816C214.564 131.932 214.753 132.88 215.25 133.661C215.746 134.441 216.442 135.054 217.338 135.498C218.234 135.942 219.226 136.221 220.314 136.335C221.402 136.45 222.434 136.383 223.409 136.136C224.385 135.888 225.201 135.435 225.855 134.775C226.51 134.116 226.896 133.228 227.014 132.112C227.131 130.996 226.938 130.047 226.435 129.266C225.931 128.485 225.228 127.872 224.325 127.427C223.422 126.982 222.426 126.702 221.339 126.588C220.251 126.474 219.223 126.54 218.254 126.789C217.285 127.037 216.477 127.491 215.829 128.151C215.181 128.812 214.798 129.7 214.681 130.816Z" fill="white"/>
<path d="M204.509 160.839L223.404 171.748L219.59 178.354C218.83 179.671 217.976 180.625 217.027 181.217C216.085 181.813 215.111 182.099 214.107 182.077C213.109 182.059 212.149 181.783 211.226 181.251C210.414 180.782 209.827 180.25 209.465 179.656C209.1 179.067 208.898 178.451 208.86 177.806C208.819 177.167 208.881 176.534 209.046 175.908L208.861 175.801C208.491 176.358 207.952 176.822 207.246 177.193C206.539 177.565 205.728 177.748 204.812 177.744C203.896 177.74 202.939 177.45 201.943 176.875C200.996 176.328 200.268 175.621 199.76 174.754C199.252 173.886 199.045 172.86 199.138 171.676C199.232 170.492 199.708 169.155 200.567 167.667L204.509 160.839ZM205.218 164.299L202.597 168.838C201.734 170.333 201.411 171.561 201.627 172.522C201.845 173.493 202.37 174.218 203.2 174.698C203.84 175.067 204.524 175.245 205.254 175.231C205.989 175.221 206.694 175.009 207.368 174.595C208.048 174.184 208.626 173.566 209.102 172.742L211.787 168.092L205.218 164.299ZM213.78 169.242L211.329 173.486C210.932 174.175 210.708 174.875 210.659 175.584C210.607 176.3 210.733 176.963 211.036 177.574C211.337 178.19 211.819 178.69 212.483 179.073C213.314 179.553 214.185 179.67 215.097 179.426C216.015 179.185 216.836 178.437 217.561 177.182L220.053 172.865L213.78 169.242Z" fill="white"/>
<path d="M189.921 181.682C190.615 180.912 191.39 180.343 192.246 179.976C193.107 179.614 193.981 179.498 194.868 179.628C195.76 179.762 196.602 180.186 197.394 180.899C198.09 181.526 198.531 182.172 198.717 182.836C198.908 183.505 198.921 184.18 198.755 184.863C198.59 185.545 198.319 186.218 197.941 186.882C197.564 187.555 197.158 188.208 196.723 188.839C196.153 189.664 195.685 190.327 195.319 190.829C194.954 191.341 194.737 191.757 194.668 192.077C194.594 192.403 194.708 192.701 195.009 192.972L195.072 193.029C195.853 193.733 196.653 194.065 197.471 194.028C198.284 193.995 199.077 193.549 199.852 192.688C200.655 191.796 201.09 190.921 201.155 190.063C201.221 189.204 201.125 188.473 200.867 187.868L203.097 186.665C203.551 187.647 203.746 188.587 203.682 189.485C203.619 190.394 203.387 191.236 202.985 192.011C202.583 192.797 202.107 193.495 201.556 194.108C201.204 194.498 200.753 194.904 200.201 195.325C199.651 195.756 199.019 196.081 198.306 196.3C197.589 196.523 196.8 196.534 195.939 196.333C195.079 196.132 194.166 195.596 193.2 194.727L185.188 187.513L186.87 185.644L188.517 187.127L188.603 187.032C188.453 186.668 188.36 186.202 188.326 185.636C188.291 185.069 188.389 184.446 188.62 183.765C188.851 183.084 189.285 182.39 189.921 181.682ZM191.343 183.479C190.678 184.218 190.262 184.971 190.096 185.739C189.926 186.512 189.953 187.235 190.18 187.907C190.401 188.585 190.765 189.151 191.272 189.608L192.982 191.147C192.958 190.983 193.028 190.73 193.191 190.39C193.355 190.059 193.565 189.694 193.82 189.293C194.077 188.902 194.331 188.525 194.583 188.159C194.836 187.804 195.04 187.514 195.194 187.29C195.568 186.747 195.874 186.201 196.111 185.65C196.349 185.11 196.445 184.584 196.398 184.074C196.352 183.573 196.091 183.109 195.616 182.681C194.967 182.097 194.26 181.895 193.495 182.076C192.73 182.267 192.013 182.734 191.343 183.479Z" fill="white"/>
<path d="M174.288 195.783C175.529 194.881 176.811 194.398 178.133 194.332C179.455 194.267 180.731 194.574 181.961 195.251C183.191 195.929 184.286 196.929 185.246 198.25C186.223 199.595 186.838 200.961 187.091 202.349C187.343 203.746 187.234 205.058 186.765 206.286C186.295 207.523 185.462 208.576 184.267 209.444C183.336 210.121 182.372 210.558 181.374 210.756C180.377 210.954 179.414 210.916 178.486 210.641C177.559 210.367 176.737 209.858 176.021 209.114L178.055 207.637C178.648 208.127 179.381 208.411 180.254 208.488C181.125 208.575 182.008 208.293 182.905 207.642C183.697 207.066 184.242 206.354 184.539 205.506C184.835 204.668 184.878 203.755 184.668 202.766C184.457 201.786 183.989 200.797 183.262 199.797C182.519 198.774 181.711 198.001 180.838 197.476C179.96 196.956 179.072 196.701 178.176 196.711C177.273 196.726 176.42 197.025 175.616 197.61C175.087 197.994 174.674 198.434 174.377 198.931C174.079 199.428 173.907 199.958 173.858 200.52C173.81 201.081 173.898 201.65 174.122 202.224L172.088 203.702C171.635 202.837 171.408 201.926 171.407 200.97C171.405 200.024 171.64 199.098 172.114 198.192C172.587 197.295 173.311 196.492 174.288 195.783Z" fill="white"/>
<path d="M163.878 209.27L165.182 212.095L164.715 212.303L161.139 221.872L158.297 223.137L162.128 212.988L162.323 212.901L163.878 209.27ZM163.592 202.867L172.467 222.799L170.17 223.821L161.296 203.889L163.592 202.867ZM154.094 207.096L163.226 211.893L162.302 214.217L151.174 208.396L154.094 207.096Z" fill="white"/>
</svg>
