<svg width="243" height="242" viewBox="0 0 243 242" fill="none" xmlns="http://www.w3.org/2000/svg">
<path d="M120.219 241.849V205.969H122.35V241.849H120.219Z" fill="white"/>
<path d="M83.4056 226.162L82.4523 228.303L67.5034 221.648L68.4566 219.506L74.7243 222.297L82.6453 204.506L85.0589 205.581L77.1379 223.372L83.4056 226.162Z" fill="white"/>
<path d="M69.8552 197.357L60.2369 210.596L58.2718 209.168L59.7245 207.169L59.5866 207.068C58.8694 207.548 58.0466 207.762 57.1181 207.711C56.1897 207.66 55.329 207.346 54.5361 206.77C54.3867 206.662 54.202 206.523 53.9821 206.354C53.7622 206.186 53.599 206.054 53.4924 205.959L54.9952 203.891C55.0517 203.958 55.1909 204.099 55.4129 204.313C55.625 204.528 55.8661 204.734 56.1362 204.93C56.7797 205.398 57.4524 205.68 58.1542 205.778C58.8462 205.876 59.5098 205.797 60.1451 205.538C60.7706 205.282 61.3004 204.855 61.7345 204.257L67.8211 195.88L69.8552 197.357Z" fill="white"/>
<path d="M60.0979 181.374C60.383 181.691 60.6109 181.997 60.7815 182.292C60.9573 182.583 61.0643 182.797 61.1023 182.935L59.0279 183.943C58.7353 183.385 58.4163 182.945 58.071 182.626C57.7257 182.306 57.292 182.137 56.7699 182.12C56.2483 182.092 55.5766 182.243 54.7547 182.572L53.491 183.079L45.3161 198.583L43.4912 196.556L50.1591 184.474L50.0451 184.347L37.3322 189.716L35.5072 187.689L54.089 180.305C54.9262 179.971 55.7051 179.791 56.4257 179.763C57.1515 179.731 57.8191 179.851 58.4284 180.125C59.0329 180.393 59.5894 180.809 60.0979 181.374Z" fill="white"/>
<path d="M20.2766 143.171C22.4651 142.46 24.4848 142.24 26.3357 142.513C28.1866 142.785 29.7682 143.47 31.0805 144.567C32.3928 145.664 33.3365 147.097 33.9115 148.867C34.4865 150.637 34.5656 152.351 34.1487 154.01C33.7319 155.669 32.8548 157.152 31.5175 158.461C30.1801 159.769 28.4172 160.778 26.2287 161.49C24.0402 162.201 22.0205 162.42 20.1696 162.148C18.3187 161.875 16.7371 161.191 15.4248 160.094C14.1125 158.997 13.1688 157.563 12.5938 155.793C12.0188 154.024 11.9397 152.309 12.3566 150.651C12.7735 148.992 13.6506 147.508 14.9879 146.2C16.3252 144.892 18.0881 143.882 20.2766 143.171ZM21.0667 145.603C19.27 146.186 17.8512 146.98 16.8105 147.982C15.7675 148.978 15.0942 150.09 14.7907 151.316C14.485 152.535 14.5362 153.773 14.9444 155.03C15.3527 156.286 16.0399 157.321 17.0063 158.135C17.9704 158.942 19.1682 159.445 20.5996 159.644C22.0289 159.837 23.6419 159.642 25.4386 159.058C27.2354 158.474 28.6552 157.684 29.6982 156.688C30.739 155.685 31.4122 154.574 31.7179 153.355C32.0215 152.128 31.9691 150.887 31.5609 149.631C31.1527 148.374 30.4665 147.343 29.5024 146.536C28.536 145.722 27.3382 145.219 25.909 145.026C24.4776 144.827 22.8635 145.019 21.0667 145.603Z" fill="white"/>
<path d="M22.7208 127.439L13.1005 128.451L12.8376 125.95L29.1116 124.24L29.3744 126.74L26.6197 127.03L26.6376 127.199C27.5041 127.494 28.2692 128.013 28.933 128.758C29.5898 129.503 29.9828 130.49 30.112 131.719C30.2189 132.736 30.0914 133.663 29.7295 134.501C29.3606 135.34 28.7479 136.033 27.8913 136.58C27.0276 137.128 25.9036 137.474 24.5192 137.62L14.1784 138.707L13.9156 136.206L24.0868 135.137C25.2735 135.012 26.1851 134.581 26.8216 133.843C27.4574 133.098 27.7208 132.206 27.6117 131.167C27.5463 130.546 27.321 129.93 26.9355 129.321C26.5494 128.705 26.0049 128.212 25.3019 127.843C24.5983 127.467 23.7379 127.333 22.7208 127.439Z" fill="white"/>
<path d="M29.439 114.645L13.165 112.935L13.4189 110.519L15.877 110.778L15.8948 110.608C15.1208 110.227 14.5238 109.621 14.104 108.792C13.6841 107.962 13.5255 107.06 13.6279 106.085C13.6472 105.901 13.6749 105.672 13.7109 105.397C13.7469 105.123 13.7794 104.915 13.8084 104.776L16.3512 105.043C16.3211 105.125 16.2689 105.316 16.1946 105.616C16.114 105.907 16.0562 106.219 16.0213 106.551C15.9382 107.342 16.0299 108.066 16.2966 108.722C16.5569 109.371 16.9577 109.906 17.499 110.327C18.0341 110.74 18.6689 110.985 19.4034 111.062L29.7018 112.145L29.439 114.645Z" fill="white"/>
<path d="M40.9004 76.2178L37.534 82.0488L18.6389 71.1397L22.1545 65.0504C23.2127 63.2175 24.4965 61.8675 26.0059 61.0003C27.5092 60.1296 29.1657 59.7533 30.9755 59.8715C32.7791 59.9861 34.6589 60.608 36.6149 61.7373C38.5831 62.8737 40.0752 64.2026 41.0912 65.7241C42.101 67.242 42.6002 68.8916 42.5888 70.6728C42.5712 72.4505 42.0084 74.2988 40.9004 76.2178ZM36.8252 78.5888L38.7855 75.1936C39.6875 73.6313 40.1336 72.1626 40.1239 70.7874C40.1141 69.4122 39.6982 68.151 38.8761 67.0039C38.054 65.8568 36.8741 64.8394 35.3364 63.9516C33.8111 63.0709 32.3541 62.5618 30.9654 62.4244C29.5706 62.2834 28.2922 62.5376 27.13 63.1869C25.9616 63.8327 24.9513 64.8937 24.099 66.3699L21.9896 70.0235L36.8252 78.5888Z" fill="white"/>
<path d="M53.4506 59.3475C52.3956 60.5192 51.2269 61.297 49.9445 61.6811C48.6616 62.0551 47.3464 62.0511 45.9987 61.6691C44.6505 61.2771 43.3536 60.5203 42.108 59.3988C40.8624 58.2772 39.9689 57.0618 39.4276 55.7524C38.8857 54.4331 38.7165 53.1244 38.9201 51.8263C39.1231 50.5182 39.7188 49.3152 40.7073 48.2174C41.2776 47.584 41.9463 47.0536 42.7134 46.6262C43.4806 46.1987 44.3298 45.9455 45.261 45.8666C46.187 45.7828 47.1734 45.9398 48.2201 46.3376C49.2669 46.7353 50.3576 47.4451 51.4924 48.4668L52.2841 49.1797L43.8439 58.5534L42.2289 57.0992L48.9582 49.6256C48.2721 49.0078 47.5362 48.5937 46.7508 48.3834C45.97 48.1679 45.1982 48.1706 44.4354 48.3916C43.6772 48.6074 42.994 49.053 42.3857 49.7286C41.7156 50.4728 41.3206 51.2831 41.2006 52.1594C41.08 53.0256 41.182 53.8677 41.5064 54.6855C41.8309 55.5033 42.3283 56.2139 42.9986 56.8175L44.0753 57.787C44.9937 58.6139 45.9148 59.1565 46.8386 59.4149C47.7618 59.6632 48.6463 59.652 49.4921 59.3814C50.3326 59.106 51.0926 58.591 51.7722 57.8362C52.2142 57.3454 52.5448 56.8402 52.764 56.3208C52.9826 55.7914 53.0828 55.2556 53.0644 54.7134C53.0408 54.1665 52.8892 53.6238 52.6095 53.0852L54.7415 51.7364C55.1826 52.4776 55.4335 53.2817 55.494 54.1485C55.5492 55.0106 55.4091 55.888 55.0737 56.7806C54.733 57.6685 54.192 58.5241 53.4506 59.3475Z" fill="white"/>
<path d="M58.9206 52.587L49.3023 39.3485L51.2674 37.9208L52.7702 39.9893L52.9426 39.8641C52.7049 38.957 52.7516 38.0847 53.0825 37.2473C53.4092 36.4041 54.0036 35.6695 54.8654 35.0433C55.7388 34.4087 56.6097 34.0789 57.4781 34.0537C58.348 34.0186 59.2035 34.2355 60.0445 34.7043L60.1824 34.6041C60.0246 33.674 60.1386 32.7616 60.5244 31.8668C60.906 30.9662 61.5709 30.1715 62.5189 29.4827C63.7026 28.6227 64.94 28.2899 66.2313 28.4843C67.5183 28.6729 68.7275 29.5457 69.8588 31.1028L76.2961 39.963L74.262 41.4408L67.8248 32.5807C67.1151 31.6039 66.3407 31.0999 65.5016 31.0686C64.6625 31.0374 63.8809 31.2848 63.157 31.8108C62.2261 32.4871 61.7096 33.2926 61.6073 34.2272C61.5009 35.1561 61.7586 36.0486 62.3807 36.9048L68.6426 45.5235L66.5741 47.0264L59.9865 37.9594C59.4397 37.2067 58.755 36.778 57.9327 36.6731C57.1061 36.5626 56.3079 36.787 55.5379 37.3464C55.0093 37.7304 54.6175 38.2302 54.3623 38.8457C54.113 39.4571 54.0291 40.115 54.1108 40.8194C54.194 41.5139 54.4715 42.1859 54.9432 42.8351L60.9546 51.1092L58.9206 52.587Z" fill="white"/>
<path d="M83.9956 37.2658C82.646 37.8667 81.3189 38.0727 80.0143 37.8839C78.7161 37.6922 77.5245 37.146 76.4393 36.2453C75.3606 35.3417 74.4775 34.1178 73.79 32.5736C73.0967 31.0164 72.7737 29.5315 72.8211 28.1188C72.875 26.7032 73.265 25.4489 73.9912 24.3559C74.7239 23.26 75.765 22.4116 77.1146 21.8108C78.4641 21.2099 79.788 21.0053 81.0861 21.197C82.3908 21.3858 83.5839 21.9353 84.6654 22.8453C85.7535 23.7525 86.6442 24.9847 87.3375 26.5419C88.025 28.0861 88.3404 29.5628 88.2836 30.9719C88.2333 32.3781 87.8418 33.6292 87.1092 34.725C86.383 35.818 85.3451 36.6649 83.9956 37.2658ZM83.0769 35.2025C84.1021 34.7461 84.8286 34.1078 85.2564 33.2876C85.6842 32.4674 85.8664 31.5583 85.803 30.5603C85.7396 29.5623 85.4855 28.5637 85.0406 27.5645C84.5957 26.5653 84.0223 25.705 83.3201 24.9836C82.618 24.2623 81.8176 23.7829 80.9189 23.5455C80.0202 23.3081 79.0583 23.4176 78.0332 23.874C77.008 24.3305 76.283 24.972 75.8581 25.7987C75.4332 26.6254 75.2538 27.541 75.3201 28.5455C75.3864 29.55 75.642 30.5518 76.0868 31.551C76.5317 32.5502 77.1038 33.4072 77.803 34.1221C78.5022 34.837 79.2998 35.3099 80.1955 35.5408C81.0913 35.7717 82.0518 35.659 83.0769 35.2025Z" fill="white"/>
<path d="M122.337 0.150568L122.337 36.0312H120.206L120.206 0.150568L122.337 0.150568Z" fill="white"/>
<path d="M159.15 15.8379L160.104 13.6968L175.052 20.3525L174.099 22.4936L167.832 19.7031L159.911 37.4938L157.497 36.4192L165.418 18.6284L159.15 15.8379Z" fill="white"/>
<path d="M172.701 44.6425L182.319 31.4041L184.284 32.8318L182.831 34.8314L182.969 34.9316C183.686 34.4519 184.509 34.2376 185.438 34.2889C186.366 34.3401 187.227 34.6538 188.02 35.2299C188.169 35.3384 188.354 35.477 188.574 35.6456C188.794 35.8141 188.957 35.9459 189.063 36.0409L187.561 38.1094C187.504 38.042 187.365 37.9014 187.143 37.6874C186.931 37.4718 186.69 37.266 186.42 37.0698C185.776 36.6022 185.103 36.3198 184.402 36.2225C183.71 36.1236 183.046 36.2033 182.411 36.4615C181.785 36.7182 181.255 37.1453 180.821 37.7429L174.735 46.1204L172.701 44.6425Z" fill="white"/>
<path d="M182.458 60.6261C182.173 60.3094 181.945 60.0033 181.774 59.7077C181.598 59.4168 181.492 59.2025 181.453 59.0648L183.528 58.057C183.821 58.6155 184.139 59.0547 184.485 59.3745C184.83 59.6943 185.264 59.8629 185.786 59.8802C186.308 59.9075 186.979 59.7567 187.801 59.4276L189.065 58.9205L197.24 43.4172L199.065 45.444L192.397 57.5261L192.511 57.6528L205.224 52.2843L207.049 54.311L188.467 61.6953C187.63 62.0286 186.851 62.2091 186.13 62.2367C185.404 62.2691 184.737 62.1486 184.127 61.8753C183.523 61.6072 182.966 61.1908 182.458 60.6261Z" fill="white"/>
<path d="M222.279 98.8291C220.091 99.5402 218.071 99.7596 216.22 99.4873C214.369 99.2149 212.788 98.5302 211.475 97.4332C210.163 96.3362 209.219 94.9028 208.644 93.1331C208.069 91.3634 207.99 89.6491 208.407 87.9902C208.824 86.3313 209.701 84.8477 211.038 83.5395C212.376 82.2312 214.139 81.2216 216.327 80.5105C218.516 79.7994 220.535 79.58 222.386 79.8524C224.237 80.1247 225.819 80.8094 227.131 81.9064C228.443 83.0034 229.387 84.4368 229.962 86.2065C230.537 87.9763 230.616 89.6906 230.199 91.3494C229.782 93.0083 228.905 94.4919 227.568 95.8001C226.231 97.1084 224.468 98.118 222.279 98.8291ZM221.489 96.3975C223.286 95.8137 224.705 95.0204 225.745 94.0176C226.788 93.0215 227.462 91.9104 227.765 90.6841C228.071 89.4646 228.02 88.2267 227.611 86.9703C227.203 85.7139 226.516 84.6789 225.55 83.8653C224.585 83.0584 223.388 82.5552 221.956 82.3556C220.527 82.1629 218.914 82.3584 217.117 82.9422C215.32 83.526 213.901 84.3159 212.858 85.3119C211.817 86.3147 211.144 87.4259 210.838 88.6454C210.534 89.8716 210.587 91.1129 210.995 92.3693C211.403 93.6257 212.089 94.6573 213.053 95.4642C214.02 96.2779 215.218 96.7811 216.647 96.9738C218.078 97.1734 219.692 96.9812 221.489 96.3975Z" fill="white"/>
<path d="M219.835 114.561L229.455 113.549L229.718 116.05L213.444 117.76L213.181 115.26L215.936 114.97L215.918 114.801C215.052 114.506 214.287 113.987 213.623 113.242C212.966 112.497 212.573 111.51 212.444 110.281C212.337 109.264 212.464 108.337 212.826 107.499C213.195 106.66 213.808 105.967 214.664 105.42C215.528 104.872 216.652 104.526 218.037 104.38L228.377 103.293L228.64 105.794L218.469 106.863C217.282 106.988 216.371 107.419 215.734 108.157C215.098 108.902 214.835 109.794 214.944 110.833C215.009 111.454 215.235 112.07 215.62 112.679C216.006 113.295 216.551 113.788 217.254 114.157C217.958 114.533 218.818 114.667 219.835 114.561Z" fill="white"/>
<path d="M213.117 127.355L229.391 129.065L229.137 131.481L226.679 131.222L226.661 131.392C227.435 131.773 228.032 132.379 228.452 133.208C228.872 134.038 229.03 134.94 228.928 135.915C228.909 136.099 228.881 136.328 228.845 136.603C228.809 136.877 228.776 137.085 228.747 137.224L226.205 136.957C226.235 136.875 226.287 136.684 226.361 136.384C226.442 136.093 226.5 135.781 226.534 135.449C226.618 134.658 226.526 133.934 226.259 133.278C225.999 132.629 225.598 132.094 225.057 131.673C224.522 131.26 223.887 131.015 223.152 130.938L212.854 129.855L213.117 127.355Z" fill="white"/>
<path d="M201.655 165.782L205.022 159.951L223.917 170.86L220.401 176.95C219.343 178.783 218.059 180.133 216.55 181C215.047 181.87 213.39 182.247 211.58 182.129C209.777 182.014 207.897 181.392 205.941 180.263C203.973 179.126 202.481 177.797 201.465 176.276C200.455 174.758 199.956 173.108 199.967 171.327C199.985 169.55 200.547 167.701 201.655 165.782ZM205.731 163.411L203.77 166.806C202.868 168.369 202.422 169.837 202.432 171.213C202.442 172.588 202.858 173.849 203.68 174.996C204.502 176.143 205.682 177.161 207.219 178.048C208.745 178.929 210.202 179.438 211.59 179.576C212.985 179.717 214.264 179.462 215.426 178.813C216.594 178.167 217.605 177.106 218.457 175.63L220.566 171.977L205.731 163.411Z" fill="white"/>
<path d="M189.105 182.653C190.16 181.481 191.329 180.703 192.611 180.319C193.894 179.945 195.209 179.949 196.557 180.331C197.905 180.723 199.202 181.48 200.448 182.601C201.693 183.723 202.587 184.938 203.128 186.248C203.67 187.567 203.839 188.876 203.636 190.174C203.433 191.482 202.837 192.685 201.849 193.783C201.278 194.416 200.61 194.946 199.842 195.374C199.075 195.801 198.226 196.054 197.295 196.133C196.369 196.217 195.382 196.06 194.336 195.662C193.289 195.265 192.198 194.555 191.063 193.533L190.272 192.82L198.712 183.447L200.327 184.901L193.598 192.374C194.284 192.992 195.02 193.406 195.805 193.617C196.586 193.832 197.358 193.829 198.12 193.608C198.879 193.393 199.562 192.947 200.17 192.271C200.84 191.527 201.235 190.717 201.355 189.841C201.476 188.974 201.374 188.132 201.049 187.315C200.725 186.497 200.228 185.786 199.557 185.183L198.48 184.213C197.562 183.386 196.641 182.843 195.717 182.585C194.794 182.337 193.909 182.348 193.064 182.619C192.223 182.894 191.463 183.409 190.784 184.164C190.342 184.655 190.011 185.16 189.792 185.679C189.573 186.209 189.473 186.744 189.491 187.287C189.515 187.834 189.667 188.376 189.946 188.915L187.814 190.264C187.373 189.522 187.122 188.718 187.062 187.851C187.007 186.989 187.147 186.112 187.482 185.219C187.823 184.332 188.364 183.476 189.105 182.653Z" fill="white"/>
<path d="M183.635 189.413L193.254 202.651L191.288 204.079L189.786 202.011L189.613 202.136C189.851 203.043 189.804 203.915 189.473 204.753C189.147 205.596 188.552 206.331 187.69 206.957C186.817 207.591 185.946 207.921 185.078 207.946C184.208 207.981 183.352 207.765 182.511 207.296L182.373 207.396C182.531 208.326 182.417 209.238 182.031 210.133C181.65 211.034 180.985 211.828 180.037 212.517C178.853 213.377 177.616 213.71 176.325 213.516C175.038 213.327 173.828 212.454 172.697 210.897L166.26 202.037L168.294 200.559L174.731 209.419C175.441 210.396 176.215 210.9 177.054 210.931C177.893 210.963 178.675 210.715 179.399 210.189C180.33 209.513 180.846 208.707 180.949 207.773C181.055 206.844 180.797 205.951 180.175 205.095L173.913 196.476L175.982 194.974L182.569 204.041C183.116 204.793 183.801 205.222 184.623 205.327C185.45 205.437 186.248 205.213 187.018 204.654C187.546 204.27 187.938 203.77 188.193 203.154C188.443 202.543 188.527 201.885 188.445 201.181C188.362 200.486 188.084 199.814 187.613 199.165L181.601 190.891L183.635 189.413Z" fill="white"/>
<path d="M158.56 204.734C159.91 204.133 161.237 203.927 162.542 204.116C163.84 204.308 165.031 204.854 166.116 205.755C167.195 206.658 168.078 207.882 168.766 209.426C169.459 210.984 169.782 212.469 169.735 213.881C169.681 215.297 169.291 216.551 168.565 217.644C167.832 218.74 166.791 219.588 165.441 220.189C164.092 220.79 162.768 220.995 161.47 220.803C160.165 220.614 158.972 220.065 157.89 219.155C156.802 218.247 155.912 217.015 155.218 215.458C154.531 213.914 154.215 212.437 154.272 211.028C154.322 209.622 154.714 208.371 155.447 207.275C156.173 206.182 157.211 205.335 158.56 204.734ZM159.479 206.797C158.454 207.254 157.727 207.892 157.299 208.712C156.872 209.533 156.689 210.442 156.753 211.44C156.816 212.438 157.07 213.436 157.515 214.435C157.96 215.435 158.534 216.295 159.236 217.016C159.938 217.738 160.738 218.217 161.637 218.455C162.536 218.692 163.497 218.582 164.523 218.126C165.548 217.67 166.273 217.028 166.698 216.201C167.123 215.375 167.302 214.459 167.236 213.455C167.169 212.45 166.914 211.448 166.469 210.449C166.024 209.45 165.452 208.593 164.753 207.878C164.054 207.163 163.256 206.69 162.36 206.459C161.464 206.228 160.504 206.341 159.479 206.797Z" fill="white"/>
</svg>
