<svg width="244" height="242" viewBox="0 0 244 242" fill="none" xmlns="http://www.w3.org/2000/svg">
<path d="M120.941 241.849V205.969H123.072V241.849H120.941Z" fill="white"/>
<path d="M90.3978 230.818L87.4574 229.679L87.0857 210.112L86.8473 210.02L73.3908 224.229L70.4504 223.09L78.332 202.745L80.6367 203.638L74.6485 219.096L74.8472 219.173L87.1931 206.178L89.4183 207.04L89.7879 224.961L89.9866 225.038L95.9748 209.58L98.2795 210.473L90.3978 230.818Z" fill="white"/>
<path d="M80.1393 196.071C80.5016 196.296 80.8059 196.526 81.0523 196.762C81.3025 196.992 81.4651 197.168 81.5402 197.289L79.8302 198.837C79.3931 198.383 78.9641 198.05 78.5431 197.84C78.1221 197.629 77.6586 197.588 77.1525 197.718C76.6441 197.837 76.0413 198.17 75.3442 198.716L74.2727 199.556L70.7582 216.727L68.4395 215.291L71.4635 201.826L71.3186 201.737L60.6136 210.445L58.2948 209.01L74.071 196.725C74.7817 196.17 75.479 195.779 76.1632 195.551C76.851 195.317 77.5257 195.246 78.1871 195.339C78.8424 195.427 79.4931 195.671 80.1393 196.071Z" fill="white"/>
<path d="M37.9681 194.702L36.0978 196.115L26.2365 183.056L28.1068 181.644L32.2414 187.119L47.7823 175.383L49.3745 177.491L33.8336 189.227L37.9681 194.702Z" fill="white"/>
<path d="M39.7578 161.47C40.4606 162.881 40.7553 164.254 40.642 165.588C40.5191 166.918 40.0327 168.14 39.1828 169.254C38.3234 170.364 37.1435 171.293 35.6431 172.04C34.1426 172.787 32.6841 173.172 31.2675 173.195C29.8413 173.215 28.5618 172.892 27.429 172.226C26.2867 171.557 25.3862 170.562 24.7278 169.239C24.3479 168.477 24.0999 167.66 23.9838 166.789C23.8677 165.919 23.9438 165.036 24.2121 164.141C24.474 163.249 24.982 162.389 25.7362 161.561C26.4903 160.733 27.5508 159.979 28.9177 159.298L29.8714 158.824L35.4938 170.115L33.5483 171.084L29.0656 162.081C28.2391 162.493 27.5839 163.025 27.1001 163.679C26.613 164.326 26.3323 165.045 26.258 165.835C26.1805 166.62 26.3443 167.419 26.7495 168.233C27.1959 169.129 27.8046 169.794 28.5757 170.227C29.3373 170.657 30.158 170.871 31.0379 170.87C31.9177 170.868 32.7613 170.666 33.5687 170.264L34.8657 169.618C35.9719 169.067 36.8147 168.41 37.3941 167.645C37.9639 166.878 38.2781 166.051 38.3367 165.165C38.389 164.282 38.1888 163.386 37.7361 162.476C37.4417 161.885 37.0931 161.392 36.6904 160.998C36.2781 160.6 35.8164 160.31 35.3054 160.128C34.7879 159.95 34.2274 159.892 33.6238 159.954L33.1515 157.476C34.003 157.338 34.843 157.399 35.6715 157.661C36.4937 157.926 37.2585 158.378 37.9657 159.018C38.6666 159.661 39.264 160.478 39.7578 161.47Z" fill="white"/>
<path d="M19.6409 143.828L20.8738 145.826C20.5506 146.065 20.2561 146.367 19.9904 146.73C19.7158 147.089 19.53 147.526 19.4328 148.041C19.3357 148.556 19.3872 149.165 19.5874 149.869C19.8615 150.832 20.3119 151.572 20.9386 152.087C21.5565 152.598 22.2036 152.758 22.8799 152.565C23.4811 152.394 23.8936 152.04 24.1176 151.504C24.3416 150.968 24.4376 150.202 24.4055 149.207L24.3146 146.707C24.2558 145.203 24.48 144.006 24.9873 143.116C25.4878 142.227 26.2879 141.627 27.3877 141.314C28.2895 141.057 29.1694 141.088 30.0275 141.405C30.8838 141.715 31.648 142.273 32.3203 143.078C32.9925 143.884 33.5026 144.898 33.8505 146.121C34.3073 147.726 34.3369 149.154 33.9394 150.404C33.542 151.654 32.7137 152.61 31.4544 153.271L30.2276 151.139C31.0124 150.68 31.5301 150.085 31.7807 149.357C32.0293 148.622 32.0127 147.759 31.7309 146.768C31.4102 145.641 30.9164 144.814 30.2497 144.288C29.5742 143.756 28.8984 143.587 28.2221 143.779C27.6756 143.935 27.2723 144.256 27.0123 144.744C26.7454 145.233 26.6325 145.9 26.6735 146.745L26.8051 149.543C26.8736 151.082 26.6455 152.291 26.1206 153.172C25.587 154.047 24.7771 154.639 23.6909 154.948C22.8029 155.201 21.9464 155.175 21.1214 154.871C20.2944 154.56 19.5628 154.026 18.9266 153.269C18.2885 152.505 17.8119 151.57 17.4971 150.464C17.0539 148.906 17.0476 147.586 17.478 146.504C17.9065 145.415 18.6275 144.523 19.6409 143.828Z" fill="white"/>
<path d="M13.6863 126.549L15.8079 126.353L16.5904 134.797L14.4688 134.993L13.6863 126.549ZM10.337 132.894L10.105 130.39L25.6351 128.951C26.3423 128.886 26.8632 128.734 27.1978 128.496C27.5246 128.252 27.7331 127.962 27.8232 127.625C27.9055 127.282 27.9297 126.927 27.8956 126.559C27.87 126.283 27.8349 126.058 27.7903 125.884C27.7385 125.711 27.6971 125.572 27.6661 125.468L29.8678 124.75C29.9472 124.914 30.0328 125.145 30.1246 125.443C30.2235 125.741 30.2946 126.123 30.3378 126.59C30.4033 127.297 30.3155 128.004 30.0743 128.711C29.8325 129.411 29.421 130.013 28.84 130.516C28.2583 131.012 27.4936 131.304 26.546 131.392L10.337 132.894Z" fill="white"/>
<path d="M19.1437 86.5276C18.0704 86.3552 17.1224 86.6245 16.2998 87.3356C15.4772 88.0467 14.8852 89.0376 14.5236 90.3082C14.2593 91.2372 14.1783 92.0929 14.2806 92.8752C14.3849 93.6507 14.6446 94.3079 15.0598 94.8469C15.477 95.3791 16.0203 95.7405 16.6897 95.931C17.2499 96.0903 17.7694 96.0942 18.2482 95.9424C18.7222 95.7819 19.1526 95.5278 19.5395 95.1801C19.9196 94.8304 20.2612 94.4476 20.5641 94.0316C20.8602 93.6138 21.1149 93.2247 21.3282 92.8645L22.5084 90.8965C22.8073 90.3908 23.1784 89.8392 23.6216 89.2416C24.0668 88.6373 24.5955 88.0899 25.2076 87.5995C25.8148 87.1003 26.5139 86.7454 27.3049 86.5348C28.0958 86.3241 28.9831 86.3588 29.9668 86.6387C31.1008 86.9613 32.0409 87.55 32.7872 88.4048C33.5354 89.2527 34.018 90.3204 34.2351 91.6079C34.454 92.8886 34.3342 94.335 33.8755 95.9472C33.4479 97.45 32.8351 98.6824 32.0372 99.6442C31.2412 100.599 30.32 101.267 29.2736 101.649C28.2292 102.024 27.1215 102.089 25.9505 101.844L26.6969 99.2213C27.5087 99.3784 28.2403 99.2986 28.8917 98.9818C29.5381 98.6562 30.0898 98.1708 30.5466 97.5254C30.9985 96.8713 31.3431 96.1275 31.5802 95.2941C31.8562 94.3241 31.9469 93.4084 31.8523 92.5471C31.7508 91.6838 31.4808 90.9461 31.0421 90.3339C30.5965 89.7198 29.9912 89.3039 29.2261 89.0862C28.5294 88.888 27.907 88.9213 27.359 89.1863C26.811 89.4513 26.31 89.8626 25.856 90.4201C25.402 90.9777 24.9676 91.5962 24.5527 92.2756L23.0803 94.6479C22.1425 96.1532 21.1003 97.2597 19.9538 97.9673C18.8073 98.6749 17.5271 98.8275 16.113 98.4252C14.938 98.0909 14.0038 97.4817 13.3101 96.5976C12.6116 95.7047 12.1734 94.6496 11.9955 93.4323C11.8127 92.2062 11.9117 90.9237 12.2927 89.5848C12.6775 88.2323 13.2621 87.099 14.0464 86.185C14.8239 85.269 15.7169 84.6222 16.7252 84.2445C17.7355 83.86 18.7749 83.8013 19.8434 84.0684L19.1437 86.5276Z" fill="white"/>
<path d="M26.9886 68.6982L28.8959 69.648L25.116 77.239L23.2087 76.2893L26.9886 68.6982ZM20.8009 72.3293L21.9216 70.0787L35.8831 77.0307C36.5189 77.3473 37.0416 77.4925 37.4513 77.4664C37.8578 77.4308 38.1879 77.2937 38.4416 77.0551C38.6921 76.8069 38.8997 76.5175 39.0643 76.1869C39.1877 75.939 39.2763 75.7292 39.33 75.5576C39.3774 75.3828 39.4153 75.243 39.4437 75.1382L41.6934 75.6871C41.6746 75.8682 41.6258 76.1097 41.5469 76.4115C41.4743 76.7166 41.3336 77.0789 41.1246 77.4985C40.8081 78.1343 40.3611 78.6893 39.7838 79.1635C39.2097 79.6313 38.5432 79.9262 37.7843 80.0482C37.0285 80.1638 36.2247 80.0095 35.3727 79.5852L20.8009 72.3293Z" fill="white"/>
<path d="M46.6058 68.175L33.5474 58.3138L35.0111 56.3754L36.9835 57.8649L37.0862 57.7288C36.6199 57.0029 36.4209 56.1762 36.4893 55.2489C36.5577 54.3215 36.8872 53.4668 37.4779 52.6846C37.5892 52.5373 37.7311 52.3552 37.9037 52.1385C38.0763 51.9217 38.211 51.7609 38.308 51.6561L40.3484 53.1969C40.28 53.2521 40.1368 53.3887 39.9187 53.6068C39.6993 53.8148 39.489 54.0521 39.2878 54.3185C38.8085 54.9532 38.5137 55.6206 38.4034 56.3205C38.2917 57.0105 38.3592 57.6755 38.6056 58.3155C38.8507 58.9456 39.268 59.4832 39.8574 59.9283L48.121 66.1687L46.6058 68.175Z" fill="white"/>
<path d="M59.09 53.859L48.0659 41.7661L49.9239 40.0723L60.948 52.1652L59.09 53.859ZM47.1733 38.8894C46.8111 39.2195 46.3864 39.3809 45.8991 39.3734C45.417 39.3612 45.0181 39.1819 44.7023 38.8355C44.3865 38.489 44.2447 38.0753 44.277 37.5941C44.3146 37.1082 44.5144 36.7002 44.8766 36.37C45.2388 36.0399 45.6609 35.8809 46.1429 35.8931C46.6303 35.9006 47.0318 36.0775 47.3476 36.4239C47.6634 36.7703 47.8025 37.1865 47.765 37.6724C47.7327 38.1536 47.5355 38.5592 47.1733 38.8894Z" fill="white"/>
<path d="M65.0201 36.4949L70.2022 44.8642L68.0646 46.1878L59.4502 32.2751L61.5154 30.9964L62.8614 33.1703L63.0425 33.0581C62.9311 32.1497 63.0748 31.2755 63.4736 30.4355C63.8687 29.5895 64.5915 28.8412 65.6422 28.1906C66.5842 27.6073 67.5281 27.2902 68.4739 27.2392C69.4159 27.1822 70.3244 27.4217 71.1992 27.9576C72.0703 28.4875 72.8722 29.3442 73.605 30.5278L79.0787 39.3681L76.9411 40.6916L71.5571 31.9962C70.8804 30.9033 70.0694 30.2276 69.1242 29.9691C68.1752 29.7047 67.2056 29.879 66.2152 30.4922C65.5329 30.9147 65.0146 31.4403 64.6604 32.0689C64.3122 32.6938 64.1599 33.3854 64.2034 34.1437C64.2468 34.902 64.5191 35.6857 65.0201 36.4949Z" fill="white"/>
<path d="M91.3533 41.1565C90.2208 41.5952 89.1909 41.8267 88.2634 41.8508C87.3385 41.8816 86.5134 41.7671 85.7882 41.5073C85.0722 41.2515 84.4526 40.9203 83.9294 40.5136L85.289 38.4788C85.6087 38.6749 86.0001 38.8889 86.4631 39.1208C86.9288 39.3593 87.4943 39.502 88.1599 39.5488C88.8346 39.5997 89.6323 39.4468 90.5528 39.0902C91.7847 38.613 92.6858 37.9211 93.2562 37.0147C93.8267 36.1082 93.8656 35.0192 93.373 33.7476L92.1722 30.6482L91.9736 30.7252C91.9091 31.07 91.7975 31.5093 91.6387 32.0431C91.4839 32.5677 91.1734 33.1031 90.7071 33.6493C90.2449 34.1863 89.5171 34.6473 88.5237 35.0321C87.2919 35.5093 86.073 35.6464 84.8671 35.4433C83.6678 35.2377 82.5679 34.6889 81.5673 33.7969C80.5733 32.9024 79.7685 31.6604 79.1527 30.0709C78.5472 28.508 78.2948 27.0406 78.3955 25.6686C78.4937 24.2901 78.9096 23.0931 79.6435 22.0776C80.3748 21.0555 81.3828 20.2956 82.6676 19.7978C83.661 19.413 84.5133 19.2732 85.2243 19.3786C85.9395 19.4748 86.5335 19.6712 87.0064 19.9678C87.4834 20.2553 87.8592 20.4981 88.1341 20.6963L88.3725 20.6039L87.4335 18.18L89.6984 17.3026L95.779 32.9983C96.287 34.3096 96.402 35.4913 96.1241 36.5434C95.8554 37.5996 95.2954 38.5135 94.4442 39.285C93.6022 40.0606 92.5719 40.6844 91.3533 41.1565ZM88.0257 32.803C88.9662 32.4386 89.6775 31.9155 90.1598 31.2336C90.642 30.5517 90.8955 29.7414 90.9203 28.8025C90.945 27.8637 90.7393 26.8314 90.3031 25.7055C89.8773 24.6062 89.3358 23.7001 88.6789 22.9873C88.0219 22.2745 87.2765 21.8054 86.4428 21.58C85.609 21.3546 84.7153 21.4266 83.7617 21.7961C82.7683 22.1809 82.0379 22.7533 81.5706 23.5132C81.11 24.2705 80.8783 25.1372 80.8756 26.1131C80.8794 27.0866 81.0815 28.0898 81.4818 29.123C81.8923 30.1826 82.4209 31.0556 83.0676 31.7419C83.7183 32.419 84.4613 32.8623 85.2966 33.0719C86.1359 33.2723 87.0456 33.1827 88.0257 32.803Z" fill="white"/>
<path d="M123.059 0.150568L123.059 36.0312H120.928L120.928 0.150568L123.059 0.150568Z" fill="white"/>
<path d="M153.602 11.1821L156.543 12.3212L156.914 31.8876L157.153 31.9799L170.609 17.7706L173.55 18.9098L165.668 39.2546L163.363 38.3618L169.352 22.9045L169.153 22.8275L156.807 35.8218L154.582 34.9597L154.212 17.0394L154.013 16.9624L148.025 32.4198L145.721 31.5269L153.602 11.1821Z" fill="white"/>
<path d="M163.861 45.9288C163.498 45.7045 163.194 45.4743 162.948 45.2382C162.697 45.0081 162.535 44.8322 162.46 44.7106L164.17 43.1631C164.607 43.6175 165.036 43.9499 165.457 44.1605C165.878 44.371 166.341 44.4116 166.848 44.2822C167.356 44.1627 167.959 43.83 168.656 43.2843L169.727 42.4441L173.242 25.2735L175.561 26.7092L172.536 40.1738L172.681 40.2635L183.386 31.5548L185.705 32.9905L169.929 45.2755C169.218 45.8295 168.521 46.2206 167.837 46.4485C167.149 46.6825 166.474 46.7535 165.813 46.6614C165.158 46.5731 164.507 46.3289 163.861 45.9288Z" fill="white"/>
<path d="M206.032 47.2977L207.902 45.8853L217.764 58.9438L215.893 60.3562L211.759 54.8812L196.218 66.6171L194.626 64.5087L210.166 52.7728L206.032 47.2977Z" fill="white"/>
<path d="M204.242 80.5303C203.539 79.1188 203.245 77.7462 203.358 76.4124C203.481 75.0818 203.967 73.8597 204.817 72.7462C205.677 71.636 206.857 70.7073 208.357 69.9602C209.857 69.2131 211.316 68.828 212.733 68.8049C214.159 68.785 215.438 69.1079 216.571 69.7736C217.713 70.4425 218.614 71.4382 219.272 72.7606C219.652 73.5235 219.9 74.3402 220.016 75.2107C220.132 76.0811 220.056 76.964 219.788 77.8593C219.526 78.7514 219.018 79.6113 218.264 80.439C217.51 81.2668 216.449 82.021 215.082 82.7016L214.129 83.1765L208.506 71.8852L210.452 70.9165L214.934 79.919C215.761 79.5074 216.416 78.9749 216.9 78.3214C217.387 77.6743 217.668 76.9553 217.742 76.1645C217.82 75.3801 217.656 74.581 217.25 73.7673C216.804 72.8708 216.195 72.206 215.424 71.7728C214.663 71.3427 213.842 71.1285 212.962 71.1303C212.082 71.132 211.239 71.3339 210.431 71.7359L209.134 72.3817C208.028 72.9326 207.185 73.5903 206.606 74.3548C206.036 75.1225 205.722 75.9494 205.663 76.8355C205.611 77.7184 205.811 78.6144 206.264 79.5235C206.558 80.1148 206.907 80.6077 207.31 81.0022C207.722 81.3999 208.184 81.6897 208.695 81.8716C209.212 82.0503 209.773 82.1084 210.376 82.0459L210.849 84.5242C209.997 84.6625 209.157 84.6008 208.328 84.339C207.506 84.074 206.742 83.6217 206.034 82.9821C205.333 82.3393 204.736 81.5221 204.242 80.5303Z" fill="white"/>
<path d="M224.359 98.1718L223.126 96.1744C223.449 95.9348 223.744 95.6331 224.01 95.2695C224.284 94.9108 224.47 94.474 224.567 93.959C224.664 93.444 224.613 92.8347 224.413 92.1311C224.139 91.1679 223.688 90.4284 223.061 89.9126C222.443 89.4017 221.796 89.2425 221.12 89.4349C220.519 89.6059 220.106 89.9596 219.882 90.4959C219.658 91.0322 219.562 91.798 219.594 92.7931L219.685 95.2926C219.744 96.797 219.52 97.9943 219.013 98.8844C218.512 99.7726 217.712 100.373 216.612 100.686C215.711 100.943 214.831 100.912 213.972 100.595C213.116 100.285 212.352 99.7273 211.68 98.9217C211.007 98.1161 210.497 97.1019 210.149 95.8792C209.693 94.2738 209.663 92.846 210.061 91.5958C210.458 90.3456 211.286 89.3899 212.546 88.7289L213.772 90.8609C212.988 91.3205 212.47 91.9145 212.219 92.643C211.971 93.3783 211.987 94.2412 212.269 95.2318C212.59 96.3589 213.084 97.1857 213.75 97.7123C214.426 98.2438 215.102 98.4133 215.778 98.2209C216.324 98.0654 216.728 97.7439 216.988 97.2564C217.255 96.7669 217.368 96.0998 217.326 95.2549L217.195 92.4568C217.126 90.9182 217.355 89.7088 217.879 88.8284C218.413 87.9529 219.223 87.3607 220.309 87.0516C221.197 86.799 222.054 86.8248 222.879 87.1291C223.706 87.4402 224.437 87.9742 225.073 88.731C225.712 89.4946 226.188 90.4297 226.503 91.5363C226.946 93.0938 226.952 94.4138 226.522 95.4962C226.093 96.5854 225.373 97.4773 224.359 98.1718Z" fill="white"/>
<path d="M230.314 115.451L228.192 115.647L227.41 107.203L229.531 107.007L230.314 115.451ZM233.663 109.106L233.895 111.61L218.365 113.049C217.658 113.114 217.137 113.266 216.802 113.504C216.475 113.748 216.267 114.038 216.177 114.375C216.094 114.718 216.07 115.073 216.104 115.441C216.13 115.717 216.165 115.942 216.21 116.116C216.261 116.289 216.303 116.428 216.334 116.532L214.132 117.25C214.053 117.086 213.967 116.855 213.875 116.557C213.777 116.259 213.705 115.877 213.662 115.41C213.597 114.703 213.684 113.996 213.926 113.289C214.168 112.589 214.579 111.987 215.16 111.484C215.742 110.988 216.506 110.696 217.454 110.608L233.663 109.106Z" fill="white"/>
<path d="M224.856 155.472C225.93 155.645 226.878 155.376 227.7 154.664C228.523 153.953 229.115 152.962 229.476 151.692C229.741 150.763 229.822 149.907 229.719 149.125C229.615 148.349 229.355 147.692 228.94 147.153C228.523 146.621 227.98 146.26 227.31 146.069C226.75 145.91 226.231 145.906 225.752 146.058C225.278 146.218 224.847 146.472 224.46 146.82C224.08 147.17 223.739 147.552 223.436 147.968C223.14 148.386 222.885 148.775 222.672 149.135L221.492 151.104C221.193 151.609 220.822 152.161 220.378 152.758C219.933 153.363 219.405 153.91 218.792 154.401C218.185 154.9 217.486 155.255 216.695 155.465C215.904 155.676 215.017 155.641 214.033 155.361C212.899 155.039 211.959 154.45 211.213 153.595C210.465 152.747 209.982 151.68 209.765 150.392C209.546 149.111 209.666 147.665 210.125 146.053C210.552 144.55 211.165 143.318 211.963 142.356C212.759 141.401 213.68 140.733 214.726 140.351C215.771 139.976 216.878 139.911 218.049 140.156L217.303 142.779C216.491 142.622 215.76 142.701 215.108 143.018C214.462 143.344 213.91 143.829 213.453 144.475C213.001 145.129 212.657 145.872 212.42 146.706C212.144 147.676 212.053 148.592 212.148 149.453C212.249 150.316 212.519 151.054 212.958 151.666C213.403 152.28 214.009 152.696 214.774 152.914C215.471 153.112 216.093 153.079 216.641 152.814C217.189 152.549 217.69 152.137 218.144 151.58C218.598 151.022 219.032 150.404 219.447 149.724L220.92 147.352C221.858 145.847 222.9 144.74 224.046 144.033C225.193 143.325 226.473 143.173 227.887 143.575C229.062 143.909 229.996 144.518 230.69 145.402C231.388 146.295 231.827 147.35 232.005 148.568C232.187 149.794 232.088 151.076 231.707 152.415C231.322 153.768 230.738 154.901 229.954 155.815C229.176 156.731 228.283 157.378 227.275 157.755C226.265 158.14 225.225 158.199 224.157 157.932L224.856 155.472Z" fill="white"/>
<path d="M217.011 173.302L215.104 172.352L218.884 164.761L220.791 165.711L217.011 173.302ZM223.199 169.671L222.078 171.921L208.117 164.969C207.481 164.653 206.958 164.507 206.549 164.534C206.142 164.569 205.812 164.706 205.558 164.945C205.308 165.193 205.1 165.482 204.936 165.813C204.812 166.061 204.724 166.271 204.67 166.442C204.623 166.617 204.585 166.757 204.556 166.862L202.307 166.313C202.325 166.132 202.374 165.89 202.453 165.588C202.526 165.283 202.666 164.921 202.875 164.501C203.192 163.866 203.639 163.311 204.216 162.837C204.79 162.369 205.457 162.074 206.216 161.952C206.971 161.836 207.775 161.991 208.627 162.415L223.199 169.671Z" fill="white"/>
<path d="M197.394 173.825L210.453 183.686L208.989 185.625L207.016 184.135L206.914 184.271C207.38 184.997 207.579 185.824 207.511 186.751C207.442 187.678 207.113 188.533 206.522 189.315C206.411 189.463 206.269 189.645 206.096 189.862C205.924 190.078 205.789 190.239 205.692 190.344L203.652 188.803C203.72 188.748 203.863 188.611 204.081 188.393C204.301 188.185 204.511 187.948 204.712 187.682C205.192 187.047 205.486 186.379 205.597 185.679C205.708 184.989 205.641 184.324 205.394 183.684C205.149 183.054 204.732 182.517 204.143 182.072L195.879 175.831L197.394 173.825Z" fill="white"/>
<path d="M184.91 188.141L195.934 200.234L194.076 201.928L183.052 189.835L184.91 188.141ZM196.827 203.111C197.189 202.78 197.614 202.619 198.101 202.627C198.583 202.639 198.982 202.818 199.298 203.165C199.613 203.511 199.755 203.925 199.723 204.406C199.685 204.892 199.486 205.3 199.123 205.63C198.761 205.96 198.339 206.119 197.857 206.107C197.37 206.099 196.968 205.922 196.652 205.576C196.337 205.23 196.197 204.813 196.235 204.328C196.267 203.846 196.465 203.441 196.827 203.111Z" fill="white"/>
<path d="M178.98 205.505L173.798 197.136L175.935 195.812L184.55 209.725L182.485 211.004L181.139 208.83L180.957 208.942C181.069 209.85 180.925 210.724 180.526 211.564C180.131 212.411 179.408 213.159 178.358 213.809C177.416 214.393 176.472 214.71 175.526 214.761C174.584 214.818 173.676 214.578 172.801 214.042C171.93 213.513 171.128 212.656 170.395 211.472L164.921 202.632L167.059 201.308L172.443 210.004C173.12 211.097 173.931 211.772 174.876 212.031C175.825 212.295 176.794 212.121 177.785 211.508C178.467 211.085 178.985 210.56 179.34 209.931C179.688 209.306 179.84 208.615 179.797 207.856C179.753 207.098 179.481 206.314 178.98 205.505Z" fill="white"/>
<path d="M152.647 200.844C153.779 200.405 154.809 200.173 155.737 200.149C156.662 200.118 157.487 200.233 158.212 200.493C158.928 200.748 159.547 201.08 160.071 201.486L158.711 203.521C158.391 203.325 158 203.111 157.537 202.879C157.071 202.641 156.506 202.498 155.84 202.451C155.165 202.4 154.368 202.553 153.447 202.91C152.215 203.387 151.314 204.079 150.744 204.985C150.173 205.892 150.134 206.981 150.627 208.252L151.828 211.352L152.026 211.275C152.091 210.93 152.202 210.491 152.361 209.957C152.516 209.432 152.827 208.897 153.293 208.351C153.755 207.814 154.483 207.353 155.476 206.968C156.708 206.491 157.927 206.354 159.133 206.557C160.332 206.762 161.432 207.311 162.433 208.203C163.427 209.098 164.232 210.34 164.847 211.929C165.453 213.492 165.705 214.959 165.604 216.331C165.506 217.71 165.09 218.907 164.356 219.922C163.625 220.945 162.617 221.704 161.332 222.202C160.339 222.587 159.487 222.727 158.776 222.621C158.061 222.525 157.466 222.329 156.994 222.032C156.517 221.745 156.141 221.502 155.866 221.304L155.628 221.396L156.567 223.82L154.302 224.697L148.221 209.002C147.713 207.69 147.598 206.509 147.876 205.457C148.145 204.4 148.705 203.487 149.556 202.715C150.398 201.939 151.428 201.316 152.647 200.844ZM155.974 209.197C155.034 209.561 154.322 210.084 153.84 210.766C153.358 211.448 153.104 212.259 153.08 213.197C153.055 214.136 153.261 215.169 153.697 216.294C154.123 217.394 154.664 218.3 155.321 219.013C155.978 219.726 156.723 220.195 157.557 220.42C158.391 220.645 159.285 220.573 160.238 220.204C161.232 219.819 161.962 219.247 162.429 218.487C162.89 217.73 163.122 216.863 163.124 215.887C163.121 214.913 162.918 213.91 162.518 212.877C162.108 211.817 161.579 210.944 160.932 210.258C160.282 209.581 159.539 209.138 158.703 208.928C157.864 208.728 156.954 208.817 155.974 209.197Z" fill="white"/>
</svg>
