<?xml version="1.0" standalone="no"?>
<!DOCTYPE svg PUBLIC "-//W3C//DTD SVG 20010904//EN"
 "http://www.w3.org/TR/2001/REC-SVG-20010904/DTD/svg10.dtd">
<svg version="1.0" xmlns="http://www.w3.org/2000/svg"
 width="512.000000pt" height="512.000000pt" viewBox="0 0 512.000000 512.000000"
 preserveAspectRatio="xMidYMid meet">
<metadata>
Created by potrace 1.16, written by Peter Selinger 2001-2019
</metadata>
<g transform="translate(0.000000,512.000000) scale(0.100000,-0.100000)"
fill="white" stroke="none">
<path d="M4615 4101 l-90 -48 -135 -6 c-219 -9 -446 -53 -695 -134 -144 -46
-247 -89 -430 -178 -145 -71 -157 -75 -330 -109 -99 -19 -238 -44 -309 -56
-99 -16 -152 -30 -222 -61 -92 -40 -92 -40 -126 -23 -18 9 -46 26 -61 36 l-28
20 20 34 20 34 -47 32 c-26 17 -104 74 -174 126 l-127 95 19 25 c50 63 1 77
-119 32 -296 -111 -438 -172 -467 -199 -18 -17 -34 -28 -37 -25 -3 3 -75 -28
-160 -68 -86 -40 -154 -74 -152 -76 2 -2 72 28 156 67 84 39 154 69 156 67 3
-2 -9 -31 -26 -65 -17 -33 -31 -64 -31 -69 0 -5 33 3 74 17 l74 26 64 -69 c35
-38 80 -92 100 -121 l38 -53 -252 -138 c-283 -157 -288 -161 -288 -259 0 -91
13 -123 81 -191 l62 -63 -48 -28 c-26 -15 -57 -36 -69 -45 -21 -17 -20 -17 21
-18 24 0 62 10 88 22 l45 22 25 -24 24 -25 -142 -156 c-433 -473 -577 -638
-577 -661 0 -8 31 -9 101 -4 l101 6 -23 -32 c-13 -18 -53 -71 -89 -118 -63
-80 -96 -130 -87 -130 3 0 29 11 58 24 30 12 79 26 109 29 39 4 89 23 170 64
140 70 130 65 130 59 0 -3 -38 -26 -85 -52 -106 -60 -247 -198 -415 -409 -35
-44 -70 -88 -78 -97 -13 -15 -11 -16 20 -13 333 34 355 38 488 80 59 19 119
35 134 35 34 0 368 121 577 209 214 90 331 144 634 290 278 135 270 133 430
105 102 -17 341 -69 397 -86 l37 -11 -53 -61 c-54 -63 -117 -148 -113 -152 1
-1 37 2 79 6 87 10 112 21 218 94 71 49 77 52 115 44 72 -15 72 -16 25 -57
-49 -42 -48 -53 8 -77 137 -59 239 -71 322 -38 50 20 201 132 440 325 141 115
165 138 168 165 3 35 -30 84 -56 84 -9 -1 -41 -14 -71 -30 l-54 -29 -90 112
c-50 62 -96 115 -102 119 -5 4 -24 8 -42 8 -26 0 -40 10 -79 55 -74 85 -162
206 -184 250 l-20 40 27 100 c25 94 30 104 91 175 84 96 116 164 118 253 l1
67 169 173 c235 239 374 427 439 590 28 70 57 99 168 166 31 19 45 32 35 31
-2 0 -43 -22 -93 -49z m-125 -90 c0 -4 -42 -45 -93 -89 -52 -45 -100 -89 -108
-99 -17 -21 34 20 131 107 58 52 71 60 65 40 -11 -40 -110 -202 -160 -263 -40
-49 -195 -186 -195 -172 0 10 32 56 104 153 83 112 79 133 -12 72 -70 -47 -78
-56 -63 -73 13 -17 -11 -65 -55 -108 -29 -28 -34 -30 -35 -13 0 10 -5 3 -11
-16 -5 -20 -35 -61 -67 -95 -105 -109 -110 -158 -6 -55 36 36 65 62 65 59 0
-2 -35 -39 -77 -82 l-78 -77 0 58 c0 49 -3 57 -20 60 -22 3 -223 -119 -417
-253 -118 -81 -128 -90 -128 -119 0 -25 -11 -42 -52 -82 -106 -103 -321 -271
-419 -327 -66 -39 -118 -36 -194 8 -33 20 -78 52 -100 71 -29 27 -32 32 -12
19 16 -9 31 -14 34 -12 7 7 -57 42 -82 44 -11 1 -30 5 -42 9 -19 5 -23 2 -23
-15 0 -15 29 -39 112 -94 179 -116 222 -138 283 -144 49 -5 58 -3 91 22 64 49
224 207 321 317 132 150 132 150 283 165 69 6 141 12 161 12 l37 1 -29 -74
c-16 -41 -38 -129 -49 -197 -12 -68 -25 -141 -29 -161 -4 -21 -5 -39 -2 -40 3
-2 19 -23 34 -47 16 -24 74 -101 130 -172 99 -127 101 -129 141 -130 39 0 44
-4 123 -98 45 -54 83 -103 85 -109 2 -5 -46 -42 -107 -82 -169 -112 -228 -159
-220 -179 15 -34 13 -96 -3 -113 -23 -27 -51 -22 -190 31 -161 61 -192 71
-384 121 -204 52 -439 105 -559 125 -164 27 -168 30 -90 64 66 28 82 27 116
-9 22 -23 45 -33 104 -46 125 -27 299 -72 419 -108 61 -19 114 -31 117 -27 2
4 -1 8 -8 8 -7 0 -66 17 -132 37 -132 41 -392 106 -423 106 -11 0 -38 17 -61
38 l-42 37 108 49 c200 91 312 162 463 294 64 57 25 33 -68 -41 -127 -101
-181 -131 -323 -182 -68 -24 -125 -43 -126 -41 -1 1 26 24 62 50 58 43 73 56
61 56 -2 0 -43 -29 -91 -65 -62 -47 -111 -74 -166 -93 l-78 -27 -35 40 c-19
22 -35 42 -36 45 0 3 37 27 83 54 45 27 125 77 178 111 l96 62 16 60 17 60 57
6 57 6 48 -52 c26 -29 50 -60 53 -69 4 -10 12 -18 18 -18 18 0 217 170 217
184 0 20 -81 117 -91 110 -6 -3 -4 -16 5 -30 9 -13 23 -35 32 -49 9 -14 15
-27 13 -29 -28 -27 -184 -146 -189 -144 -11 4 -90 98 -90 106 0 4 49 47 110
96 60 50 108 92 105 94 -2 2 -57 -39 -122 -92 -96 -78 -126 -97 -161 -102 -61
-9 -119 1 -212 36 l-80 31 -42 -34 c-48 -38 -287 -198 -360 -241 l-47 -27 -83
49 c-108 63 -117 81 -87 166 l23 63 -29 48 c-33 58 -53 38 177 178 92 55 166
103 164 105 -3 2 -307 -180 -367 -220 -12 -8 -32 -4 -83 16 -78 32 -115 29
-179 -15 -35 -24 -53 -29 -103 -29 -42 0 -65 -5 -74 -15 -21 -25 -28 -17 -20
22 10 41 65 101 250 271 103 94 234 192 257 192 5 0 17 -6 27 -13 16 -11 16
-19 6 -79 l-12 -66 -131 -98 -132 -99 -85 -6 -85 -5 82 -2 82 -2 139 103 139
102 12 69 c9 51 9 72 0 82 -9 11 1 19 52 41 98 41 432 213 545 280 147 88 652
354 779 411 315 141 705 240 958 241 64 1 117 -3 117 -8z m-2619 -95 c-20 -24
-242 -109 -254 -97 -6 6 -9 12 -6 15 8 7 244 95 258 96 10 0 11 -3 2 -14z
m113 -165 c67 -48 138 -99 158 -112 44 -28 45 -32 18 -59 -20 -20 -19 -20 7
-44 15 -14 51 -36 80 -48 29 -13 53 -26 53 -29 0 -4 -39 -23 -87 -44 -113 -48
-285 -136 -279 -142 3 -3 44 13 93 35 48 22 128 56 176 76 48 20 134 59 189
87 93 47 115 53 252 75 83 14 204 36 269 49 64 14 121 25 125 25 4 0 -56 -33
-133 -73 -77 -41 -189 -102 -250 -136 -60 -34 -243 -129 -405 -209 -162 -81
-323 -167 -358 -190 -57 -39 -277 -237 -362 -326 -19 -20 -42 -58 -50 -83
l-15 -47 -101 -31 c-90 -26 -109 -36 -160 -83 l-59 -53 62 48 c49 38 82 54
155 75 51 15 94 25 96 24 7 -8 -356 -242 -528 -341 -8 -5 41 51 110 124 68 74
159 172 201 220 42 47 132 149 201 226 127 144 165 192 109 140 -26 -24 -34
-27 -41 -16 -21 34 33 102 155 196 62 47 194 108 300 139 11 3 4 3 -16 0 -64
-8 -248 -91 -320 -144 l-70 -50 -58 41 -58 41 -69 -36 c-77 -39 -79 -46 -6
-17 l50 20 51 -36 c49 -34 51 -37 36 -57 -27 -37 -57 -98 -71 -145 -30 -96
-29 -96 -158 18 -125 111 -176 165 -176 184 0 8 112 75 249 151 137 76 257
146 266 156 16 17 14 22 -26 82 -23 35 -69 100 -101 145 -33 46 -57 87 -54 92
3 5 20 14 38 20 26 9 30 9 20 -1 -18 -18 -15 -33 4 -17 21 17 335 167 353 168
8 1 68 -39 135 -88z m-468 23 c-82 -40 -145 -59 -120 -35 13 13 175 79 194 79
8 0 -25 -19 -74 -44z m2349 -680 c-9 -49 -33 -98 -56 -112 -17 -11 -17 -6 6
55 36 93 63 125 50 57z m-73 -61 c-5 -10 -17 -35 -27 -56 -10 -21 -20 -36 -22
-33 -5 5 45 106 53 106 2 0 1 -8 -4 -17z m-2592 -241 c76 -82 97 -99 106 -88
6 9 15 11 23 7 10 -7 9 -14 -5 -35 l-17 -27 -80 78 c-104 103 -137 148 -136
187 1 30 2 30 8 5 3 -14 49 -71 101 -127z m5 47 c34 -35 47 -53 30 -41 -39 27
-136 128 -110 114 11 -6 47 -39 80 -73z m623 -243 c15 -8 43 -31 62 -52 l35
-38 -38 32 c-44 37 -39 36 -80 16 -58 -30 -59 -33 -22 -69 19 -18 35 -39 34
-46 0 -10 -2 -10 -5 -2 -6 14 -91 -43 -86 -59 1 -5 -2 -7 -7 -4 -5 4 -72 -38
-148 -92 -76 -54 -213 -150 -304 -214 l-167 -115 -118 -6 c-65 -4 -120 -5
-122 -3 -13 13 257 217 506 383 160 107 292 197 292 199 0 8 -28 -10 -275
-174 -211 -141 -242 -158 -256 -146 -23 21 -41 17 -105 -21 -33 -20 -50 -35
-39 -35 10 0 39 14 65 30 28 18 54 28 64 24 24 -9 20 -19 -21 -50 -21 -15 -90
-72 -155 -127 -104 -88 -124 -100 -193 -122 -42 -13 -95 -36 -118 -51 -35 -23
-27 -11 50 72 133 145 230 233 306 279 37 22 175 111 306 198 173 113 248 157
269 157 49 0 122 -12 117 -20 -8 -12 79 6 114 24 40 21 31 33 -29 39 l-45 4
43 1 c24 1 55 -4 70 -12z m834 -101 c29 -13 77 -30 105 -36 50 -11 52 -14 46
-38 -20 -87 -19 -87 -278 -244 l-111 -68 -109 46 c-59 25 -113 44 -118 42 -6
-2 27 -18 74 -37 128 -51 172 -75 197 -109 12 -16 22 -32 22 -35 0 -2 -46 -19
-102 -36 -57 -18 -209 -74 -338 -125 -129 -51 -256 -100 -283 -109 -26 -9 -64
-26 -85 -39 -20 -13 -129 -75 -242 -137 -270 -149 -337 -195 -380 -265 -30
-47 -50 -67 -50 -50 0 3 20 44 45 91 51 96 58 148 26 200 l-19 32 166 163 c92
91 282 273 424 406 246 233 256 241 263 215 3 -15 15 -37 26 -48 l20 -21 -58
-50 c-32 -27 -126 -104 -209 -171 -83 -66 -157 -129 -165 -138 -8 -10 77 57
189 147 112 90 214 173 227 183 l25 20 88 -47 88 -46 146 93 c153 98 246 166
287 210 14 14 26 26 27 26 1 0 26 -11 56 -25z m-835 -97 c-3 -8 -6 -5 -6 6 -1
11 2 17 5 13 3 -3 4 -12 1 -19z m-342 -276 c-27 -24 -328 -222 -332 -218 -2 2
71 54 164 115 154 101 193 126 168 103z m50 -41 c-33 -30 -141 -116 -147 -116
-4 0 -14 -9 -22 -20 -8 -11 -20 -20 -28 -20 -26 0 -138 -79 -133 -94 5 -11 3
-12 -10 -1 -8 7 -15 16 -15 20 0 4 57 44 128 88 70 45 150 97 177 116 49 34
69 45 50 27z m2784 -68 c15 -34 8 -41 -194 -197 l-150 -116 -18 22 c-19 22
-18 23 10 48 16 14 79 63 140 110 77 59 108 88 102 96 -7 8 4 20 33 37 54 33
62 33 77 0z m-129 -42 c0 -4 -19 -21 -42 -37 -24 -16 -45 -32 -48 -35 -3 -3
-39 -30 -80 -59 -41 -29 -87 -65 -102 -79 -16 -13 -28 -20 -28 -15 0 16 35 46
233 197 48 37 67 45 67 28z m-1860 -31 c-8 -5 -19 -10 -25 -10 -5 0 -3 5 5 10
8 5 20 10 25 10 6 0 3 -5 -5 -10z m-50 -20 c-8 -5 -19 -10 -25 -10 -5 0 -3 5
5 10 8 5 20 10 25 10 6 0 3 -5 -5 -10z m-975 -26 c-16 -14 -40 -34 -52 -46
-13 -11 -23 -15 -23 -9 0 6 21 26 48 46 55 40 70 46 27 9z m925 6 c-8 -5 -19
-10 -25 -10 -5 0 -3 5 5 10 8 5 20 10 25 10 6 0 3 -5 -5 -10z m168 -5 c-3 -3
-276 -125 -335 -151 -36 -15 -41 -29 -18 -54 14 -16 0 -24 -183 -108 -258
-118 -709 -299 -719 -288 -18 18 355 235 590 343 76 36 140 63 142 61 2 -2
-37 -25 -86 -52 l-91 -48 28 -29 c31 -32 48 -31 19 1 -10 11 -16 22 -14 23 30
23 268 146 340 176 52 22 144 62 204 89 61 28 114 48 118 45 5 -3 7 -6 5 -8z
m-263 -35 c-33 -16 -64 -28 -70 -28 -5 0 17 13 50 28 33 16 65 29 70 29 6 0
-17 -13 -50 -29z m-1015 -5 c0 -2 -10 -9 -22 -15 -22 -11 -22 -10 -4 4 21 17
26 19 26 11z m-50 -29 c0 -2 -66 -46 -147 -97 -82 -51 -158 -99 -170 -107 -13
-8 -23 -12 -23 -9 0 5 149 103 260 171 80 48 80 48 80 42z m979 0 c-17 -15
-292 -126 -300 -120 -6 3 56 33 138 64 135 53 174 67 162 56z m-1160 -32 c-13
-14 -69 -59 -124 -100 -55 -40 -113 -83 -128 -95 -56 -43 -36 -10 29 46 56 49
230 174 243 175 3 0 -6 -12 -20 -26z m2383 -94 c39 -11 41 -13 24 -26 -16 -11
-24 -10 -57 9 -37 21 -55 45 -25 34 8 -3 34 -11 58 -17z m-1546 -9 c-6 -8 -55
-38 -336 -204 -47 -28 -96 -57 -110 -66 -14 -8 -21 -11 -17 -5 11 12 461 291
466 288 1 -1 0 -7 -3 -13z m1473 -34 c-6 -6 -122 -83 -136 -91 -7 -4 -13 -5
-13 -2 0 9 143 106 148 101 3 -3 3 -7 1 -8z m361 -37 c8 -5 11 -10 5 -10 -5 0
-17 5 -25 10 -8 5 -10 10 -5 10 6 0 17 -5 25 -10z m11 -39 c47 -22 75 -40 63
-40 -27 -1 -167 63 -158 72 9 9 0 12 95 -32z m75 4 c32 -13 52 -24 44 -24 -15
0 -120 47 -109 48 3 1 32 -10 65 -24z m-156 -16 c26 -15 29 -18 10 -13 -40 11
-70 23 -70 29 0 10 26 4 60 -16z m-2571 -52 c-82 -69 -173 -141 -244 -192 -67
-49 -75 -53 -50 -24 134 153 238 239 289 239 l31 0 -26 -23z m-334 -285 c-37
-33 -105 -83 -105 -79 0 6 100 87 108 87 3 0 2 -4 -3 -8z m-115 -86 c0 -2 -8
-10 -17 -17 -16 -13 -17 -12 -4 4 13 16 21 21 21 13z"/>
<path d="M4245 3952 c-61 -27 -138 -63 -172 -81 l-62 -33 -63 35 -63 35 -131
-61 -131 -62 65 -35 c36 -20 67 -40 69 -45 2 -6 -40 -37 -92 -70 -53 -33 -191
-122 -307 -198 -195 -128 -213 -137 -235 -126 -13 7 -23 15 -23 18 0 3 19 18
43 32 23 14 95 59 161 98 65 40 187 112 272 161 112 64 150 90 141 98 -38 30
-121 63 -146 57 -39 -10 -305 -146 -486 -249 -246 -139 -333 -183 -419 -211
-124 -41 -176 -72 -269 -162 -55 -53 -149 -207 -145 -236 5 -31 51 -59 106
-65 66 -6 193 27 298 78 100 49 262 168 334 246 45 50 51 62 48 92 -4 28 0 36
23 48 26 13 29 12 58 -15 39 -37 41 -77 4 -152 -20 -41 -72 -99 -221 -246
-110 -108 -192 -197 -190 -205 3 -7 17 -19 31 -26 26 -13 32 -10 110 44 157
110 347 255 347 265 0 6 -20 36 -43 67 l-44 57 24 45 c18 33 23 58 22 94 -3
47 -1 51 33 72 l35 23 38 -39 c23 -23 33 -40 26 -44 -6 -4 -15 -5 -20 -2 -5 3
-14 -1 -21 -9 -7 -8 -9 -15 -4 -15 4 0 3 -5 -4 -12 -17 -17 -15 -63 5 -79 15
-13 15 -12 4 9 -18 35 -6 67 35 91 l35 21 -43 40 -43 40 23 17 c12 10 88 60
170 112 81 52 192 124 246 159 110 70 105 70 141 1 14 -26 13 -27 -45 -68 -33
-23 -66 -48 -74 -56 -8 -8 -18 -15 -23 -15 -16 0 -63 -25 -63 -33 0 -5 -4 -6
-9 -3 -4 3 -17 -2 -27 -10 -10 -9 -13 -12 -5 -8 9 4 12 3 7 -4 -3 -6 -14 -10
-24 -9 -9 0 -29 -7 -44 -17 -32 -21 -36 -28 -10 -19 27 10 -9 -27 -90 -94 -38
-31 -66 -58 -64 -61 3 -2 21 10 41 27 20 17 91 68 158 113 67 45 154 104 192
133 95 70 95 69 95 47 0 -13 -33 -45 -96 -93 -130 -100 -264 -209 -264 -216 0
-2 26 16 58 41 31 26 116 92 188 149 131 101 132 102 127 137 -3 19 -16 55
-29 79 -13 24 -24 45 -24 47 0 2 32 22 70 45 57 34 73 39 85 29 23 -19 75
-102 69 -111 -2 -5 -38 -32 -79 -60 -41 -28 -75 -53 -75 -56 0 -6 9 0 123 78
54 38 103 69 109 71 12 4 -25 83 -54 115 l-21 22 48 23 47 23 45 -48 c25 -27
48 -46 51 -43 3 3 -16 27 -42 52 -25 26 -45 48 -44 50 2 1 57 26 123 55 66 28
122 53 124 55 14 12 -27 -2 -124 -44z m-304 -89 c27 -14 49 -29 49 -33 0 -4
-11 -12 -25 -18 -22 -10 -33 -7 -85 22 -57 31 -59 33 -38 44 34 16 46 14 99
-15z m-111 -23 c8 -5 11 -10 5 -10 -5 0 -17 5 -25 10 -8 5 -10 10 -5 10 6 0
17 -5 25 -10z m220 -67 c36 -56 37 -74 8 -92 -20 -12 -23 -12 -33 4 -5 9 -24
36 -42 60 l-32 43 22 15 c34 25 45 20 77 -30z m-625 -92 c-71 -37 -221 -121
-333 -185 -199 -114 -255 -142 -178 -90 102 69 606 344 631 344 6 0 -48 -31
-120 -69z m115 -276 c-7 -8 -18 -15 -24 -15 -6 0 -2 7 8 15 25 19 32 19 16 0z
m-583 -117 c26 -11 24 -12 -42 -20 -67 -9 -90 -8 -145 7 -17 4 -14 0 12 -15
21 -11 42 -30 48 -43 11 -21 11 -21 -5 -2 -15 19 -17 19 -83 2 -90 -24 -104
-40 -27 -32 l60 7 -52 -26 c-38 -18 -53 -31 -53 -46 0 -11 -7 -20 -15 -20 -8
0 -15 5 -15 10 0 6 -7 10 -15 10 -22 0 -191 -86 -250 -127 -39 -28 -24 -9 70
87 99 101 132 128 190 156 76 36 81 42 16 19 -52 -18 -135 -73 -201 -132 -27
-25 -50 -42 -50 -38 0 4 14 26 31 50 52 72 140 123 261 149 79 17 228 20 265
4z m-107 -140 c0 -29 -7 -51 -21 -68 l-21 -25 16 27 c9 15 16 45 16 68 0 22 2
40 5 40 3 0 5 -19 5 -42z m-526 -214 c3 -8 2 -12 -4 -9 -6 3 -10 10 -10 16 0
14 7 11 14 -7z m153 -20 c-3 -3 -12 -4 -19 -1 -8 3 -5 6 6 6 11 1 17 -2 13 -5z
m-74 -11 c-7 -2 -19 -2 -25 0 -7 3 -2 5 12 5 14 0 19 -2 13 -5z m567 -26 c-64
-57 -143 -120 -139 -111 4 11 139 124 149 124 2 0 -2 -6 -10 -13z"/>
<path d="M4058 3963 c7 -3 16 -2 19 1 4 3 -2 6 -13 5 -11 0 -14 -3 -6 -6z"/>
<path d="M3950 3940 c-11 -7 -7 -10 18 -10 17 0 32 5 32 10 0 13 -30 13 -50 0z"/>
<path d="M4040 3916 c0 -3 9 -10 20 -16 11 -6 20 -8 20 -6 0 3 -9 10 -20 16
-11 6 -20 8 -20 6z"/>
<path d="M4242 3895 c9 -11 18 -31 21 -45 l4 -25 2 26 c0 16 -8 33 -21 45 -23
19 -23 19 -6 -1z"/>
<path d="M2708 3363 c7 -3 16 -2 19 1 4 3 -2 6 -13 5 -11 0 -14 -3 -6 -6z"/>
<path d="M2588 3319 c-21 -11 -38 -22 -38 -24 0 -5 79 32 89 41 12 11 -18 1
-51 -17z"/>
<path d="M2394 3204 c-18 -14 -18 -15 4 -4 12 6 22 13 22 15 0 8 -5 6 -26 -11z"/>
<path d="M2260 3135 c-123 -62 -147 -87 -155 -162 -7 -59 -9 -61 -61 -99 -29
-21 -51 -40 -49 -43 6 -6 155 108 187 142 14 16 36 50 49 74 13 25 46 65 73
89 28 24 48 44 46 43 -3 0 -43 -20 -90 -44z"/>
<path d="M3613 3003 c15 -2 37 -2 50 0 12 2 0 4 -28 4 -27 0 -38 -2 -22 -4z"/>
<path d="M3395 2969 c-60 -45 -67 -58 -9 -16 44 32 59 36 120 40 l69 3 -70 2
c-64 1 -74 -1 -110 -29z"/>
<path d="M3575 2923 c-49 -37 -127 -91 -172 -120 -81 -53 -118 -86 -47 -42
l36 22 -6 -29 c-17 -76 -33 -240 -25 -254 6 -10 8 1 9 33 0 78 30 251 44 259
22 12 256 189 256 194 0 7 -4 5 -95 -63z"/>
<path d="M2710 2835 c-14 -8 -20 -14 -15 -14 6 0 21 6 35 14 14 8 21 14 15 14
-5 0 -21 -6 -35 -14z"/>
<path d="M3325 2824 l-30 -26 33 22 c17 12 32 23 32 26 0 7 -4 5 -35 -22z"/>
<path d="M3402 2650 c-7 -47 -14 -105 -15 -130 -2 -36 -6 -45 -19 -44 -20 2
-15 -10 27 -66 24 -33 25 -36 8 -48 -10 -7 -81 -64 -158 -126 -169 -138 -255
-225 -255 -259 0 -26 29 -46 39 -28 4 6 64 -12 146 -44 77 -30 147 -54 155
-54 10 0 8 3 -5 9 -14 6 -15 9 -5 10 16 1 -27 29 -45 29 -5 0 1 -6 15 -14 50
-28 -7 -13 -124 33 -65 26 -119 52 -119 57 -1 10 251 227 284 245 12 7 44 -21
144 -127 l129 -135 -24 -18 c-24 -18 -25 -18 -64 15 -54 42 -206 148 -206 142
0 -3 54 -44 121 -92 l121 -87 -22 -23 -21 -22 68 -44 c37 -24 71 -45 74 -47 8
-4 100 70 97 77 -2 4 -32 34 -68 67 -90 84 -310 312 -310 323 0 5 20 24 45 42
24 19 45 38 45 43 0 5 -19 34 -41 64 -35 46 -40 58 -30 73 6 10 11 43 11 73 0
30 5 78 11 105 6 28 9 59 7 68 -2 10 -9 -20 -16 -67z"/>
<path d="M2400 2678 c-19 -17 -80 -72 -134 -122 -57 -52 -101 -85 -104 -78 -2
6 -11 12 -20 12 -21 0 -142 -98 -142 -115 0 -11 31 -45 42 -45 3 0 65 57 139
128 73 70 163 155 199 189 68 65 81 85 20 31z m-246 -206 c3 -5 -22 -35 -54
-67 -54 -53 -62 -58 -75 -44 -14 14 -9 21 46 67 62 52 74 59 83 44z"/>
<path d="M3566 2620 c-25 -27 -46 -55 -46 -61 0 -7 14 7 30 30 17 23 37 44 45
47 12 5 30 34 21 34 -2 0 -24 -22 -50 -50z"/>
<path d="M3650 2470 c12 -16 24 -30 26 -30 3 0 -4 14 -16 30 -12 17 -24 30
-26 30 -3 0 4 -13 16 -30z"/>
<path d="M3688 2418 c9 -9 9 -15 -1 -27 -10 -12 -9 -13 1 -7 9 5 23 -1 39 -15
21 -19 19 -15 -7 19 -18 23 -36 42 -39 42 -3 0 0 -5 7 -12z"/>
<path d="M3634 2358 c-41 -30 -52 -42 -29 -30 26 15 72 51 64 52 -4 0 -19 -10
-35 -22z"/>
<path d="M3636 2330 c-22 -17 -36 -30 -33 -30 12 0 77 44 77 53 0 10 -1 10
-44 -23z"/>
<path d="M3750 2336 c0 -2 8 -10 18 -17 15 -13 16 -12 3 4 -13 16 -21 21 -21
13z"/>
<path d="M3795 2280 c10 -11 20 -20 23 -20 3 0 -3 9 -13 20 -10 11 -20 20 -23
20 -3 0 3 -9 13 -20z"/>
<path d="M3738 2182 c-122 -94 -116 -85 -78 -129 50 -58 194 -207 184 -192 -4
8 -51 60 -103 117 -53 57 -96 107 -96 112 0 5 39 38 87 74 72 54 111 89 96 85
-2 0 -42 -31 -90 -67z"/>
<path d="M3930 2148 c24 -27 45 -48 47 -48 8 0 0 9 -44 50 l-48 45 45 -47z"/>
<path d="M4010 2106 c0 -2 8 -10 18 -17 15 -13 16 -12 3 4 -13 16 -21 21 -21
13z"/>
<path d="M4024 2043 c27 -29 54 -49 60 -46 6 4 4 8 -4 11 -8 2 -35 23 -60 46
l-45 41 49 -52z"/>
<path d="M3787 2035 c17 -22 50 -58 74 -80 36 -34 39 -36 21 -10 -11 17 -44
53 -73 80 -50 48 -51 48 -22 10z"/>
<path d="M3220 1915 c14 -8 30 -14 35 -14 6 0 -1 6 -15 14 -14 8 -29 14 -35
14 -5 0 1 -6 15 -14z"/>
<path d="M3361 1846 c6 -6 283 -124 344 -146 35 -14 44 -15 31 -5 -11 8 -27
15 -35 15 -10 0 -2 14 22 38 20 21 37 41 37 45 0 3 -17 -12 -39 -35 l-38 -42
-64 28 c-86 38 -251 106 -257 106 -3 0 -3 -2 -1 -4z"/>
<path d="M1698 3728 c-76 -40 -138 -77 -138 -83 0 -6 21 -31 48 -55 l47 -45
-42 45 c-24 25 -43 49 -43 53 0 3 17 15 37 26 l38 19 60 -50 60 -50 -58 54
-57 54 99 48 99 49 51 -37 c28 -21 51 -35 51 -33 0 8 -96 77 -106 77 -5 0 -71
-33 -146 -72z"/>
<path d="M1974 3702 c11 -12 17 -24 15 -26 -2 -2 -28 -14 -57 -26 -29 -13 -51
-24 -49 -26 2 -2 31 8 65 22 l61 27 36 -27 c19 -15 35 -25 35 -22 0 3 -28 26
-62 52 -35 26 -54 38 -44 26z"/>
<path d="M1510 3620 c12 -16 24 -30 26 -30 3 0 -4 14 -16 30 -12 17 -24 30
-26 30 -3 0 4 -13 16 -30z"/>
<path d="M1865 3613 c23 -24 177 -144 181 -140 3 2 -33 33 -78 67 -98 75 -117
89 -103 73z"/>
<path d="M2081 3607 c2 -1 13 -9 24 -17 19 -14 19 -14 6 3 -7 9 -18 17 -24 17
-6 0 -8 -1 -6 -3z"/>
<path d="M1775 3577 c4 -10 -11 -19 -55 -32 -33 -10 -60 -20 -60 -22 0 -3 34
-43 75 -89 41 -46 75 -88 75 -92 0 -5 -56 -34 -125 -66 -69 -33 -123 -61 -121
-63 2 -3 18 3 34 11 17 9 37 13 45 10 9 -3 32 4 54 15 36 20 36 21 8 15 -17
-3 1 9 43 30 39 19 72 39 72 43 0 5 -7 18 -15 30 -14 19 -13 22 13 32 15 5 48
16 75 22 26 6 49 14 51 18 3 4 -25 31 -62 61 -108 89 -112 93 -107 77z m-100
-327 c-3 -5 -14 -10 -23 -10 -15 0 -15 2 -2 10 20 13 33 13 25 0z"/>
<path d="M1600 3500 c33 -44 63 -80 66 -80 3 0 -23 36 -56 80 -33 44 -63 80
-66 80 -3 0 23 -36 56 -80z"/>
<path d="M2705 3504 c-44 -14 -87 -32 -95 -41 -14 -15 -13 -16 1 -5 9 7 50 22
90 33 40 11 80 24 88 29 24 14 4 10 -84 -16z"/>
<path d="M2525 3480 c-41 -10 -282 -130 -261 -130 8 0 59 23 112 50 53 28 99
49 101 47 2 -3 -28 -23 -67 -46 -38 -23 -70 -44 -70 -47 0 -6 38 14 130 68 41
25 89 50 105 56 28 10 28 10 5 10 -14 0 -38 -3 -55 -8z m-15 -20 c-8 -5 -19
-10 -25 -10 -5 0 -3 5 5 10 8 5 20 10 25 10 6 0 3 -5 -5 -10z"/>
<path d="M1990 3460 c-8 -5 -10 -10 -5 -10 6 0 17 5 25 10 8 5 11 10 5 10 -5
0 -17 -5 -25 -10z"/>
<path d="M1674 3390 c0 -13 4 -16 10 -10 7 7 7 13 0 20 -6 6 -10 3 -10 -10z"/>
<path d="M2154 3306 c-17 -8 -49 -25 -71 -39 -22 -14 -53 -27 -69 -30 -20 -3
-14 -4 18 -6 37 -1 59 6 108 35 33 19 58 39 55 45 -4 5 -7 9 -8 9 -1 -1 -16
-7 -33 -14z"/>
<path d="M1274 3124 c-18 -14 -18 -15 4 -4 12 6 22 13 22 15 0 8 -5 6 -26 -11z"/>
<path d="M1751 3064 c-56 -42 -101 -82 -101 -90 0 -8 -5 -14 -11 -14 -5 0 -7
5 -3 12 4 7 3 8 -5 4 -6 -4 -9 -11 -7 -15 3 -4 -16 -32 -41 -62 -30 -35 -36
-45 -17 -29 63 53 113 104 109 110 -3 4 30 34 73 67 96 74 98 75 142 84 l35 7
-37 1 c-31 1 -52 -10 -137 -75z"/>
<path d="M1920 3095 c25 -13 50 -24 55 -24 6 0 -10 11 -35 24 -25 13 -49 24
-55 24 -5 0 10 -11 35 -24z"/>
<path d="M1184 3074 c-18 -14 -18 -15 4 -4 12 6 22 13 22 15 0 8 -5 6 -26 -11z"/>
<path d="M1150 3054 c0 -10 252 -214 265 -214 4 0 -51 46 -122 101 -70 56
-131 106 -135 113 -5 7 -8 8 -8 0z"/>
<path d="M1099 2353 l-34 -38 38 34 c34 33 42 41 34 41 -2 0 -19 -17 -38 -37z"/>
<path d="M2085 2079 c-148 -111 -459 -348 -488 -372 -22 -18 -21 -18 8 -2 17
9 102 72 189 141 88 68 161 122 164 119 2 -2 -12 -27 -33 -55 -20 -27 -34 -50
-31 -50 3 0 31 33 61 74 40 52 85 96 153 147 112 83 120 89 107 88 -6 0 -64
-41 -130 -90z"/>
<path d="M2105 2040 c-12 -20 6 -50 31 -50 19 0 24 5 24 24 0 30 -41 49 -55
26z m39 -32 c-3 -5 -12 -4 -20 3 -7 6 -11 15 -8 21 3 5 12 4 20 -3 7 -6 11
-15 8 -21z"/>
<path d="M1513 1887 c-23 -17 -42 -36 -43 -40 0 -4 13 -16 30 -25 16 -9 30
-20 30 -23 0 -4 -25 -25 -55 -48 -30 -23 -55 -44 -55 -47 0 -3 49 32 109 78
l110 83 -32 28 c-17 15 -36 27 -42 27 -5 0 -29 -15 -52 -33z m89 -5 c17 -14
15 -17 -22 -44 -38 -28 -40 -29 -66 -12 l-27 18 39 32 c39 33 45 33 76 6z"/>
<path d="M1320 1642 c-177 -119 -188 -130 -201 -190 -6 -29 -9 -55 -7 -57 2
-3 58 42 124 99 79 68 125 115 134 137 7 19 20 42 28 52 23 26 14 22 -78 -41z"/>
<path d="M2849 3912 c-48 -21 -106 -54 -129 -74 l-43 -37 37 10 c39 11 156 67
156 75 0 2 -12 -2 -27 -9 -16 -8 -41 -17 -58 -21 -53 -13 -13 13 75 50 79 32
104 45 84 43 -5 0 -48 -17 -95 -37z"/>
<path d="M900 3530 c-8 -5 -10 -10 -5 -10 6 0 17 5 25 10 8 5 11 10 5 10 -5 0
-17 -5 -25 -10z"/>
<path d="M1093 3250 c-79 -38 -143 -71 -143 -74 0 -9 67 20 190 84 155 80 128
74 -47 -10z"/>
<path d="M4065 2810 c-3 -5 -21 -10 -38 -10 -18 -1 -48 -9 -67 -20 -42 -23
-33 -26 17 -5 48 20 64 19 32 -3 -47 -31 -112 -82 -105 -82 19 0 136 62 136
72 0 6 10 22 22 35 12 13 19 23 15 23 -3 0 -9 -4 -12 -10z"/>
<path d="M2759 1673 c-13 -16 -12 -17 4 -4 9 7 17 15 17 17 0 8 -8 3 -21 -13z"/>
<path d="M2705 1638 c-16 -12 -104 -76 -195 -143 -91 -67 -250 -182 -355 -255
-227 -160 -513 -369 -521 -382 -3 -5 68 45 158 110 90 65 233 167 318 227 85
60 238 169 339 243 109 81 186 131 190 124 3 -6 19 -14 34 -17 58 -15 25 -58
-155 -200 -82 -64 -148 -118 -148 -120 0 -5 203 114 324 189 55 35 107 74 113
87 7 13 13 42 13 65 0 22 4 44 10 50 6 6 -14 8 -53 6 -47 -3 -70 -10 -95 -29
-18 -14 -35 -23 -38 -20 -3 2 18 21 46 42 27 20 50 39 50 41 0 6 -3 5 -35 -18z"/>
<path d="M1910 1432 c-155 -95 -510 -331 -510 -340 0 -4 43 -29 96 -55 l95
-47 62 47 c119 91 293 233 357 293 l65 61 -59 -35 -59 -35 -33 27 c-19 15 -34
30 -34 34 0 4 27 28 60 54 53 41 67 55 58 54 -2 0 -46 -26 -98 -58z"/>
</g>
</svg>