<?xml version="1.0" standalone="no"?>
<!DOCTYPE svg PUBLIC "-//W3C//DTD SVG 20010904//EN"
 "http://www.w3.org/TR/2001/REC-SVG-20010904/DTD/svg10.dtd">
<svg version="1.0" xmlns="http://www.w3.org/2000/svg"
 width="512.000000pt" height="512.000000pt" viewBox="0 0 512.000000 512.000000"
 preserveAspectRatio="xMidYMid meet">
<metadata>
Created by potrace 1.16, written by Peter Selinger 2001-2019
</metadata>
<g transform="translate(0.000000,512.000000) scale(0.100000,-0.100000)"
fill="#000000" stroke="none">
<path d="M3360 4664 c-350 -43 -700 -174 -1105 -415 -267 -159 -460 -313 -720
-573 -475 -477 -765 -942 -765 -1227 0 -94 30 -185 81 -243 47 -53 94 -83 211
-133 229 -97 376 -127 633 -127 209 0 319 13 504 60 73 19 134 34 136 34 1 0
-55 -139 -125 -308 -70 -170 -135 -332 -144 -360 -10 -29 -34 -72 -54 -97 -21
-24 -87 -104 -147 -177 -115 -139 -299 -374 -329 -420 -12 -19 -37 -33 -84
-49 -83 -27 -132 -74 -132 -124 0 -27 -4 -34 -22 -37 -21 -3 -20 -5 10 -22 19
-9 41 -15 49 -12 8 3 19 3 25 0 6 -4 25 -8 42 -9 17 -1 105 -9 196 -16 228
-19 1416 -19 1620 -1 145 13 247 33 278 53 14 9 14 10 -5 6 -12 -3 -21 -1 -20
3 3 12 -165 163 -228 205 -118 78 -266 129 -477 165 -202 34 -190 29 -215 80
-13 24 -23 58 -23 75 0 49 28 144 65 223 l34 72 60 0 c79 0 88 4 117 61 13 27
35 56 49 65 30 20 32 52 5 86 l-19 25 25 12 c45 20 132 90 139 112 5 14 0 28
-16 45 l-22 24 36 0 c30 0 40 5 49 25 6 15 25 29 47 36 78 25 129 103 116 178
-4 24 -2 42 4 46 38 23 -27 119 -92 135 -73 19 -72 17 -37 57 29 32 32 41 27
82 -5 44 -4 48 45 96 73 74 309 325 422 450 320 354 483 627 563 945 47 188
33 342 -47 500 -38 76 -136 216 -181 260 -48 46 -136 93 -214 115 -59 16 -292
28 -365 19z m290 -18 c149 -27 249 -85 316 -182 68 -99 79 -274 29 -448 -76
-264 -331 -686 -631 -1046 -273 -329 -492 -516 -770 -657 -81 -42 -96 -46
-114 -35 -35 22 -158 15 -241 -14 -112 -38 -327 -92 -463 -115 -174 -30 -449
-37 -586 -15 -100 16 -107 19 -146 57 -79 77 -124 201 -124 340 0 333 250 734
782 1254 275 269 528 450 853 610 271 134 508 214 715 244 41 6 86 13 100 15
60 8 211 4 280 -8z m410 -371 c4 3 16 -14 25 -38 24 -57 30 -209 15 -338 -7
-57 -13 -111 -14 -119 -1 -9 -5 -21 -9 -27 -5 -8 2 -7 20 2 15 8 29 11 31 6 6
-18 -67 -219 -111 -307 -75 -148 -186 -310 -336 -488 -92 -109 -402 -438 -407
-433 -3 2 0 16 6 31 5 15 19 72 30 128 12 55 27 115 35 132 26 56 69 131 106
181 180 246 446 693 523 879 38 90 68 232 70 318 0 48 3 83 4 77 2 -5 7 -7 12
-4z m-889 -1657 c-71 -161 -125 -257 -188 -336 -21 -26 -28 -39 -17 -29 26 22
53 21 82 -1 l24 -18 -38 -34 c-47 -41 -170 -100 -222 -107 -32 -4 -44 -1 -62
17 -22 22 -26 23 -180 16 -138 -6 -160 -5 -174 9 -9 9 -16 20 -16 25 0 5 64
40 143 79 259 128 443 256 607 422 58 58 106 107 107 108 0 0 -29 -68 -66
-151z m-2292 -258 c13 -57 13 -60 1 -60 -6 0 -20 19 -30 43 -23 49 -26 131 -7
209 l12 53 7 -100 c3 -55 11 -120 17 -145z m1435 -197 l50 -56 -22 -17 c-23
-19 -219 -70 -352 -92 -89 -15 -472 -15 -545 0 -28 5 -39 10 -25 11 20 1 25 6
25 26 l0 25 -105 0 c-133 1 -175 10 -214 51 -22 22 -25 30 -12 25 44 -15 191
-35 311 -41 72 -4 136 -12 143 -17 25 -21 330 33 557 98 49 14 97 30 105 35
26 15 34 10 84 -48z m784 -30 c47 -29 92 -76 92 -96 0 -18 -3 -17 -25 7 -13
14 -29 26 -35 26 -12 0 -70 60 -70 72 0 12 8 10 38 -9z m-36 -20 c26 -23 23
-28 -24 -43 -24 -7 -52 -18 -63 -26 -26 -18 -61 -18 -68 1 -4 10 13 24 61 48
37 19 69 35 71 35 3 1 13 -5 23 -15z m-555 -79 c52 -25 103 -74 103 -99 0 -8
-15 -47 -34 -88 -65 -142 -79 -215 -63 -322 l8 -50 -78 -40 c-63 -32 -100 -62
-194 -155 -124 -124 -286 -331 -327 -418 -20 -44 -22 -58 -14 -78 16 -34 47
-38 210 -24 213 18 587 17 682 -3 160 -33 264 -92 258 -146 -6 -51 -95 -74
-413 -108 -139 -14 -258 -18 -650 -18 -479 0 -600 6 -592 28 2 7 36 20 75 31
l71 19 16 51 c9 31 50 101 106 181 50 72 123 180 163 240 41 61 114 153 163
205 l90 95 133 310 c201 471 179 427 209 420 14 -4 49 -18 78 -31z m348 -14
c24 -27 80 -26 125 1 l35 21 -25 -28 c-37 -43 -40 -44 -107 -44 l-63 0 0 -30
c0 -30 1 -30 54 -30 30 0 58 -4 61 -10 4 -6 -17 -10 -54 -10 -58 0 -61 -1 -61
-25 0 -24 2 -25 68 -25 73 0 112 -7 112 -21 0 -5 -44 -9 -97 -9 -129 0 -110
-17 24 -22 94 -3 102 -1 107 16 6 24 -1 36 -20 36 -8 0 -22 16 -30 35 -18 45
-6 101 32 139 71 70 195 -11 170 -110 -11 -41 -59 -84 -94 -84 -26 0 -31 -5
-37 -31 -7 -31 -10 -33 -56 -43 -15 -3 -29 -15 -32 -26 -5 -19 -13 -20 -161
-20 -97 0 -156 -4 -156 -10 0 -6 58 -10 155 -10 85 0 155 -3 155 -7 0 -20 -56
-83 -92 -103 -37 -21 -56 -24 -156 -24 -86 -1 -116 2 -125 13 -7 8 -11 41 -10
75 3 118 83 271 189 365 53 47 64 49 89 21z m-1478 -6 c-3 -3 -12 -4 -19 -1
-8 3 -5 6 6 6 11 1 17 -2 13 -5z m1643 -349 c0 -17 -45 -48 -61 -43 -7 2 -1
16 16 36 26 32 45 34 45 7z m-372 -241 c43 -30 20 -80 -55 -118 -18 -9 -34
-16 -38 -16 -15 0 -1 23 31 52 30 27 35 38 32 65 -4 37 -1 39 30 17z m152 -19
c0 -10 -10 -15 -30 -15 -20 0 -30 5 -30 15 0 10 10 15 30 15 20 0 30 -5 30
-15z m-340 -66 c0 -6 -22 -57 -49 -113 -27 -57 -66 -155 -86 -219 -20 -65 -40
-119 -43 -121 -18 -10 -222 -17 -222 -7 0 36 286 416 343 456 25 17 57 20 57
4z"/>
<path d="M3771 4576 c2 -2 15 -9 29 -15 24 -11 24 -11 6 3 -16 13 -49 24 -35
12z"/>
<path d="M3298 4545 c-390 -56 -890 -280 -1265 -568 -99 -76 -186 -159 -133
-125 14 8 99 62 190 120 379 239 660 376 940 456 187 54 270 67 450 66 152 0
171 -2 246 -27 95 -32 190 -90 229 -142 16 -20 37 -60 47 -88 l19 -52 -7 45
c-20 147 -142 261 -325 305 -92 22 -275 27 -391 10z"/>
<path d="M3682 4110 c0 -14 2 -19 5 -12 2 6 2 18 0 25 -3 6 -5 1 -5 -13z"/>
<path d="M3657 3990 c-53 -235 -199 -520 -463 -904 l-123 -178 -40 86 c-51
110 -81 227 -75 286 l5 45 -102 -105 c-57 -58 -99 -96 -95 -85 14 37 45 180
56 255 14 101 0 170 -43 206 -30 25 -36 26 -117 22 -56 -3 -95 -10 -115 -22
-16 -9 -21 -14 -10 -11 41 14 153 17 188 6 49 -16 87 -63 87 -107 0 -44 -49
-99 -145 -164 -38 -26 -103 -75 -144 -108 -41 -34 -79 -59 -83 -56 -24 15
-208 229 -208 242 0 9 -7 23 -15 32 -14 15 -13 22 5 64 13 28 19 55 15 69 -11
36 -116 137 -143 137 -15 0 -45 -20 -82 -55 l-58 -56 -40 47 c-27 32 -45 45
-56 41 -27 -11 -18 -31 33 -71 l49 -39 -14 -41 c-20 -56 -13 -76 52 -135 44
-41 63 -51 90 -51 19 0 34 -4 34 -8 0 -5 -22 -36 -49 -70 -163 -203 -291 -449
-291 -560 0 -38 5 -50 34 -77 40 -38 98 -55 212 -64 l82 -6 -106 -90 c-182
-154 -341 -297 -346 -311 -4 -9 2 -14 17 -14 21 1 47 21 318 250 68 58 145
122 170 143 l45 36 52 -19 c45 -17 201 -50 236 -50 7 0 21 7 32 15 18 15 18
15 -8 9 -15 -3 -60 0 -100 7 -56 11 -66 14 -40 17 34 3 41 15 18 29 -16 10
-41 54 -38 67 2 5 -5 5 -15 2 -27 -11 -9 3 102 79 151 102 279 207 392 322 56
56 105 98 108 93 3 -6 3 -10 -2 -10 -4 0 -3 -4 3 -8 13 -9 55 -111 85 -211
l22 -75 -40 -36 c-22 -19 -65 -48 -94 -64 -98 -53 -399 -240 -399 -249 0 -12
32 -1 128 43 45 21 82 37 82 34 0 -10 -190 -129 -275 -172 l-90 -45 40 -9 c70
-16 137 -5 228 40 152 72 277 173 293 236 8 33 15 33 39 -4 11 -16 25 -30 31
-30 13 0 130 121 163 167 l22 33 -25 42 -25 43 60 90 c224 333 330 527 415
755 52 141 96 303 92 339 -2 13 -11 -13 -21 -59z m-1591 -357 c-10 -36 -59
-106 -90 -127 -29 -19 -32 -10 -12 38 15 37 82 116 98 116 6 0 7 -11 4 -27z
m-32 -219 c36 -33 43 -43 30 -48 -8 -3 -24 -2 -33 4 -28 14 -82 80 -76 91 8
12 21 4 79 -47z m346 -267 c88 -89 109 -125 67 -115 -15 3 -261 265 -313 333
-14 19 -23 39 -19 45 3 5 42 -29 88 -77 44 -49 124 -132 177 -186z m-133 68
c51 -57 95 -110 99 -118 3 -9 -19 -46 -58 -94 -90 -111 -162 -243 -132 -243 5
0 51 54 103 120 52 66 105 129 118 142 22 21 23 21 23 2 0 -50 48 -57 91 -15
36 36 40 86 8 96 -18 6 -11 14 52 56 116 78 199 123 210 112 6 -6 3 -42 -7
-96 l-16 -87 -82 -73 c-165 -148 -363 -299 -493 -378 -50 -30 -49 -29 -33 -39
24 -15 -34 -23 -109 -16 -157 16 -231 57 -231 130 0 43 28 122 79 223 70 141
253 396 275 386 6 -3 53 -51 103 -108z"/>
<path d="M2935 3881 c-140 -52 -285 -141 -454 -278 -121 -97 -113 -109 10 -15
340 258 531 334 671 268 60 -29 83 -76 83 -171 0 -44 -3 -102 -7 -130 -10 -73
7 -23 22 63 20 123 -3 204 -73 256 -40 30 -181 33 -252 7z"/>
<path d="M3023 3158 c-6 -24 -15 -52 -19 -63 -3 -11 6 -3 20 18 22 30 26 43
19 63 -8 24 -9 23 -20 -18z"/>
<path d="M1550 2554 c0 -20 45 -78 78 -101 18 -12 57 -26 85 -32 74 -14 175
-21 157 -12 -8 5 -44 11 -80 14 -115 10 -178 43 -221 112 -11 17 -19 25 -19
19z"/>
<path d="M2018 2273 c7 -3 16 -2 19 1 4 3 -2 6 -13 5 -11 0 -14 -3 -6 -6z"/>
<path d="M1968 2263 c7 -3 16 -2 19 1 4 3 -2 6 -13 5 -11 0 -14 -3 -6 -6z"/>
<path d="M1903 2253 c9 -2 23 -2 30 0 6 3 -1 5 -18 5 -16 0 -22 -2 -12 -5z"/>
<path d="M1828 2243 c12 -2 30 -2 40 0 9 3 -1 5 -23 4 -22 0 -30 -2 -17 -4z"/>
<path d="M1190 2231 c49 -28 206 -44 315 -32 79 8 79 8 -55 10 -78 1 -160 7
-195 16 -68 16 -87 18 -65 6z"/>
<path d="M1613 2213 c9 -2 23 -2 30 0 6 3 -1 5 -18 5 -16 0 -22 -2 -12 -5z"/>
<path d="M4060 4255 c0 -5 5 -17 10 -25 5 -8 10 -10 10 -5 0 6 -5 17 -10 25
-5 8 -10 11 -10 5z"/>
<path d="M3044 1946 c-38 -38 -43 -65 -16 -89 29 -26 70 -21 103 12 33 34 37
70 11 94 -29 26 -61 20 -98 -17z"/>
</g>
</svg>